<svg width="35" height="35" viewBox="0 0 35 35" fill="none" xmlns="http://www.w3.org/2000/svg">
<g style="mix-blend-mode:plus-lighter" filter="url(#filter0_df_542_567)">
<path d="M29.5 17.5C22.872 17.5 17.5 22.872 17.5 29.5C17.5 22.872 12.128 17.5 5.5 17.5C12.128 17.5 17.5 12.128 17.5 5.5C17.5 12.128 22.872 17.5 29.5 17.5Z" fill="#FFFE03"/>
</g>
<g style="mix-blend-mode:plus-lighter" filter="url(#filter1_df_542_567)">
<path d="M28.5 16.5C21.872 16.5 16.5 21.872 16.5 28.5C16.5 21.872 11.128 16.5 4.5 16.5C11.128 16.5 16.5 11.128 16.5 4.5C16.5 11.128 21.872 16.5 28.5 16.5Z" fill="#E42477"/>
</g>
<g style="mix-blend-mode:plus-lighter" filter="url(#filter2_df_542_567)">
<path d="M30.5 18.5C23.872 18.5 18.5 23.872 18.5 30.5C18.5 23.872 13.128 18.5 6.5 18.5C13.128 18.5 18.5 13.128 18.5 6.5C18.5 13.128 23.872 18.5 30.5 18.5Z" fill="#D80528"/>
</g>
<defs>
<filter id="filter0_df_542_567" x="1.5" y="1.5" width="32" height="32" filterUnits="userSpaceOnUse" color-interpolation-filters="sRGB">
<feFlood flood-opacity="0" result="BackgroundImageFix"/>
<feColorMatrix in="SourceAlpha" type="matrix" values="0 0 0 0 0 0 0 0 0 0 0 0 0 0 0 0 0 0 127 0" result="hardAlpha"/>
<feOffset/>
<feGaussianBlur stdDeviation="2"/>
<feComposite in2="hardAlpha" operator="out"/>
<feColorMatrix type="matrix" values="0 0 0 0 1 0 0 0 0 0.996078 0 0 0 0 0.0117647 0 0 0 0.25 0"/>
<feBlend mode="normal" in2="BackgroundImageFix" result="effect1_dropShadow_542_567"/>
<feBlend mode="normal" in="SourceGraphic" in2="effect1_dropShadow_542_567" result="shape"/>
<feGaussianBlur stdDeviation="0.5" result="effect2_foregroundBlur_542_567"/>
</filter>
<filter id="filter1_df_542_567" x="0.5" y="0.5" width="32" height="32" filterUnits="userSpaceOnUse" color-interpolation-filters="sRGB">
<feFlood flood-opacity="0" result="BackgroundImageFix"/>
<feColorMatrix in="SourceAlpha" type="matrix" values="0 0 0 0 0 0 0 0 0 0 0 0 0 0 0 0 0 0 127 0" result="hardAlpha"/>
<feOffset/>
<feGaussianBlur stdDeviation="2"/>
<feComposite in2="hardAlpha" operator="out"/>
<feColorMatrix type="matrix" values="0 0 0 0 0.894118 0 0 0 0 0.141176 0 0 0 0 0.466667 0 0 0 0.25 0"/>
<feBlend mode="normal" in2="BackgroundImageFix" result="effect1_dropShadow_542_567"/>
<feBlend mode="normal" in="SourceGraphic" in2="effect1_dropShadow_542_567" result="shape"/>
<feGaussianBlur stdDeviation="0.5" result="effect2_foregroundBlur_542_567"/>
</filter>
<filter id="filter2_df_542_567" x="2.5" y="2.5" width="32" height="32" filterUnits="userSpaceOnUse" color-interpolation-filters="sRGB">
<feFlood flood-opacity="0" result="BackgroundImageFix"/>
<feColorMatrix in="SourceAlpha" type="matrix" values="0 0 0 0 0 0 0 0 0 0 0 0 0 0 0 0 0 0 127 0" result="hardAlpha"/>
<feOffset/>
<feGaussianBlur stdDeviation="2"/>
<feComposite in2="hardAlpha" operator="out"/>
<feColorMatrix type="matrix" values="0 0 0 0 0.847059 0 0 0 0 0.0196078 0 0 0 0 0.156863 0 0 0 0.25 0"/>
<feBlend mode="normal" in2="BackgroundImageFix" result="effect1_dropShadow_542_567"/>
<feBlend mode="normal" in="SourceGraphic" in2="effect1_dropShadow_542_567" result="shape"/>
<feGaussianBlur stdDeviation="0.5" result="effect2_foregroundBlur_542_567"/>
</filter>
</defs>
</svg>
