<svg width="48" height="48" viewBox="0 0 48 48" fill="none" xmlns="http://www.w3.org/2000/svg">
<g clip-path="url(#clip0_275_4411)">
<g style="mix-blend-mode:plus-lighter" filter="url(#filter0_df_275_4411)">
<path d="M24.3105 1H35.4653C35.4653 7.15982 40.4577 12.1548 46.6201 12.1548V23.3096C34.2979 23.3096 24.3107 13.3224 24.3107 1.00014L24.3105 1Z" fill="#D80528"/>
<path d="M46.6201 23.3096V34.4644C40.4603 34.4644 35.4653 39.4568 35.4653 45.6192H24.3105C24.3105 33.2969 34.2978 23.3097 46.62 23.3097L46.6201 23.3096Z" fill="#D80528"/>
<path d="M24.3098 1H13.155C13.155 7.15982 8.16264 12.1548 2.00024 12.1548V23.3096C14.3225 23.3096 24.3097 13.3224 24.3097 1.00014L24.3098 1Z" fill="#D80528"/>
<path d="M2 23.3096V34.4644C8.15982 34.4644 13.1548 39.4568 13.1548 45.6192H24.3096C24.3096 33.2969 14.3224 23.3097 2.00014 23.3097L2 23.3096Z" fill="#D80528"/>
</g>
<g style="mix-blend-mode:plus-lighter" filter="url(#filter1_df_275_4411)">
<path d="M24.3105 1H35.4653C35.4653 7.15982 40.4577 12.1548 46.6201 12.1548V23.3096C34.2979 23.3096 24.3107 13.3224 24.3107 1.00014L24.3105 1Z" fill="#E42477"/>
<path d="M46.6182 23.3096V34.4644C40.4584 34.4644 35.4634 39.4568 35.4634 45.6192H24.3086C24.3086 33.2969 34.2958 23.3097 46.618 23.3097L46.6182 23.3096Z" fill="#E42477"/>
<path d="M24.3097 1H13.1549C13.1549 7.15982 8.16252 12.1548 2.00012 12.1548V23.3096C14.3223 23.3096 24.3096 13.3224 24.3096 1.00014L24.3097 1Z" fill="#E42477"/>
<path d="M2.00024 23.3096V34.4644C8.16007 34.4644 13.155 39.4568 13.155 45.6192H24.3098C24.3098 33.2969 14.3226 23.3097 2.00038 23.3097L2.00024 23.3096Z" fill="#E42477"/>
</g>
<g style="mix-blend-mode:plus-lighter" filter="url(#filter2_df_275_4411)">
<path d="M24.3091 1H35.4639C35.4639 7.15982 40.4563 12.1548 46.6187 12.1548V23.3096C34.2964 23.3096 24.3092 13.3224 24.3092 1.00014L24.3091 1Z" fill="#FFFE03"/>
<path d="M46.6185 23.3096V34.4644C40.4587 34.4644 35.4638 39.4568 35.4638 45.6192H24.309C24.309 33.2969 34.2962 23.3097 46.6184 23.3097L46.6185 23.3096Z" fill="#FFFE03"/>
<path d="M24.3091 1H13.1543C13.1543 7.15982 8.16191 12.1548 1.99951 12.1548V23.3096C14.3217 23.3096 24.309 13.3224 24.309 1.00014L24.3091 1Z" fill="#FFFE03"/>
<path d="M1.99963 23.3096V34.4644C8.15946 34.4644 13.1544 39.4568 13.1544 45.6192H24.3092C24.3092 33.2969 14.322 23.3097 1.99977 23.3097L1.99963 23.3096Z" fill="#FFFE03"/>
</g>
</g>
<defs>
<filter id="filter0_df_275_4411" x="-6.33333" y="-7.33333" width="61.2868" height="61.2858" filterUnits="userSpaceOnUse" color-interpolation-filters="sRGB">
<feFlood flood-opacity="0" result="BackgroundImageFix"/>
<feColorMatrix in="SourceAlpha" type="matrix" values="0 0 0 0 0 0 0 0 0 0 0 0 0 0 0 0 0 0 127 0" result="hardAlpha"/>
<feOffset/>
<feGaussianBlur stdDeviation="4.16667"/>
<feComposite in2="hardAlpha" operator="out"/>
<feColorMatrix type="matrix" values="0 0 0 0 0.847059 0 0 0 0 0.0196078 0 0 0 0 0.156863 0 0 0 0.25 0"/>
<feBlend mode="normal" in2="BackgroundImageFix" result="effect1_dropShadow_275_4411"/>
<feBlend mode="normal" in="SourceGraphic" in2="effect1_dropShadow_275_4411" result="shape"/>
<feGaussianBlur stdDeviation="1.04167" result="effect2_foregroundBlur_275_4411"/>
</filter>
<filter id="filter1_df_275_4411" x="-6.33321" y="-7.33333" width="61.2867" height="61.2858" filterUnits="userSpaceOnUse" color-interpolation-filters="sRGB">
<feFlood flood-opacity="0" result="BackgroundImageFix"/>
<feColorMatrix in="SourceAlpha" type="matrix" values="0 0 0 0 0 0 0 0 0 0 0 0 0 0 0 0 0 0 127 0" result="hardAlpha"/>
<feOffset/>
<feGaussianBlur stdDeviation="4.16667"/>
<feComposite in2="hardAlpha" operator="out"/>
<feColorMatrix type="matrix" values="0 0 0 0 0.894118 0 0 0 0 0.141176 0 0 0 0 0.466667 0 0 0 0.25 0"/>
<feBlend mode="normal" in2="BackgroundImageFix" result="effect1_dropShadow_275_4411"/>
<feBlend mode="normal" in="SourceGraphic" in2="effect1_dropShadow_275_4411" result="shape"/>
<feGaussianBlur stdDeviation="1.04167" result="effect2_foregroundBlur_275_4411"/>
</filter>
<filter id="filter2_df_275_4411" x="-6.33382" y="-7.33333" width="61.2858" height="61.2858" filterUnits="userSpaceOnUse" color-interpolation-filters="sRGB">
<feFlood flood-opacity="0" result="BackgroundImageFix"/>
<feColorMatrix in="SourceAlpha" type="matrix" values="0 0 0 0 0 0 0 0 0 0 0 0 0 0 0 0 0 0 127 0" result="hardAlpha"/>
<feOffset/>
<feGaussianBlur stdDeviation="4.16667"/>
<feComposite in2="hardAlpha" operator="out"/>
<feColorMatrix type="matrix" values="0 0 0 0 1 0 0 0 0 0.996078 0 0 0 0 0.0117647 0 0 0 0.25 0"/>
<feBlend mode="normal" in2="BackgroundImageFix" result="effect1_dropShadow_275_4411"/>
<feBlend mode="normal" in="SourceGraphic" in2="effect1_dropShadow_275_4411" result="shape"/>
<feGaussianBlur stdDeviation="1.04167" result="effect2_foregroundBlur_275_4411"/>
</filter>
<clipPath id="clip0_275_4411">
<rect width="48" height="48" fill="white"/>
</clipPath>
</defs>
</svg>
