<svg width="140" height="57" viewBox="0 0 140 57" fill="none" xmlns="http://www.w3.org/2000/svg">
<path fill-rule="evenodd" clip-rule="evenodd" d="M35.5521 19.5854L35.8032 20.0338C36.1194 20.5788 36.2865 21.1975 36.2875 21.8275V35.729C36.2824 36.3584 36.1156 36.9761 35.8032 37.5227L35.5342 37.9711C35.2269 38.5201 34.7737 38.9733 34.2248 39.2806L22.1888 46.2402C21.6438 46.5563 21.0252 46.7234 20.3951 46.7245H19.8928C19.2619 46.7305 18.6414 46.5629 18.0991 46.2402L6.04522 39.2985C5.50797 38.976 5.05829 38.5263 4.7358 37.9891L4.48468 37.5406C4.16852 36.9956 4.00149 36.377 4.00037 35.7469V21.8454C4.00149 21.2154 4.16852 20.5967 4.48468 20.0517L4.7358 19.6033C5.05016 19.0598 5.50168 18.6082 6.04522 18.2939L18.0811 11.3342C18.6262 11.018 19.2448 10.851 19.8749 10.8499H20.3951C21.0252 10.851 21.6438 11.018 22.1888 11.3342L34.2248 18.2759C34.7714 18.5923 35.2283 19.0431 35.5521 19.5854ZM20.3951 14.4372H19.8749L9.38159 20.5001L20.1439 26.7064L30.9064 20.5001L20.3951 14.4372ZM32.431 36.1775L21.9377 42.2403V29.8276L32.7001 23.6034V35.729L32.431 36.1775ZM83.0636 37.3973H79.3441V17.7667H83.0636V37.3973ZM49.5004 37.8181H53.659V30.6891H55.467L59.8839 37.8181H64.3266L59.4449 29.9659C61.6146 29.3202 63.2418 27.8478 63.2418 25.0582V24.9549C63.2418 21.1321 60.4781 19.3499 56.1128 19.3499H49.5004V37.8181ZM53.659 27.8478V22.5528H56.0095C58.0242 22.5528 59.1608 23.1985 59.1608 25.0841V25.1874C59.1608 26.9697 58.1017 27.8478 56.0095 27.8478H53.659ZM71.0809 37.6808C74.7746 37.6808 77.0993 36.0535 77.5383 33.1347H73.9997C73.7672 34.2713 72.9148 35.0203 71.1843 35.0203C69.1437 35.0203 67.9297 33.7288 67.8264 31.4817H77.5642V30.4485C77.5642 25.6182 74.4646 23.5778 70.9776 23.5778C67.0515 23.5778 64.0294 26.3415 64.0294 30.6035V30.81C64.0294 35.1237 66.9998 37.6808 71.0809 37.6808ZM67.878 29.1828C68.1621 27.2714 69.2987 26.1607 70.9776 26.1607C72.7599 26.1607 73.7931 27.1422 73.9222 29.1828H67.878ZM90.1988 37.6819C92.4204 37.6819 93.7889 36.6487 94.4863 35.2797V37.3978H98.2059V23.8888H94.4863V31.8185C94.4863 33.8075 93.2464 34.789 91.6715 34.789C90.0702 34.789 89.3203 33.9107 89.3203 32.0768V23.8888H85.6013V32.5934C85.6013 36.1321 87.5642 37.6819 90.1988 37.6819ZM104.491 37.3967H100.745V23.8877H104.491V25.9541C105.162 24.6884 106.609 23.5778 108.624 23.5778C110.406 23.5778 111.749 24.3268 112.395 25.9283C113.48 24.3009 115.236 23.5778 116.94 23.5778C119.446 23.5778 121.384 25.1534 121.384 28.7437V37.3967H117.664V29.157C117.664 27.4263 116.889 26.6514 115.546 26.6514C114.099 26.6514 112.937 27.5814 112.937 29.4153V37.3967H109.218V29.157C109.218 27.4263 108.417 26.6514 107.099 26.6514C105.653 26.6514 104.491 27.5814 104.491 29.4153V37.3967ZM130.032 37.6808C133.726 37.6808 136.051 36.0535 136.489 33.1347H132.951C132.718 34.2713 131.866 35.0203 130.135 35.0203C128.095 35.0203 126.881 33.7288 126.778 31.4817H136.516V30.4485C136.516 25.6182 133.415 23.5778 129.929 23.5778C126.002 23.5778 122.98 26.3415 122.98 30.6035V30.81C122.98 35.1237 125.951 37.6808 130.032 37.6808ZM126.829 29.1828C127.114 27.2714 128.25 26.1607 129.929 26.1607C131.711 26.1607 132.744 27.1422 132.874 29.1828H126.829Z" fill="white"/>
</svg>
