<svg width="60" height="60" viewBox="0 0 60 60" fill="none" xmlns="http://www.w3.org/2000/svg">
<g style="mix-blend-mode:plus-lighter" filter="url(#filter0_df_662_3255)">
<path d="M48.75 9.1875H11.25C10.5043 9.18829 9.78941 9.48487 9.26214 10.0121C8.73487 10.5394 8.43829 11.2543 8.4375 12V21C8.43829 21.7457 8.73487 22.4606 9.26214 22.9879C9.78941 23.5151 10.5043 23.8117 11.25 23.8125H48.75C49.4957 23.8117 50.2106 23.5151 50.7379 22.9879C51.2651 22.4606 51.5617 21.7457 51.5625 21V12C51.5617 11.2543 51.2651 10.5394 50.7379 10.0121C50.2106 9.48487 49.4957 9.18829 48.75 9.1875ZM19.6027 15.207L16.4408 18.369C16.1857 18.6248 15.8482 18.7523 15.513 18.7523C15.1778 18.7523 14.8403 18.6248 14.5845 18.369L13.1025 16.887C13.0472 16.8355 13.0029 16.7734 12.9722 16.7044C12.9414 16.6354 12.9249 16.5609 12.9236 16.4854C12.9222 16.4099 12.9361 16.3348 12.9644 16.2648C12.9927 16.1948 13.0348 16.1311 13.0882 16.0777C13.1416 16.0243 13.2053 15.9822 13.2753 15.9539C13.3453 15.9256 13.4204 15.9117 13.4959 15.9131C13.5714 15.9144 13.6459 15.9309 13.7149 15.9617C13.7839 15.9924 13.846 16.0367 13.8975 16.092L15.3802 17.5732C15.4154 17.6083 15.463 17.628 15.5126 17.628C15.5623 17.628 15.6099 17.6083 15.645 17.5732L18.807 14.4113C18.8585 14.356 18.9206 14.3117 18.9896 14.2809C19.0586 14.2502 19.1331 14.2336 19.2086 14.2323C19.2841 14.231 19.3592 14.2449 19.4292 14.2732C19.4992 14.3014 19.5629 14.3436 19.6163 14.397C19.6697 14.4504 19.7118 14.514 19.7401 14.5841C19.7684 14.6541 19.7823 14.7291 19.7809 14.8046C19.7796 14.8802 19.7631 14.9547 19.7323 15.0237C19.7016 15.0927 19.6573 15.1548 19.602 15.2062L19.6027 15.207ZM46.5 17.0625H23.25C23.1008 17.0625 22.9577 17.0032 22.8523 16.8977C22.7468 16.7923 22.6875 16.6492 22.6875 16.5C22.6875 16.3508 22.7468 16.2077 22.8523 16.1023C22.9577 15.9968 23.1008 15.9375 23.25 15.9375H46.5C46.6492 15.9375 46.7923 15.9968 46.8977 16.1023C47.0032 16.2077 47.0625 16.3508 47.0625 16.5C47.0625 16.6492 47.0032 16.7923 46.8977 16.8977C46.7923 17.0032 46.6492 17.0625 46.5 17.0625ZM48.75 27.1875H18.75C18.0043 27.1883 17.2894 27.4849 16.7621 28.0121C16.2349 28.5394 15.9383 29.2543 15.9375 30V34.5C15.9383 35.2457 16.2349 35.9606 16.7621 36.4879C17.2894 37.0151 18.0043 37.3117 18.75 37.3125H48.75C49.4957 37.3117 50.2106 37.0151 50.7379 36.4879C51.2651 35.9606 51.5617 35.2457 51.5625 34.5V30C51.5617 29.2543 51.2651 28.5394 50.7379 28.0121C50.2106 27.4849 49.4957 27.1883 48.75 27.1875ZM22.5 34.3125C21.3623 34.3125 20.4375 33.3878 20.4375 32.25C20.4375 31.1122 21.3623 30.1875 22.5 30.1875C23.6377 30.1875 24.5625 31.1122 24.5625 32.25C24.5625 33.3878 23.6377 34.3125 22.5 34.3125ZM46.5 32.8125H28.5C28.3508 32.8125 28.2077 32.7532 28.1023 32.6477C27.9968 32.5423 27.9375 32.3992 27.9375 32.25C27.9375 32.1008 27.9968 31.9577 28.1023 31.8523C28.2077 31.7468 28.3508 31.6875 28.5 31.6875H46.5C46.6492 31.6875 46.7923 31.7468 46.8977 31.8523C47.0032 31.9577 47.0625 32.1008 47.0625 32.25C47.0625 32.3992 47.0032 32.5423 46.8977 32.6477C46.7923 32.7532 46.6492 32.8125 46.5 32.8125ZM23.4375 32.25C23.4278 32.4922 23.3248 32.7212 23.15 32.8891C22.9753 33.057 22.7423 33.1507 22.5 33.1507C22.2577 33.1507 22.0247 33.057 21.85 32.8891C21.6752 32.7212 21.5722 32.4922 21.5625 32.25C21.5722 32.0078 21.6752 31.7788 21.85 31.6109C22.0247 31.443 22.2577 31.3493 22.5 31.3493C22.7423 31.3493 22.9753 31.443 23.15 31.6109C23.3248 31.7788 23.4278 32.0078 23.4375 32.25ZM23.4375 45.75C23.4278 45.9922 23.3248 46.2212 23.15 46.3891C22.9753 46.557 22.7423 46.6507 22.5 46.6507C22.2577 46.6507 22.0247 46.557 21.85 46.3891C21.6752 46.2212 21.5722 45.9922 21.5625 45.75C21.5722 45.5078 21.6752 45.2788 21.85 45.1109C22.0247 44.943 22.2577 44.8493 22.5 44.8493C22.7423 44.8493 22.9753 44.943 23.15 45.1109C23.3248 45.2788 23.4278 45.5078 23.4375 45.75ZM48.75 40.6875H18.75C18.0043 40.6883 17.2894 40.9849 16.7621 41.5121C16.2349 42.0394 15.9383 42.7543 15.9375 43.5V48C15.9383 48.7457 16.2349 49.4606 16.7621 49.9879C17.2894 50.5151 18.0043 50.8117 18.75 50.8125H48.75C49.4957 50.8117 50.2106 50.5151 50.7379 49.9879C51.2651 49.4606 51.5617 48.7457 51.5625 48V43.5C51.5617 42.7543 51.2651 42.0394 50.7379 41.5121C50.2106 40.9849 49.4957 40.6883 48.75 40.6875ZM22.5 47.8125C21.3623 47.8125 20.4375 46.8877 20.4375 45.75C20.4375 44.6123 21.3623 43.6875 22.5 43.6875C23.6377 43.6875 24.5625 44.6123 24.5625 45.75C24.5625 46.8877 23.6377 47.8125 22.5 47.8125ZM46.5 46.3125H28.5C28.3508 46.3125 28.2077 46.2532 28.1023 46.1477C27.9968 46.0423 27.9375 45.8992 27.9375 45.75C27.9375 45.6008 27.9968 45.4577 28.1023 45.3523C28.2077 45.2468 28.3508 45.1875 28.5 45.1875H46.5C46.6492 45.1875 46.7923 45.2468 46.8977 45.3523C47.0032 45.4577 47.0625 45.6008 47.0625 45.75C47.0625 45.8992 47.0032 46.0423 46.8977 46.1477C46.7923 46.2532 46.6492 46.3125 46.5 46.3125Z" fill="#FFE600"/>
</g>
<g style="mix-blend-mode:plus-lighter" filter="url(#filter1_df_662_3255)">
<path d="M48.75 9.1875H11.25C10.5043 9.18829 9.78941 9.48487 9.26214 10.0121C8.73487 10.5394 8.43829 11.2543 8.4375 12V21C8.43829 21.7457 8.73487 22.4606 9.26214 22.9879C9.78941 23.5151 10.5043 23.8117 11.25 23.8125H48.75C49.4957 23.8117 50.2106 23.5151 50.7379 22.9879C51.2651 22.4606 51.5617 21.7457 51.5625 21V12C51.5617 11.2543 51.2651 10.5394 50.7379 10.0121C50.2106 9.48487 49.4957 9.18829 48.75 9.1875ZM19.6027 15.207L16.4408 18.369C16.1857 18.6248 15.8482 18.7523 15.513 18.7523C15.1778 18.7523 14.8403 18.6248 14.5845 18.369L13.1025 16.887C13.0472 16.8355 13.0029 16.7734 12.9722 16.7044C12.9414 16.6354 12.9249 16.5609 12.9236 16.4854C12.9222 16.4099 12.9361 16.3348 12.9644 16.2648C12.9927 16.1948 13.0348 16.1311 13.0882 16.0777C13.1416 16.0243 13.2053 15.9822 13.2753 15.9539C13.3453 15.9256 13.4204 15.9117 13.4959 15.9131C13.5714 15.9144 13.6459 15.9309 13.7149 15.9617C13.7839 15.9924 13.846 16.0367 13.8975 16.092L15.3802 17.5732C15.4154 17.6083 15.463 17.628 15.5126 17.628C15.5623 17.628 15.6099 17.6083 15.645 17.5732L18.807 14.4113C18.8585 14.356 18.9206 14.3117 18.9896 14.2809C19.0586 14.2502 19.1331 14.2336 19.2086 14.2323C19.2841 14.231 19.3592 14.2449 19.4292 14.2732C19.4992 14.3014 19.5629 14.3436 19.6163 14.397C19.6697 14.4504 19.7118 14.514 19.7401 14.5841C19.7684 14.6541 19.7823 14.7291 19.7809 14.8046C19.7796 14.8802 19.7631 14.9547 19.7323 15.0237C19.7016 15.0927 19.6573 15.1548 19.602 15.2062L19.6027 15.207ZM46.5 17.0625H23.25C23.1008 17.0625 22.9577 17.0032 22.8523 16.8977C22.7468 16.7923 22.6875 16.6492 22.6875 16.5C22.6875 16.3508 22.7468 16.2077 22.8523 16.1023C22.9577 15.9968 23.1008 15.9375 23.25 15.9375H46.5C46.6492 15.9375 46.7923 15.9968 46.8977 16.1023C47.0032 16.2077 47.0625 16.3508 47.0625 16.5C47.0625 16.6492 47.0032 16.7923 46.8977 16.8977C46.7923 17.0032 46.6492 17.0625 46.5 17.0625ZM48.75 27.1875H18.75C18.0043 27.1883 17.2894 27.4849 16.7621 28.0121C16.2349 28.5394 15.9383 29.2543 15.9375 30V34.5C15.9383 35.2457 16.2349 35.9606 16.7621 36.4879C17.2894 37.0151 18.0043 37.3117 18.75 37.3125H48.75C49.4957 37.3117 50.2106 37.0151 50.7379 36.4879C51.2651 35.9606 51.5617 35.2457 51.5625 34.5V30C51.5617 29.2543 51.2651 28.5394 50.7379 28.0121C50.2106 27.4849 49.4957 27.1883 48.75 27.1875ZM22.5 34.3125C21.3623 34.3125 20.4375 33.3878 20.4375 32.25C20.4375 31.1122 21.3623 30.1875 22.5 30.1875C23.6377 30.1875 24.5625 31.1122 24.5625 32.25C24.5625 33.3878 23.6377 34.3125 22.5 34.3125ZM46.5 32.8125H28.5C28.3508 32.8125 28.2077 32.7532 28.1023 32.6477C27.9968 32.5423 27.9375 32.3992 27.9375 32.25C27.9375 32.1008 27.9968 31.9577 28.1023 31.8523C28.2077 31.7468 28.3508 31.6875 28.5 31.6875H46.5C46.6492 31.6875 46.7923 31.7468 46.8977 31.8523C47.0032 31.9577 47.0625 32.1008 47.0625 32.25C47.0625 32.3992 47.0032 32.5423 46.8977 32.6477C46.7923 32.7532 46.6492 32.8125 46.5 32.8125ZM23.4375 32.25C23.4278 32.4922 23.3248 32.7212 23.15 32.8891C22.9753 33.057 22.7423 33.1507 22.5 33.1507C22.2577 33.1507 22.0247 33.057 21.85 32.8891C21.6752 32.7212 21.5722 32.4922 21.5625 32.25C21.5722 32.0078 21.6752 31.7788 21.85 31.6109C22.0247 31.443 22.2577 31.3493 22.5 31.3493C22.7423 31.3493 22.9753 31.443 23.15 31.6109C23.3248 31.7788 23.4278 32.0078 23.4375 32.25ZM23.4375 45.75C23.4278 45.9922 23.3248 46.2212 23.15 46.3891C22.9753 46.557 22.7423 46.6507 22.5 46.6507C22.2577 46.6507 22.0247 46.557 21.85 46.3891C21.6752 46.2212 21.5722 45.9922 21.5625 45.75C21.5722 45.5078 21.6752 45.2788 21.85 45.1109C22.0247 44.943 22.2577 44.8493 22.5 44.8493C22.7423 44.8493 22.9753 44.943 23.15 45.1109C23.3248 45.2788 23.4278 45.5078 23.4375 45.75ZM48.75 40.6875H18.75C18.0043 40.6883 17.2894 40.9849 16.7621 41.5121C16.2349 42.0394 15.9383 42.7543 15.9375 43.5V48C15.9383 48.7457 16.2349 49.4606 16.7621 49.9879C17.2894 50.5151 18.0043 50.8117 18.75 50.8125H48.75C49.4957 50.8117 50.2106 50.5151 50.7379 49.9879C51.2651 49.4606 51.5617 48.7457 51.5625 48V43.5C51.5617 42.7543 51.2651 42.0394 50.7379 41.5121C50.2106 40.9849 49.4957 40.6883 48.75 40.6875ZM22.5 47.8125C21.3623 47.8125 20.4375 46.8877 20.4375 45.75C20.4375 44.6123 21.3623 43.6875 22.5 43.6875C23.6377 43.6875 24.5625 44.6123 24.5625 45.75C24.5625 46.8877 23.6377 47.8125 22.5 47.8125ZM46.5 46.3125H28.5C28.3508 46.3125 28.2077 46.2532 28.1023 46.1477C27.9968 46.0423 27.9375 45.8992 27.9375 45.75C27.9375 45.6008 27.9968 45.4577 28.1023 45.3523C28.2077 45.2468 28.3508 45.1875 28.5 45.1875H46.5C46.6492 45.1875 46.7923 45.2468 46.8977 45.3523C47.0032 45.4577 47.0625 45.6008 47.0625 45.75C47.0625 45.8992 47.0032 46.0423 46.8977 46.1477C46.7923 46.2532 46.6492 46.3125 46.5 46.3125Z" fill="#BC010A"/>
</g>
<g style="mix-blend-mode:plus-lighter" filter="url(#filter2_df_662_3255)">
<path d="M48.75 9.1875H11.25C10.5043 9.18829 9.78941 9.48487 9.26214 10.0121C8.73487 10.5394 8.43829 11.2543 8.4375 12V21C8.43829 21.7457 8.73487 22.4606 9.26214 22.9879C9.78941 23.5151 10.5043 23.8117 11.25 23.8125H48.75C49.4957 23.8117 50.2106 23.5151 50.7379 22.9879C51.2651 22.4606 51.5617 21.7457 51.5625 21V12C51.5617 11.2543 51.2651 10.5394 50.7379 10.0121C50.2106 9.48487 49.4957 9.18829 48.75 9.1875ZM19.6027 15.207L16.4408 18.369C16.1857 18.6248 15.8482 18.7523 15.513 18.7523C15.1778 18.7523 14.8403 18.6248 14.5845 18.369L13.1025 16.887C13.0472 16.8355 13.0029 16.7734 12.9722 16.7044C12.9414 16.6354 12.9249 16.5609 12.9236 16.4854C12.9222 16.4099 12.9361 16.3348 12.9644 16.2648C12.9927 16.1948 13.0348 16.1311 13.0882 16.0777C13.1416 16.0243 13.2053 15.9822 13.2753 15.9539C13.3453 15.9256 13.4204 15.9117 13.4959 15.9131C13.5714 15.9144 13.6459 15.9309 13.7149 15.9617C13.7839 15.9924 13.846 16.0367 13.8975 16.092L15.3802 17.5732C15.4154 17.6083 15.463 17.628 15.5126 17.628C15.5623 17.628 15.6099 17.6083 15.645 17.5732L18.807 14.4113C18.8585 14.356 18.9206 14.3117 18.9896 14.2809C19.0586 14.2502 19.1331 14.2336 19.2086 14.2323C19.2841 14.231 19.3592 14.2449 19.4292 14.2732C19.4992 14.3014 19.5629 14.3436 19.6163 14.397C19.6697 14.4504 19.7118 14.514 19.7401 14.5841C19.7684 14.6541 19.7823 14.7291 19.7809 14.8046C19.7796 14.8802 19.7631 14.9547 19.7323 15.0237C19.7016 15.0927 19.6573 15.1548 19.602 15.2062L19.6027 15.207ZM46.5 17.0625H23.25C23.1008 17.0625 22.9577 17.0032 22.8523 16.8977C22.7468 16.7923 22.6875 16.6492 22.6875 16.5C22.6875 16.3508 22.7468 16.2077 22.8523 16.1023C22.9577 15.9968 23.1008 15.9375 23.25 15.9375H46.5C46.6492 15.9375 46.7923 15.9968 46.8977 16.1023C47.0032 16.2077 47.0625 16.3508 47.0625 16.5C47.0625 16.6492 47.0032 16.7923 46.8977 16.8977C46.7923 17.0032 46.6492 17.0625 46.5 17.0625ZM48.75 27.1875H18.75C18.0043 27.1883 17.2894 27.4849 16.7621 28.0121C16.2349 28.5394 15.9383 29.2543 15.9375 30V34.5C15.9383 35.2457 16.2349 35.9606 16.7621 36.4879C17.2894 37.0151 18.0043 37.3117 18.75 37.3125H48.75C49.4957 37.3117 50.2106 37.0151 50.7379 36.4879C51.2651 35.9606 51.5617 35.2457 51.5625 34.5V30C51.5617 29.2543 51.2651 28.5394 50.7379 28.0121C50.2106 27.4849 49.4957 27.1883 48.75 27.1875ZM22.5 34.3125C21.3623 34.3125 20.4375 33.3878 20.4375 32.25C20.4375 31.1122 21.3623 30.1875 22.5 30.1875C23.6377 30.1875 24.5625 31.1122 24.5625 32.25C24.5625 33.3878 23.6377 34.3125 22.5 34.3125ZM46.5 32.8125H28.5C28.3508 32.8125 28.2077 32.7532 28.1023 32.6477C27.9968 32.5423 27.9375 32.3992 27.9375 32.25C27.9375 32.1008 27.9968 31.9577 28.1023 31.8523C28.2077 31.7468 28.3508 31.6875 28.5 31.6875H46.5C46.6492 31.6875 46.7923 31.7468 46.8977 31.8523C47.0032 31.9577 47.0625 32.1008 47.0625 32.25C47.0625 32.3992 47.0032 32.5423 46.8977 32.6477C46.7923 32.7532 46.6492 32.8125 46.5 32.8125ZM23.4375 32.25C23.4278 32.4922 23.3248 32.7212 23.15 32.8891C22.9753 33.057 22.7423 33.1507 22.5 33.1507C22.2577 33.1507 22.0247 33.057 21.85 32.8891C21.6752 32.7212 21.5722 32.4922 21.5625 32.25C21.5722 32.0078 21.6752 31.7788 21.85 31.6109C22.0247 31.443 22.2577 31.3493 22.5 31.3493C22.7423 31.3493 22.9753 31.443 23.15 31.6109C23.3248 31.7788 23.4278 32.0078 23.4375 32.25ZM23.4375 45.75C23.4278 45.9922 23.3248 46.2212 23.15 46.3891C22.9753 46.557 22.7423 46.6507 22.5 46.6507C22.2577 46.6507 22.0247 46.557 21.85 46.3891C21.6752 46.2212 21.5722 45.9922 21.5625 45.75C21.5722 45.5078 21.6752 45.2788 21.85 45.1109C22.0247 44.943 22.2577 44.8493 22.5 44.8493C22.7423 44.8493 22.9753 44.943 23.15 45.1109C23.3248 45.2788 23.4278 45.5078 23.4375 45.75ZM48.75 40.6875H18.75C18.0043 40.6883 17.2894 40.9849 16.7621 41.5121C16.2349 42.0394 15.9383 42.7543 15.9375 43.5V48C15.9383 48.7457 16.2349 49.4606 16.7621 49.9879C17.2894 50.5151 18.0043 50.8117 18.75 50.8125H48.75C49.4957 50.8117 50.2106 50.5151 50.7379 49.9879C51.2651 49.4606 51.5617 48.7457 51.5625 48V43.5C51.5617 42.7543 51.2651 42.0394 50.7379 41.5121C50.2106 40.9849 49.4957 40.6883 48.75 40.6875ZM22.5 47.8125C21.3623 47.8125 20.4375 46.8877 20.4375 45.75C20.4375 44.6123 21.3623 43.6875 22.5 43.6875C23.6377 43.6875 24.5625 44.6123 24.5625 45.75C24.5625 46.8877 23.6377 47.8125 22.5 47.8125ZM46.5 46.3125H28.5C28.3508 46.3125 28.2077 46.2532 28.1023 46.1477C27.9968 46.0423 27.9375 45.8992 27.9375 45.75C27.9375 45.6008 27.9968 45.4577 28.1023 45.3523C28.2077 45.2468 28.3508 45.1875 28.5 45.1875H46.5C46.6492 45.1875 46.7923 45.2468 46.8977 45.3523C47.0032 45.4577 47.0625 45.6008 47.0625 45.75C47.0625 45.8992 47.0032 46.0423 46.8977 46.1477C46.7923 46.2532 46.6492 46.3125 46.5 46.3125Z" fill="#CC1A70"/>
</g>
<defs>
<filter id="filter0_df_662_3255" x="0.104168" y="0.854168" width="59.7917" height="58.2917" filterUnits="userSpaceOnUse" color-interpolation-filters="sRGB">
<feFlood flood-opacity="0" result="BackgroundImageFix"/>
<feColorMatrix in="SourceAlpha" type="matrix" values="0 0 0 0 0 0 0 0 0 0 0 0 0 0 0 0 0 0 127 0" result="hardAlpha"/>
<feOffset/>
<feGaussianBlur stdDeviation="4.16667"/>
<feComposite in2="hardAlpha" operator="out"/>
<feColorMatrix type="matrix" values="0 0 0 0 1 0 0 0 0 0.996078 0 0 0 0 0.0117647 0 0 0 0.25 0"/>
<feBlend mode="normal" in2="BackgroundImageFix" result="effect1_dropShadow_662_3255"/>
<feBlend mode="normal" in="SourceGraphic" in2="effect1_dropShadow_662_3255" result="shape"/>
<feGaussianBlur stdDeviation="0.46875" result="effect2_foregroundBlur_662_3255"/>
</filter>
<filter id="filter1_df_662_3255" x="0.104168" y="0.854168" width="59.7917" height="58.2917" filterUnits="userSpaceOnUse" color-interpolation-filters="sRGB">
<feFlood flood-opacity="0" result="BackgroundImageFix"/>
<feColorMatrix in="SourceAlpha" type="matrix" values="0 0 0 0 0 0 0 0 0 0 0 0 0 0 0 0 0 0 127 0" result="hardAlpha"/>
<feOffset/>
<feGaussianBlur stdDeviation="4.16667"/>
<feComposite in2="hardAlpha" operator="out"/>
<feColorMatrix type="matrix" values="0 0 0 0 0.847059 0 0 0 0 0.0196078 0 0 0 0 0.156863 0 0 0 0.25 0"/>
<feBlend mode="normal" in2="BackgroundImageFix" result="effect1_dropShadow_662_3255"/>
<feBlend mode="normal" in="SourceGraphic" in2="effect1_dropShadow_662_3255" result="shape"/>
<feGaussianBlur stdDeviation="0.46875" result="effect2_foregroundBlur_662_3255"/>
</filter>
<filter id="filter2_df_662_3255" x="0.104168" y="0.854168" width="59.7917" height="58.2917" filterUnits="userSpaceOnUse" color-interpolation-filters="sRGB">
<feFlood flood-opacity="0" result="BackgroundImageFix"/>
<feColorMatrix in="SourceAlpha" type="matrix" values="0 0 0 0 0 0 0 0 0 0 0 0 0 0 0 0 0 0 127 0" result="hardAlpha"/>
<feOffset/>
<feGaussianBlur stdDeviation="4.16667"/>
<feComposite in2="hardAlpha" operator="out"/>
<feColorMatrix type="matrix" values="0 0 0 0 0.894118 0 0 0 0 0.141176 0 0 0 0 0.466667 0 0 0 0.25 0"/>
<feBlend mode="normal" in2="BackgroundImageFix" result="effect1_dropShadow_662_3255"/>
<feBlend mode="normal" in="SourceGraphic" in2="effect1_dropShadow_662_3255" result="shape"/>
<feGaussianBlur stdDeviation="0.46875" result="effect2_foregroundBlur_662_3255"/>
</filter>
</defs>
</svg>
