<svg width="48" height="48" viewBox="0 0 48 48" fill="none" xmlns="http://www.w3.org/2000/svg">
<g clip-path="url(#clip0_662_3213)">
<g style="mix-blend-mode:plus-lighter" filter="url(#filter0_df_662_3213)">
<path d="M17.5423 17.775C22.107 17.775 25.8073 14.1317 25.8073 9.6375C25.8073 5.14328 22.107 1.5 17.5423 1.5C12.9777 1.5 9.27734 5.14328 9.27734 9.6375C9.27734 14.1317 12.9777 17.775 17.5423 17.775Z" fill="#FFE600"/>
<path d="M22.8675 22.74C23.325 22.4025 23.805 22.095 24.3 21.81C22.2695 20.6091 19.9541 19.9745 17.595 19.9725H17.4975C10.2225 19.9725 4.3125 25.89 4.3125 33.165V33.99C4.3125 34.41 4.65 34.74 5.0625 34.74H17.1825C17.1825 34.4925 17.1675 34.245 17.1675 33.9975C17.1675 33.75 17.175 33.4875 17.1825 33.24C17.415 28.9425 19.5975 25.155 22.8675 22.74Z" fill="#FFE600"/>
<path d="M31.2225 21.495C24.3 21.495 18.6675 27.105 18.6675 33.9975C18.6675 40.89 24.3 46.5 31.2225 46.5C38.145 46.5 43.7775 40.89 43.7775 33.9975C43.7775 27.105 38.145 21.495 31.2225 21.495ZM38.67 31.8225L37.515 37.89C37.4475 38.25 37.14 38.505 36.78 38.505H25.665C25.305 38.505 24.9975 38.25 24.93 37.89L23.775 31.8225C23.7225 31.545 23.8275 31.2675 24.045 31.095C24.2625 30.915 24.5625 30.885 24.8175 30.9975L28.3425 32.565L30.645 29.76C30.93 29.415 31.515 29.415 31.8 29.76L34.1025 32.565L37.6275 30.9975C37.8825 30.885 38.1825 30.9225 38.4 31.095C38.6175 31.2675 38.7225 31.545 38.67 31.8225Z" fill="#FFE600"/>
</g>
<g style="mix-blend-mode:plus-lighter" filter="url(#filter1_df_662_3213)">
<path d="M17.5423 17.775C22.107 17.775 25.8073 14.1317 25.8073 9.6375C25.8073 5.14328 22.107 1.5 17.5423 1.5C12.9777 1.5 9.27734 5.14328 9.27734 9.6375C9.27734 14.1317 12.9777 17.775 17.5423 17.775Z" fill="#BC010A"/>
<path d="M22.8675 22.74C23.325 22.4025 23.805 22.095 24.3 21.81C22.2695 20.6091 19.9541 19.9745 17.595 19.9725H17.4975C10.2225 19.9725 4.3125 25.89 4.3125 33.165V33.99C4.3125 34.41 4.65 34.74 5.0625 34.74H17.1825C17.1825 34.4925 17.1675 34.245 17.1675 33.9975C17.1675 33.75 17.175 33.4875 17.1825 33.24C17.415 28.9425 19.5975 25.155 22.8675 22.74Z" fill="#BC010A"/>
<path d="M31.2225 21.495C24.3 21.495 18.6675 27.105 18.6675 33.9975C18.6675 40.89 24.3 46.5 31.2225 46.5C38.145 46.5 43.7775 40.89 43.7775 33.9975C43.7775 27.105 38.145 21.495 31.2225 21.495ZM38.67 31.8225L37.515 37.89C37.4475 38.25 37.14 38.505 36.78 38.505H25.665C25.305 38.505 24.9975 38.25 24.93 37.89L23.775 31.8225C23.7225 31.545 23.8275 31.2675 24.045 31.095C24.2625 30.915 24.5625 30.885 24.8175 30.9975L28.3425 32.565L30.645 29.76C30.93 29.415 31.515 29.415 31.8 29.76L34.1025 32.565L37.6275 30.9975C37.8825 30.885 38.1825 30.9225 38.4 31.095C38.6175 31.2675 38.7225 31.545 38.67 31.8225Z" fill="#BC010A"/>
</g>
<g style="mix-blend-mode:plus-lighter" filter="url(#filter2_df_662_3213)">
<path d="M17.5423 17.775C22.107 17.775 25.8073 14.1317 25.8073 9.6375C25.8073 5.14328 22.107 1.5 17.5423 1.5C12.9777 1.5 9.27734 5.14328 9.27734 9.6375C9.27734 14.1317 12.9777 17.775 17.5423 17.775Z" fill="#CC1A70"/>
<path d="M22.8675 22.74C23.325 22.4025 23.805 22.095 24.3 21.81C22.2695 20.6091 19.9541 19.9745 17.595 19.9725H17.4975C10.2225 19.9725 4.3125 25.89 4.3125 33.165V33.99C4.3125 34.41 4.65 34.74 5.0625 34.74H17.1825C17.1825 34.4925 17.1675 34.245 17.1675 33.9975C17.1675 33.75 17.175 33.4875 17.1825 33.24C17.415 28.9425 19.5975 25.155 22.8675 22.74Z" fill="#CC1A70"/>
<path d="M31.2225 21.495C24.3 21.495 18.6675 27.105 18.6675 33.9975C18.6675 40.89 24.3 46.5 31.2225 46.5C38.145 46.5 43.7775 40.89 43.7775 33.9975C43.7775 27.105 38.145 21.495 31.2225 21.495ZM38.67 31.8225L37.515 37.89C37.4475 38.25 37.14 38.505 36.78 38.505H25.665C25.305 38.505 24.9975 38.25 24.93 37.89L23.775 31.8225C23.7225 31.545 23.8275 31.2675 24.045 31.095C24.2625 30.915 24.5625 30.885 24.8175 30.9975L28.3425 32.565L30.645 29.76C30.93 29.415 31.515 29.415 31.8 29.76L34.1025 32.565L37.6275 30.9975C37.8825 30.885 38.1825 30.9225 38.4 31.095C38.6175 31.2675 38.7225 31.545 38.67 31.8225Z" fill="#CC1A70"/>
</g>
</g>
<defs>
<filter id="filter0_df_662_3213" x="-4.02083" y="-6.83333" width="56.1315" height="61.6667" filterUnits="userSpaceOnUse" color-interpolation-filters="sRGB">
<feFlood flood-opacity="0" result="BackgroundImageFix"/>
<feColorMatrix in="SourceAlpha" type="matrix" values="0 0 0 0 0 0 0 0 0 0 0 0 0 0 0 0 0 0 127 0" result="hardAlpha"/>
<feOffset/>
<feGaussianBlur stdDeviation="4.16667"/>
<feComposite in2="hardAlpha" operator="out"/>
<feColorMatrix type="matrix" values="0 0 0 0 1 0 0 0 0 0.996078 0 0 0 0 0.0117647 0 0 0 0.25 0"/>
<feBlend mode="normal" in2="BackgroundImageFix" result="effect1_dropShadow_662_3213"/>
<feBlend mode="normal" in="SourceGraphic" in2="effect1_dropShadow_662_3213" result="shape"/>
<feGaussianBlur stdDeviation="0.46875" result="effect2_foregroundBlur_662_3213"/>
</filter>
<filter id="filter1_df_662_3213" x="-4.02083" y="-6.83333" width="56.1315" height="61.6667" filterUnits="userSpaceOnUse" color-interpolation-filters="sRGB">
<feFlood flood-opacity="0" result="BackgroundImageFix"/>
<feColorMatrix in="SourceAlpha" type="matrix" values="0 0 0 0 0 0 0 0 0 0 0 0 0 0 0 0 0 0 127 0" result="hardAlpha"/>
<feOffset/>
<feGaussianBlur stdDeviation="4.16667"/>
<feComposite in2="hardAlpha" operator="out"/>
<feColorMatrix type="matrix" values="0 0 0 0 0.847059 0 0 0 0 0.0196078 0 0 0 0 0.156863 0 0 0 0.25 0"/>
<feBlend mode="normal" in2="BackgroundImageFix" result="effect1_dropShadow_662_3213"/>
<feBlend mode="normal" in="SourceGraphic" in2="effect1_dropShadow_662_3213" result="shape"/>
<feGaussianBlur stdDeviation="0.46875" result="effect2_foregroundBlur_662_3213"/>
</filter>
<filter id="filter2_df_662_3213" x="-4.02083" y="-6.83333" width="56.1315" height="61.6667" filterUnits="userSpaceOnUse" color-interpolation-filters="sRGB">
<feFlood flood-opacity="0" result="BackgroundImageFix"/>
<feColorMatrix in="SourceAlpha" type="matrix" values="0 0 0 0 0 0 0 0 0 0 0 0 0 0 0 0 0 0 127 0" result="hardAlpha"/>
<feOffset/>
<feGaussianBlur stdDeviation="4.16667"/>
<feComposite in2="hardAlpha" operator="out"/>
<feColorMatrix type="matrix" values="0 0 0 0 0.894118 0 0 0 0 0.141176 0 0 0 0 0.466667 0 0 0 0.25 0"/>
<feBlend mode="normal" in2="BackgroundImageFix" result="effect1_dropShadow_662_3213"/>
<feBlend mode="normal" in="SourceGraphic" in2="effect1_dropShadow_662_3213" result="shape"/>
<feGaussianBlur stdDeviation="0.46875" result="effect2_foregroundBlur_662_3213"/>
</filter>
<clipPath id="clip0_662_3213">
<rect width="48" height="48" fill="white"/>
</clipPath>
</defs>
</svg>
