<svg width="48" height="48" viewBox="0 0 48 48" fill="none" xmlns="http://www.w3.org/2000/svg">
<g clip-path="url(#clip0_662_3171)">
<g style="mix-blend-mode:plus-lighter" filter="url(#filter0_df_662_3171)">
<path d="M32.25 23.0625C27.1838 23.0625 23.0625 27.1838 23.0625 32.25C23.0625 37.3162 27.1838 41.4375 32.25 41.4375C37.3162 41.4375 41.4375 37.3162 41.4375 32.25C41.4375 27.1838 37.3162 23.0625 32.25 23.0625ZM38.3377 34.3552C38.1886 34.3552 38.0455 34.296 37.94 34.1905C37.8345 34.085 37.7752 33.9419 37.7752 33.7927V30.6502L34.149 34.2765C33.9023 34.524 33.573 34.6613 33.2228 34.6613H33.2212C32.871 34.6613 32.541 34.5247 32.2927 34.2765L30.2228 32.2065C30.1283 32.1113 30.0532 32.1113 29.958 32.2065L26.6692 35.4953C26.6172 35.5477 26.5552 35.5893 26.487 35.6177C26.4188 35.6461 26.3456 35.6607 26.2717 35.6607C26.1979 35.6607 26.1247 35.6461 26.0565 35.6177C25.9883 35.5893 25.9263 35.5477 25.8743 35.4953C25.7689 35.3898 25.7097 35.2468 25.7097 35.0978C25.7097 34.9487 25.7689 34.8057 25.8743 34.7002L29.163 31.4115C29.4094 31.1661 29.743 31.0283 30.0907 31.0283C30.4385 31.0283 30.7721 31.1661 31.0185 31.4115L33.0885 33.4815C33.1823 33.5752 33.2588 33.5775 33.3533 33.4815L36.9795 29.8552H33.837C33.6878 29.8552 33.5447 29.796 33.4393 29.6905C33.3338 29.585 33.2745 29.4419 33.2745 29.2927C33.2745 29.1436 33.3338 29.0005 33.4393 28.895C33.5447 28.7895 33.6878 28.7302 33.837 28.7302H37.587C38.3115 28.7302 38.8995 29.319 38.8995 30.0427V33.7927C38.8995 33.9419 38.8402 34.085 38.7347 34.1905C38.6293 34.296 38.4869 34.3552 38.3377 34.3552ZM41.0527 22.29C41.0573 22.11 41.0625 21.93 41.0625 21.75C41.0625 11.1015 32.3985 2.4375 21.75 2.4375C11.1015 2.4375 2.4375 11.1015 2.4375 21.75C2.4375 32.3985 11.1015 41.0625 21.75 41.0625C21.93 41.0625 22.11 41.0573 22.29 41.0527C24.7305 43.8112 28.2855 45.5625 32.25 45.5625C39.5902 45.5625 45.5625 39.5902 45.5625 32.25C45.5625 28.2855 43.8112 24.7305 41.0527 22.29ZM32.25 18.9375C31.392 18.9375 30.555 19.0268 29.7412 19.182C29.6115 16.8007 29.3047 14.571 28.8555 12.5625H37.4362C39.0134 15.2429 39.8719 18.285 39.9285 21.3945C37.6871 19.7963 35.0028 18.9374 32.25 18.9375ZM21.3802 39.909C19.215 39.594 17.2778 36.5303 16.0778 32.0625H18.9473C18.9458 32.1255 18.9375 32.187 18.9375 32.25C18.9375 35.1015 19.8472 37.74 21.3802 39.909ZM19.0042 30.9375H15.798C15.21 28.3755 14.8567 25.4288 14.8185 22.3125H23.4225C20.9865 24.4792 19.3403 27.5152 19.0042 30.9375ZM3.57675 22.3125H13.6935C13.7287 25.4475 14.061 28.3725 14.628 30.9375H6.063C4.52172 28.3175 3.66657 25.3509 3.57675 22.3125ZM6.06375 12.5625H14.628C14.061 15.1275 13.7287 18.0525 13.6935 21.1875H3.57675C3.66673 18.149 4.52215 15.1824 6.06375 12.5625ZM24.8557 21.1875H14.8185C14.856 18.0712 15.21 15.1237 15.798 12.5625H27.7065C28.1798 14.6348 28.5015 16.9635 28.6252 19.452C27.2854 19.829 26.0133 20.4147 24.8557 21.1875ZM21.75 3.5625C24.0578 3.5625 26.1562 6.69 27.4275 11.4375H16.0778C17.3453 6.717 19.437 3.5625 21.75 3.5625ZM36.72 11.4375H28.584C27.6855 8.0055 26.349 5.3295 24.7643 3.8175C29.7068 4.6455 33.9802 7.47225 36.72 11.4375ZM18.7005 3.8235C17.1105 5.33775 15.786 8.01225 14.898 11.4375H6.78C9.5145 7.48125 13.7723 4.659 18.7005 3.8235ZM6.78 32.0625H14.8988C15.786 35.487 17.1112 38.1623 18.7005 39.6765C13.773 38.841 9.5145 36.0187 6.78 32.0625ZM32.25 42.5625C26.5635 42.5625 21.9375 37.9365 21.9375 32.25C21.9375 26.5635 26.5635 21.9375 32.25 21.9375C37.9365 21.9375 42.5625 26.5635 42.5625 32.25C42.5625 37.9365 37.9365 42.5625 32.25 42.5625Z" fill="#FFE600"/>
</g>
<g style="mix-blend-mode:plus-lighter" filter="url(#filter1_df_662_3171)">
<path d="M32.25 23.0625C27.1838 23.0625 23.0625 27.1838 23.0625 32.25C23.0625 37.3162 27.1838 41.4375 32.25 41.4375C37.3162 41.4375 41.4375 37.3162 41.4375 32.25C41.4375 27.1838 37.3162 23.0625 32.25 23.0625ZM38.3377 34.3552C38.1886 34.3552 38.0455 34.296 37.94 34.1905C37.8345 34.085 37.7752 33.9419 37.7752 33.7927V30.6502L34.149 34.2765C33.9023 34.524 33.573 34.6613 33.2228 34.6613H33.2212C32.871 34.6613 32.541 34.5247 32.2927 34.2765L30.2228 32.2065C30.1283 32.1113 30.0532 32.1113 29.958 32.2065L26.6692 35.4953C26.6172 35.5477 26.5552 35.5893 26.487 35.6177C26.4188 35.6461 26.3456 35.6607 26.2717 35.6607C26.1979 35.6607 26.1247 35.6461 26.0565 35.6177C25.9883 35.5893 25.9263 35.5477 25.8743 35.4953C25.7689 35.3898 25.7097 35.2468 25.7097 35.0978C25.7097 34.9487 25.7689 34.8057 25.8743 34.7002L29.163 31.4115C29.4094 31.1661 29.743 31.0283 30.0907 31.0283C30.4385 31.0283 30.7721 31.1661 31.0185 31.4115L33.0885 33.4815C33.1823 33.5752 33.2588 33.5775 33.3533 33.4815L36.9795 29.8552H33.837C33.6878 29.8552 33.5447 29.796 33.4393 29.6905C33.3338 29.585 33.2745 29.4419 33.2745 29.2927C33.2745 29.1436 33.3338 29.0005 33.4393 28.895C33.5447 28.7895 33.6878 28.7302 33.837 28.7302H37.587C38.3115 28.7302 38.8995 29.319 38.8995 30.0427V33.7927C38.8995 33.9419 38.8402 34.085 38.7347 34.1905C38.6293 34.296 38.4869 34.3552 38.3377 34.3552ZM41.0527 22.29C41.0573 22.11 41.0625 21.93 41.0625 21.75C41.0625 11.1015 32.3985 2.4375 21.75 2.4375C11.1015 2.4375 2.4375 11.1015 2.4375 21.75C2.4375 32.3985 11.1015 41.0625 21.75 41.0625C21.93 41.0625 22.11 41.0573 22.29 41.0527C24.7305 43.8112 28.2855 45.5625 32.25 45.5625C39.5902 45.5625 45.5625 39.5902 45.5625 32.25C45.5625 28.2855 43.8112 24.7305 41.0527 22.29ZM32.25 18.9375C31.392 18.9375 30.555 19.0268 29.7412 19.182C29.6115 16.8007 29.3047 14.571 28.8555 12.5625H37.4362C39.0134 15.2429 39.8719 18.285 39.9285 21.3945C37.6871 19.7963 35.0028 18.9374 32.25 18.9375ZM21.3802 39.909C19.215 39.594 17.2778 36.5303 16.0778 32.0625H18.9473C18.9458 32.1255 18.9375 32.187 18.9375 32.25C18.9375 35.1015 19.8472 37.74 21.3802 39.909ZM19.0042 30.9375H15.798C15.21 28.3755 14.8567 25.4288 14.8185 22.3125H23.4225C20.9865 24.4792 19.3403 27.5152 19.0042 30.9375ZM3.57675 22.3125H13.6935C13.7287 25.4475 14.061 28.3725 14.628 30.9375H6.063C4.52172 28.3175 3.66657 25.3509 3.57675 22.3125ZM6.06375 12.5625H14.628C14.061 15.1275 13.7287 18.0525 13.6935 21.1875H3.57675C3.66673 18.149 4.52215 15.1824 6.06375 12.5625ZM24.8557 21.1875H14.8185C14.856 18.0712 15.21 15.1237 15.798 12.5625H27.7065C28.1798 14.6348 28.5015 16.9635 28.6252 19.452C27.2854 19.829 26.0133 20.4147 24.8557 21.1875ZM21.75 3.5625C24.0578 3.5625 26.1562 6.69 27.4275 11.4375H16.0778C17.3453 6.717 19.437 3.5625 21.75 3.5625ZM36.72 11.4375H28.584C27.6855 8.0055 26.349 5.3295 24.7643 3.8175C29.7068 4.6455 33.9802 7.47225 36.72 11.4375ZM18.7005 3.8235C17.1105 5.33775 15.786 8.01225 14.898 11.4375H6.78C9.5145 7.48125 13.7723 4.659 18.7005 3.8235ZM6.78 32.0625H14.8988C15.786 35.487 17.1112 38.1623 18.7005 39.6765C13.773 38.841 9.5145 36.0187 6.78 32.0625ZM32.25 42.5625C26.5635 42.5625 21.9375 37.9365 21.9375 32.25C21.9375 26.5635 26.5635 21.9375 32.25 21.9375C37.9365 21.9375 42.5625 26.5635 42.5625 32.25C42.5625 37.9365 37.9365 42.5625 32.25 42.5625Z" fill="#BC010A"/>
</g>
<g style="mix-blend-mode:plus-lighter" filter="url(#filter2_df_662_3171)">
<path d="M32.25 23.0625C27.1838 23.0625 23.0625 27.1838 23.0625 32.25C23.0625 37.3162 27.1838 41.4375 32.25 41.4375C37.3162 41.4375 41.4375 37.3162 41.4375 32.25C41.4375 27.1838 37.3162 23.0625 32.25 23.0625ZM38.3377 34.3552C38.1886 34.3552 38.0455 34.296 37.94 34.1905C37.8345 34.085 37.7752 33.9419 37.7752 33.7927V30.6502L34.149 34.2765C33.9023 34.524 33.573 34.6613 33.2228 34.6613H33.2212C32.871 34.6613 32.541 34.5247 32.2927 34.2765L30.2228 32.2065C30.1283 32.1113 30.0532 32.1113 29.958 32.2065L26.6692 35.4953C26.6172 35.5477 26.5552 35.5893 26.487 35.6177C26.4188 35.6461 26.3456 35.6607 26.2717 35.6607C26.1979 35.6607 26.1247 35.6461 26.0565 35.6177C25.9883 35.5893 25.9263 35.5477 25.8743 35.4953C25.7689 35.3898 25.7097 35.2468 25.7097 35.0978C25.7097 34.9487 25.7689 34.8057 25.8743 34.7002L29.163 31.4115C29.4094 31.1661 29.743 31.0283 30.0907 31.0283C30.4385 31.0283 30.7721 31.1661 31.0185 31.4115L33.0885 33.4815C33.1823 33.5752 33.2588 33.5775 33.3533 33.4815L36.9795 29.8552H33.837C33.6878 29.8552 33.5447 29.796 33.4393 29.6905C33.3338 29.585 33.2745 29.4419 33.2745 29.2927C33.2745 29.1436 33.3338 29.0005 33.4393 28.895C33.5447 28.7895 33.6878 28.7302 33.837 28.7302H37.587C38.3115 28.7302 38.8995 29.319 38.8995 30.0427V33.7927C38.8995 33.9419 38.8402 34.085 38.7347 34.1905C38.6293 34.296 38.4869 34.3552 38.3377 34.3552ZM41.0527 22.29C41.0573 22.11 41.0625 21.93 41.0625 21.75C41.0625 11.1015 32.3985 2.4375 21.75 2.4375C11.1015 2.4375 2.4375 11.1015 2.4375 21.75C2.4375 32.3985 11.1015 41.0625 21.75 41.0625C21.93 41.0625 22.11 41.0573 22.29 41.0527C24.7305 43.8112 28.2855 45.5625 32.25 45.5625C39.5902 45.5625 45.5625 39.5902 45.5625 32.25C45.5625 28.2855 43.8112 24.7305 41.0527 22.29ZM32.25 18.9375C31.392 18.9375 30.555 19.0268 29.7412 19.182C29.6115 16.8007 29.3047 14.571 28.8555 12.5625H37.4362C39.0134 15.2429 39.8719 18.285 39.9285 21.3945C37.6871 19.7963 35.0028 18.9374 32.25 18.9375ZM21.3802 39.909C19.215 39.594 17.2778 36.5303 16.0778 32.0625H18.9473C18.9458 32.1255 18.9375 32.187 18.9375 32.25C18.9375 35.1015 19.8472 37.74 21.3802 39.909ZM19.0042 30.9375H15.798C15.21 28.3755 14.8567 25.4288 14.8185 22.3125H23.4225C20.9865 24.4792 19.3403 27.5152 19.0042 30.9375ZM3.57675 22.3125H13.6935C13.7287 25.4475 14.061 28.3725 14.628 30.9375H6.063C4.52172 28.3175 3.66657 25.3509 3.57675 22.3125ZM6.06375 12.5625H14.628C14.061 15.1275 13.7287 18.0525 13.6935 21.1875H3.57675C3.66673 18.149 4.52215 15.1824 6.06375 12.5625ZM24.8557 21.1875H14.8185C14.856 18.0712 15.21 15.1237 15.798 12.5625H27.7065C28.1798 14.6348 28.5015 16.9635 28.6252 19.452C27.2854 19.829 26.0133 20.4147 24.8557 21.1875ZM21.75 3.5625C24.0578 3.5625 26.1562 6.69 27.4275 11.4375H16.0778C17.3453 6.717 19.437 3.5625 21.75 3.5625ZM36.72 11.4375H28.584C27.6855 8.0055 26.349 5.3295 24.7643 3.8175C29.7068 4.6455 33.9802 7.47225 36.72 11.4375ZM18.7005 3.8235C17.1105 5.33775 15.786 8.01225 14.898 11.4375H6.78C9.5145 7.48125 13.7723 4.659 18.7005 3.8235ZM6.78 32.0625H14.8988C15.786 35.487 17.1112 38.1623 18.7005 39.6765C13.773 38.841 9.5145 36.0187 6.78 32.0625ZM32.25 42.5625C26.5635 42.5625 21.9375 37.9365 21.9375 32.25C21.9375 26.5635 26.5635 21.9375 32.25 21.9375C37.9365 21.9375 42.5625 26.5635 42.5625 32.25C42.5625 37.9365 37.9365 42.5625 32.25 42.5625Z" fill="#CC1A70"/>
</g>
</g>
<defs>
<filter id="filter0_df_662_3171" x="-5.89583" y="-5.89583" width="59.7917" height="59.7917" filterUnits="userSpaceOnUse" color-interpolation-filters="sRGB">
<feFlood flood-opacity="0" result="BackgroundImageFix"/>
<feColorMatrix in="SourceAlpha" type="matrix" values="0 0 0 0 0 0 0 0 0 0 0 0 0 0 0 0 0 0 127 0" result="hardAlpha"/>
<feOffset/>
<feGaussianBlur stdDeviation="4.16667"/>
<feComposite in2="hardAlpha" operator="out"/>
<feColorMatrix type="matrix" values="0 0 0 0 1 0 0 0 0 0.996078 0 0 0 0 0.0117647 0 0 0 0.25 0"/>
<feBlend mode="normal" in2="BackgroundImageFix" result="effect1_dropShadow_662_3171"/>
<feBlend mode="normal" in="SourceGraphic" in2="effect1_dropShadow_662_3171" result="shape"/>
<feGaussianBlur stdDeviation="0.46875" result="effect2_foregroundBlur_662_3171"/>
</filter>
<filter id="filter1_df_662_3171" x="-5.89583" y="-5.89583" width="59.7917" height="59.7917" filterUnits="userSpaceOnUse" color-interpolation-filters="sRGB">
<feFlood flood-opacity="0" result="BackgroundImageFix"/>
<feColorMatrix in="SourceAlpha" type="matrix" values="0 0 0 0 0 0 0 0 0 0 0 0 0 0 0 0 0 0 127 0" result="hardAlpha"/>
<feOffset/>
<feGaussianBlur stdDeviation="4.16667"/>
<feComposite in2="hardAlpha" operator="out"/>
<feColorMatrix type="matrix" values="0 0 0 0 0.847059 0 0 0 0 0.0196078 0 0 0 0 0.156863 0 0 0 0.25 0"/>
<feBlend mode="normal" in2="BackgroundImageFix" result="effect1_dropShadow_662_3171"/>
<feBlend mode="normal" in="SourceGraphic" in2="effect1_dropShadow_662_3171" result="shape"/>
<feGaussianBlur stdDeviation="0.46875" result="effect2_foregroundBlur_662_3171"/>
</filter>
<filter id="filter2_df_662_3171" x="-5.89583" y="-5.89583" width="59.7917" height="59.7917" filterUnits="userSpaceOnUse" color-interpolation-filters="sRGB">
<feFlood flood-opacity="0" result="BackgroundImageFix"/>
<feColorMatrix in="SourceAlpha" type="matrix" values="0 0 0 0 0 0 0 0 0 0 0 0 0 0 0 0 0 0 127 0" result="hardAlpha"/>
<feOffset/>
<feGaussianBlur stdDeviation="4.16667"/>
<feComposite in2="hardAlpha" operator="out"/>
<feColorMatrix type="matrix" values="0 0 0 0 0.894118 0 0 0 0 0.141176 0 0 0 0 0.466667 0 0 0 0.25 0"/>
<feBlend mode="normal" in2="BackgroundImageFix" result="effect1_dropShadow_662_3171"/>
<feBlend mode="normal" in="SourceGraphic" in2="effect1_dropShadow_662_3171" result="shape"/>
<feGaussianBlur stdDeviation="0.46875" result="effect2_foregroundBlur_662_3171"/>
</filter>
<clipPath id="clip0_662_3171">
<rect width="48" height="48" fill="white"/>
</clipPath>
</defs>
</svg>
