<svg width="48" height="48" viewBox="0 0 48 48" fill="none" xmlns="http://www.w3.org/2000/svg">
<g clip-path="url(#clip0_644_10406)">
<g style="mix-blend-mode:plus-lighter" filter="url(#filter0_df_644_10406)">
<path fill-rule="evenodd" clip-rule="evenodd" d="M37.5782 41.2372C37.5782 48.7543 10.3552 48.7543 10.3552 41.2372C10.3552 33.7202 16.45 27.6262 23.9672 27.6262C31.4843 27.6262 37.5782 33.7201 37.5782 41.2372ZM2.95463 8.18653C5.14444 8.73263 6.86822 10.4565 7.41431 12.6463C7.42412 12.6871 7.44744 12.7233 7.48049 12.7492C7.51353 12.775 7.55434 12.7889 7.59628 12.7885C7.63817 12.7888 7.67894 12.775 7.71194 12.7491C7.74494 12.7233 7.76825 12.6871 7.77806 12.6464C8.32416 10.4565 10.0479 8.73262 12.2378 8.18662C12.2786 8.17682 12.3149 8.15349 12.3407 8.12044C12.3665 8.0874 12.3803 8.04659 12.38 8.00466C12.3803 7.96276 12.3664 7.922 12.3406 7.889C12.3148 7.856 12.2786 7.83269 12.2378 7.82288C10.0479 7.27678 8.32406 5.55291 7.77797 3.36291C7.76815 3.32218 7.74485 3.28597 7.71184 3.26017C7.67884 3.23436 7.63808 3.22048 7.59619 3.22078C7.509 3.22078 7.4355 3.27834 7.41441 3.36291C6.86841 5.55281 5.14453 7.27669 2.95463 7.82278C2.87006 7.84387 2.8125 7.91747 2.8125 8.00466C2.8125 8.09184 2.87006 8.16544 2.95463 8.18653ZM7.59628 31.885C6.26213 31.885 5.18034 30.8033 5.18034 29.4691C5.18034 28.1349 6.26213 27.0532 7.59628 27.0532C8.93044 27.0532 10.0122 28.1349 10.0122 29.4691C10.0121 30.8033 8.93044 31.885 7.59628 31.885ZM40.3371 1.21875C41.6712 1.21875 42.753 2.30053 42.753 3.63469C42.753 4.96884 41.6712 6.05062 40.3371 6.05062C39.0029 6.05062 37.9211 4.96884 37.9211 3.63469C37.9211 2.30053 39.003 1.21875 40.3371 1.21875ZM35.6956 25.281C37.8854 25.8271 39.6092 27.551 40.1553 29.7408C40.1651 29.7815 40.1884 29.8178 40.2215 29.8436C40.2545 29.8694 40.2953 29.8833 40.3372 29.8829C40.4244 29.8829 40.4979 29.8253 40.519 29.7408C41.0651 27.5509 42.7889 25.827 44.9788 25.281C45.0196 25.2712 45.0558 25.2479 45.0817 25.2148C45.1075 25.1818 45.1214 25.141 45.121 25.099C45.1213 25.0571 45.1074 25.0164 45.0816 24.9834C45.0558 24.9504 45.0196 24.9271 44.9789 24.9172C42.789 24.3712 41.0651 22.6473 40.519 20.4573C40.5092 20.4166 40.4859 20.3803 40.4529 20.3545C40.4199 20.3287 40.3791 20.3149 40.3372 20.3152C40.2501 20.3152 40.1766 20.3727 40.1555 20.4573C39.6095 22.6472 37.8856 24.3711 35.6958 24.9172C35.655 24.927 35.6188 24.9503 35.593 24.9833C35.5672 25.0163 35.5533 25.0571 35.5537 25.099C35.5532 25.141 35.567 25.1818 35.5928 25.2148C35.6186 25.2479 35.6548 25.2712 35.6956 25.281ZM17.6761 17.7098C17.6761 21.1843 20.4925 24.0007 23.9671 24.0007C27.4417 24.0007 30.2581 21.1843 30.2581 17.7098C30.2581 14.2362 27.4417 11.4197 23.9671 11.4197C20.4926 11.4197 17.6761 14.2362 17.6761 17.7098Z" fill="#FFE600"/>
</g>
<g style="mix-blend-mode:plus-lighter" opacity="0.1" filter="url(#filter1_df_644_10406)">
<path fill-rule="evenodd" clip-rule="evenodd" d="M37.5782 41.2372C37.5782 48.7543 10.3552 48.7543 10.3552 41.2372C10.3552 33.7202 16.45 27.6262 23.9672 27.6262C31.4843 27.6262 37.5782 33.7201 37.5782 41.2372ZM2.95463 8.18653C5.14444 8.73263 6.86822 10.4565 7.41431 12.6463C7.42412 12.6871 7.44744 12.7233 7.48049 12.7492C7.51353 12.775 7.55434 12.7889 7.59628 12.7885C7.63817 12.7888 7.67894 12.775 7.71194 12.7491C7.74494 12.7233 7.76825 12.6871 7.77806 12.6464C8.32416 10.4565 10.0479 8.73262 12.2378 8.18662C12.2786 8.17682 12.3149 8.15349 12.3407 8.12044C12.3665 8.0874 12.3803 8.04659 12.38 8.00466C12.3803 7.96276 12.3664 7.922 12.3406 7.889C12.3148 7.856 12.2786 7.83269 12.2378 7.82288C10.0479 7.27678 8.32406 5.55291 7.77797 3.36291C7.76815 3.32218 7.74485 3.28597 7.71184 3.26017C7.67884 3.23436 7.63808 3.22048 7.59619 3.22078C7.509 3.22078 7.4355 3.27834 7.41441 3.36291C6.86841 5.55281 5.14453 7.27669 2.95463 7.82278C2.87006 7.84387 2.8125 7.91747 2.8125 8.00466C2.8125 8.09184 2.87006 8.16544 2.95463 8.18653ZM7.59628 31.885C6.26213 31.885 5.18034 30.8033 5.18034 29.4691C5.18034 28.1349 6.26213 27.0532 7.59628 27.0532C8.93044 27.0532 10.0122 28.1349 10.0122 29.4691C10.0121 30.8033 8.93044 31.885 7.59628 31.885ZM40.3371 1.21875C41.6712 1.21875 42.753 2.30053 42.753 3.63469C42.753 4.96884 41.6712 6.05062 40.3371 6.05062C39.0029 6.05062 37.9211 4.96884 37.9211 3.63469C37.9211 2.30053 39.003 1.21875 40.3371 1.21875ZM35.6956 25.281C37.8854 25.8271 39.6092 27.551 40.1553 29.7408C40.1651 29.7815 40.1884 29.8178 40.2215 29.8436C40.2545 29.8694 40.2953 29.8833 40.3372 29.8829C40.4244 29.8829 40.4979 29.8253 40.519 29.7408C41.0651 27.5509 42.7889 25.827 44.9788 25.281C45.0196 25.2712 45.0558 25.2479 45.0817 25.2148C45.1075 25.1818 45.1214 25.141 45.121 25.099C45.1213 25.0571 45.1074 25.0164 45.0816 24.9834C45.0558 24.9504 45.0196 24.9271 44.9789 24.9172C42.789 24.3712 41.0651 22.6473 40.519 20.4573C40.5092 20.4166 40.4859 20.3803 40.4529 20.3545C40.4199 20.3287 40.3791 20.3149 40.3372 20.3152C40.2501 20.3152 40.1766 20.3727 40.1555 20.4573C39.6095 22.6472 37.8856 24.3711 35.6958 24.9172C35.655 24.927 35.6188 24.9503 35.593 24.9833C35.5672 25.0163 35.5533 25.0571 35.5537 25.099C35.5532 25.141 35.567 25.1818 35.5928 25.2148C35.6186 25.2479 35.6548 25.2712 35.6956 25.281ZM17.6761 17.7098C17.6761 21.1843 20.4925 24.0007 23.9671 24.0007C27.4417 24.0007 30.2581 21.1843 30.2581 17.7098C30.2581 14.2362 27.4417 11.4197 23.9671 11.4197C20.4926 11.4197 17.6761 14.2362 17.6761 17.7098Z" fill="#BC010A"/>
</g>
<g style="mix-blend-mode:plus-lighter" filter="url(#filter2_df_644_10406)">
<path fill-rule="evenodd" clip-rule="evenodd" d="M37.5782 41.2372C37.5782 48.7543 10.3552 48.7543 10.3552 41.2372C10.3552 33.7202 16.45 27.6262 23.9672 27.6262C31.4843 27.6262 37.5782 33.7201 37.5782 41.2372ZM2.95463 8.18653C5.14444 8.73263 6.86822 10.4565 7.41431 12.6463C7.42412 12.6871 7.44744 12.7233 7.48049 12.7492C7.51353 12.775 7.55434 12.7889 7.59628 12.7885C7.63817 12.7888 7.67894 12.775 7.71194 12.7491C7.74494 12.7233 7.76825 12.6871 7.77806 12.6464C8.32416 10.4565 10.0479 8.73262 12.2378 8.18662C12.2786 8.17682 12.3149 8.15349 12.3407 8.12044C12.3665 8.0874 12.3803 8.04659 12.38 8.00466C12.3803 7.96276 12.3664 7.922 12.3406 7.889C12.3148 7.856 12.2786 7.83269 12.2378 7.82288C10.0479 7.27678 8.32406 5.55291 7.77797 3.36291C7.76815 3.32218 7.74485 3.28597 7.71184 3.26017C7.67884 3.23436 7.63808 3.22048 7.59619 3.22078C7.509 3.22078 7.4355 3.27834 7.41441 3.36291C6.86841 5.55281 5.14453 7.27669 2.95463 7.82278C2.87006 7.84387 2.8125 7.91747 2.8125 8.00466C2.8125 8.09184 2.87006 8.16544 2.95463 8.18653ZM7.59628 31.885C6.26213 31.885 5.18034 30.8033 5.18034 29.4691C5.18034 28.1349 6.26213 27.0532 7.59628 27.0532C8.93044 27.0532 10.0122 28.1349 10.0122 29.4691C10.0121 30.8033 8.93044 31.885 7.59628 31.885ZM40.3371 1.21875C41.6712 1.21875 42.753 2.30053 42.753 3.63469C42.753 4.96884 41.6712 6.05062 40.3371 6.05062C39.0029 6.05062 37.9211 4.96884 37.9211 3.63469C37.9211 2.30053 39.003 1.21875 40.3371 1.21875ZM35.6956 25.281C37.8854 25.8271 39.6092 27.551 40.1553 29.7408C40.1651 29.7815 40.1884 29.8178 40.2215 29.8436C40.2545 29.8694 40.2953 29.8833 40.3372 29.8829C40.4244 29.8829 40.4979 29.8253 40.519 29.7408C41.0651 27.5509 42.7889 25.827 44.9788 25.281C45.0196 25.2712 45.0558 25.2479 45.0817 25.2148C45.1075 25.1818 45.1214 25.141 45.121 25.099C45.1213 25.0571 45.1074 25.0164 45.0816 24.9834C45.0558 24.9504 45.0196 24.9271 44.9789 24.9172C42.789 24.3712 41.0651 22.6473 40.519 20.4573C40.5092 20.4166 40.4859 20.3803 40.4529 20.3545C40.4199 20.3287 40.3791 20.3149 40.3372 20.3152C40.2501 20.3152 40.1766 20.3727 40.1555 20.4573C39.6095 22.6472 37.8856 24.3711 35.6958 24.9172C35.655 24.927 35.6188 24.9503 35.593 24.9833C35.5672 25.0163 35.5533 25.0571 35.5537 25.099C35.5532 25.141 35.567 25.1818 35.5928 25.2148C35.6186 25.2479 35.6548 25.2712 35.6956 25.281ZM17.6761 17.7098C17.6761 21.1843 20.4925 24.0007 23.9671 24.0007C27.4417 24.0007 30.2581 21.1843 30.2581 17.7098C30.2581 14.2362 27.4417 11.4197 23.9671 11.4197C20.4926 11.4197 17.6761 14.2362 17.6761 17.7098Z" fill="#CC1A70"/>
</g>
</g>
<defs>
<filter id="filter0_df_644_10406" x="-5.52083" y="-7.11458" width="58.9753" height="62.3229" filterUnits="userSpaceOnUse" color-interpolation-filters="sRGB">
<feFlood flood-opacity="0" result="BackgroundImageFix"/>
<feColorMatrix in="SourceAlpha" type="matrix" values="0 0 0 0 0 0 0 0 0 0 0 0 0 0 0 0 0 0 127 0" result="hardAlpha"/>
<feOffset/>
<feGaussianBlur stdDeviation="4.16667"/>
<feComposite in2="hardAlpha" operator="out"/>
<feColorMatrix type="matrix" values="0 0 0 0 1 0 0 0 0 0.996078 0 0 0 0 0.0117647 0 0 0 0.25 0"/>
<feBlend mode="normal" in2="BackgroundImageFix" result="effect1_dropShadow_644_10406"/>
<feBlend mode="normal" in="SourceGraphic" in2="effect1_dropShadow_644_10406" result="shape"/>
<feGaussianBlur stdDeviation="0.5" result="effect2_foregroundBlur_644_10406"/>
</filter>
<filter id="filter1_df_644_10406" x="-5.52083" y="-7.11458" width="58.9753" height="62.3229" filterUnits="userSpaceOnUse" color-interpolation-filters="sRGB">
<feFlood flood-opacity="0" result="BackgroundImageFix"/>
<feColorMatrix in="SourceAlpha" type="matrix" values="0 0 0 0 0 0 0 0 0 0 0 0 0 0 0 0 0 0 127 0" result="hardAlpha"/>
<feOffset/>
<feGaussianBlur stdDeviation="4.16667"/>
<feComposite in2="hardAlpha" operator="out"/>
<feColorMatrix type="matrix" values="0 0 0 0 0.847059 0 0 0 0 0.0196078 0 0 0 0 0.156863 0 0 0 0.25 0"/>
<feBlend mode="normal" in2="BackgroundImageFix" result="effect1_dropShadow_644_10406"/>
<feBlend mode="normal" in="SourceGraphic" in2="effect1_dropShadow_644_10406" result="shape"/>
<feGaussianBlur stdDeviation="0.5" result="effect2_foregroundBlur_644_10406"/>
</filter>
<filter id="filter2_df_644_10406" x="-5.52083" y="-7.11458" width="58.9753" height="62.3229" filterUnits="userSpaceOnUse" color-interpolation-filters="sRGB">
<feFlood flood-opacity="0" result="BackgroundImageFix"/>
<feColorMatrix in="SourceAlpha" type="matrix" values="0 0 0 0 0 0 0 0 0 0 0 0 0 0 0 0 0 0 127 0" result="hardAlpha"/>
<feOffset/>
<feGaussianBlur stdDeviation="4.16667"/>
<feComposite in2="hardAlpha" operator="out"/>
<feColorMatrix type="matrix" values="0 0 0 0 0.894118 0 0 0 0 0.141176 0 0 0 0 0.466667 0 0 0 0.25 0"/>
<feBlend mode="normal" in2="BackgroundImageFix" result="effect1_dropShadow_644_10406"/>
<feBlend mode="normal" in="SourceGraphic" in2="effect1_dropShadow_644_10406" result="shape"/>
<feGaussianBlur stdDeviation="0.5" result="effect2_foregroundBlur_644_10406"/>
</filter>
<clipPath id="clip0_644_10406">
<rect width="48" height="48" fill="white"/>
</clipPath>
</defs>
</svg>
