<svg width="66" height="60" viewBox="0 0 66 60" fill="none" xmlns="http://www.w3.org/2000/svg">
<g style="mix-blend-mode:plus-lighter" filter="url(#filter0_df_653_3051)">
<path d="M18.8784 21.2812C20.2764 21.2812 21.4097 20.148 21.4097 18.75C21.4097 17.352 20.2764 16.2188 18.8784 16.2188C17.4804 16.2188 16.3472 17.352 16.3472 18.75C16.3472 20.148 17.4804 21.2812 18.8784 21.2812Z" fill="#FFE600"/>
<path d="M18.8438 8.90625C13.4156 8.90625 9 13.3219 9 18.75C9 24.1781 13.4156 28.5938 18.8438 28.5938C24.2719 28.5938 28.6875 24.1781 28.6875 18.75C28.6875 13.3219 24.2719 8.90625 18.8438 8.90625ZM18.8784 24.0938C15.9319 24.0938 13.5347 21.6966 13.5347 18.75C13.5347 15.8034 15.9319 13.4062 18.8784 13.4062C21.825 13.4062 24.2222 15.8034 24.2222 18.75C24.2222 21.6966 21.825 24.0938 18.8784 24.0938ZM31.5 12.8438H57V24.6562H31.5V12.8438Z" fill="#FFE600"/>
<path d="M18.8438 51.0938C24.2803 51.0938 28.6875 46.6866 28.6875 41.25C28.6875 35.8134 24.2803 31.4062 18.8438 31.4062C13.4072 31.4062 9 35.8134 9 41.25C9 46.6866 13.4072 51.0938 18.8438 51.0938Z" fill="#FFE600"/>
<path d="M31.5 35.3438H57V47.1562H31.5V35.3438Z" fill="#FFE600"/>
</g>
<g style="mix-blend-mode:plus-lighter" filter="url(#filter1_df_653_3051)">
<path d="M18.8784 21.2812C20.2764 21.2812 21.4097 20.148 21.4097 18.75C21.4097 17.352 20.2764 16.2188 18.8784 16.2188C17.4804 16.2188 16.3472 17.352 16.3472 18.75C16.3472 20.148 17.4804 21.2812 18.8784 21.2812Z" fill="#BC010A"/>
<path d="M18.8438 8.90625C13.4156 8.90625 9 13.3219 9 18.75C9 24.1781 13.4156 28.5938 18.8438 28.5938C24.2719 28.5938 28.6875 24.1781 28.6875 18.75C28.6875 13.3219 24.2719 8.90625 18.8438 8.90625ZM18.8784 24.0938C15.9319 24.0938 13.5347 21.6966 13.5347 18.75C13.5347 15.8034 15.9319 13.4062 18.8784 13.4062C21.825 13.4062 24.2222 15.8034 24.2222 18.75C24.2222 21.6966 21.825 24.0938 18.8784 24.0938ZM31.5 12.8438H57V24.6562H31.5V12.8438Z" fill="#BC010A"/>
<path d="M18.8438 51.0938C24.2803 51.0938 28.6875 46.6866 28.6875 41.25C28.6875 35.8134 24.2803 31.4062 18.8438 31.4062C13.4072 31.4062 9 35.8134 9 41.25C9 46.6866 13.4072 51.0938 18.8438 51.0938Z" fill="#BC010A"/>
<path d="M31.5 35.3438H57V47.1562H31.5V35.3438Z" fill="#BC010A"/>
</g>
<g style="mix-blend-mode:plus-lighter" filter="url(#filter2_df_653_3051)">
<path d="M18.8784 21.2812C20.2764 21.2812 21.4097 20.148 21.4097 18.75C21.4097 17.352 20.2764 16.2188 18.8784 16.2188C17.4804 16.2188 16.3472 17.352 16.3472 18.75C16.3472 20.148 17.4804 21.2812 18.8784 21.2812Z" fill="#CC1A70"/>
<path d="M18.8438 8.90625C13.4156 8.90625 9 13.3219 9 18.75C9 24.1781 13.4156 28.5938 18.8438 28.5938C24.2719 28.5938 28.6875 24.1781 28.6875 18.75C28.6875 13.3219 24.2719 8.90625 18.8438 8.90625ZM18.8784 24.0938C15.9319 24.0938 13.5347 21.6966 13.5347 18.75C13.5347 15.8034 15.9319 13.4062 18.8784 13.4062C21.825 13.4062 24.2222 15.8034 24.2222 18.75C24.2222 21.6966 21.825 24.0938 18.8784 24.0938ZM31.5 12.8438H57V24.6562H31.5V12.8438Z" fill="#CC1A70"/>
<path d="M18.8438 51.0938C24.2803 51.0938 28.6875 46.6866 28.6875 41.25C28.6875 35.8134 24.2803 31.4062 18.8438 31.4062C13.4072 31.4062 9 35.8134 9 41.25C9 46.6866 13.4072 51.0938 18.8438 51.0938Z" fill="#CC1A70"/>
<path d="M31.5 35.3438H57V47.1562H31.5V35.3438Z" fill="#CC1A70"/>
</g>
<defs>
<filter id="filter0_df_653_3051" x="0.666668" y="0.572918" width="64.6667" height="58.8542" filterUnits="userSpaceOnUse" color-interpolation-filters="sRGB">
<feFlood flood-opacity="0" result="BackgroundImageFix"/>
<feColorMatrix in="SourceAlpha" type="matrix" values="0 0 0 0 0 0 0 0 0 0 0 0 0 0 0 0 0 0 127 0" result="hardAlpha"/>
<feOffset/>
<feGaussianBlur stdDeviation="4.16667"/>
<feComposite in2="hardAlpha" operator="out"/>
<feColorMatrix type="matrix" values="0 0 0 0 1 0 0 0 0 0.996078 0 0 0 0 0.0117647 0 0 0 0.25 0"/>
<feBlend mode="normal" in2="BackgroundImageFix" result="effect1_dropShadow_653_3051"/>
<feBlend mode="normal" in="SourceGraphic" in2="effect1_dropShadow_653_3051" result="shape"/>
<feGaussianBlur stdDeviation="0.46875" result="effect2_foregroundBlur_653_3051"/>
</filter>
<filter id="filter1_df_653_3051" x="0.666668" y="0.572918" width="64.6667" height="58.8542" filterUnits="userSpaceOnUse" color-interpolation-filters="sRGB">
<feFlood flood-opacity="0" result="BackgroundImageFix"/>
<feColorMatrix in="SourceAlpha" type="matrix" values="0 0 0 0 0 0 0 0 0 0 0 0 0 0 0 0 0 0 127 0" result="hardAlpha"/>
<feOffset/>
<feGaussianBlur stdDeviation="4.16667"/>
<feComposite in2="hardAlpha" operator="out"/>
<feColorMatrix type="matrix" values="0 0 0 0 0.847059 0 0 0 0 0.0196078 0 0 0 0 0.156863 0 0 0 0.25 0"/>
<feBlend mode="normal" in2="BackgroundImageFix" result="effect1_dropShadow_653_3051"/>
<feBlend mode="normal" in="SourceGraphic" in2="effect1_dropShadow_653_3051" result="shape"/>
<feGaussianBlur stdDeviation="0.46875" result="effect2_foregroundBlur_653_3051"/>
</filter>
<filter id="filter2_df_653_3051" x="0.666668" y="0.572918" width="64.6667" height="58.8542" filterUnits="userSpaceOnUse" color-interpolation-filters="sRGB">
<feFlood flood-opacity="0" result="BackgroundImageFix"/>
<feColorMatrix in="SourceAlpha" type="matrix" values="0 0 0 0 0 0 0 0 0 0 0 0 0 0 0 0 0 0 127 0" result="hardAlpha"/>
<feOffset/>
<feGaussianBlur stdDeviation="4.16667"/>
<feComposite in2="hardAlpha" operator="out"/>
<feColorMatrix type="matrix" values="0 0 0 0 0.894118 0 0 0 0 0.141176 0 0 0 0 0.466667 0 0 0 0.25 0"/>
<feBlend mode="normal" in2="BackgroundImageFix" result="effect1_dropShadow_653_3051"/>
<feBlend mode="normal" in="SourceGraphic" in2="effect1_dropShadow_653_3051" result="shape"/>
<feGaussianBlur stdDeviation="0.46875" result="effect2_foregroundBlur_653_3051"/>
</filter>
</defs>
</svg>
