<svg width="48" height="48" viewBox="0 0 48 48" fill="none" xmlns="http://www.w3.org/2000/svg">
<g clip-path="url(#clip0_653_2938)">
<g style="mix-blend-mode:plus-lighter" filter="url(#filter0_df_653_2938)">
<path fill-rule="evenodd" clip-rule="evenodd" d="M0.725036 39.8702C0.544659 39.8702 0.371669 39.7985 0.244123 39.671C0.116577 39.5434 0.0449219 39.3705 0.0449219 39.1901C0.0449219 39.0097 0.116577 38.8367 0.244123 38.7092C0.371669 38.5816 0.544659 38.51 0.725036 38.51H8.07759C8.10335 38.5099 8.12805 38.4997 8.14626 38.4815C8.16447 38.4633 8.17472 38.4386 8.17475 38.4128V12.6609C8.17475 12.5716 8.19234 12.4831 8.22652 12.4006C8.2607 12.3181 8.31079 12.2431 8.37395 12.18C8.4371 12.1168 8.51208 12.0667 8.59459 12.0326C8.67711 11.9984 8.76555 11.9808 8.85486 11.9808C8.94418 11.9808 9.03261 11.9984 9.11513 12.0326C9.19765 12.0667 9.27262 12.1168 9.33578 12.18C9.39893 12.2431 9.44903 12.3181 9.48321 12.4006C9.51738 12.4831 9.53498 12.5716 9.53498 12.6609V38.4128C9.53498 38.4664 9.57858 38.51 9.63214 38.51H35.384C35.5644 38.51 35.7374 38.5816 35.865 38.7092C35.9925 38.8367 36.0642 39.0097 36.0642 39.1901C36.0642 39.3705 35.9925 39.5434 35.865 39.671C35.7374 39.7985 35.5644 39.8702 35.384 39.8702H9.63214C9.60638 39.8702 9.58168 39.8805 9.56346 39.8987C9.54525 39.9169 9.535 39.9416 9.53498 39.9674V47.3199C9.53498 47.4092 9.51738 47.4977 9.48321 47.5802C9.44903 47.6627 9.39893 47.7377 9.33578 47.8008C9.27262 47.864 9.19765 47.9141 9.11513 47.9482C9.03261 47.9824 8.94418 48 8.85486 48C8.76555 48 8.67711 47.9824 8.59459 47.9482C8.51208 47.9141 8.4371 47.864 8.37395 47.8008C8.31079 47.7377 8.2607 47.6627 8.22652 47.5802C8.19234 47.4977 8.17475 47.4092 8.17475 47.3199V39.9674C8.17472 39.9416 8.16447 39.9169 8.14626 39.8987C8.12805 39.8805 8.10335 39.8702 8.07759 39.8702H0.725036ZM14.2893 12.9337C13.6874 12.9337 13.1925 13.4284 13.1925 14.0305V33.9696C13.1925 34.5715 13.6872 35.0663 14.2893 35.0663H21.3918C21.9937 35.0663 22.4885 34.5716 22.4885 33.9696V14.0305C22.4885 13.4285 21.9938 12.9337 21.3918 12.9337H14.2893ZM26.698 25.7704C26.0933 25.7704 25.6013 26.2624 25.6013 26.8671V33.9696C25.6013 34.5715 26.096 35.0663 26.698 35.0663H33.8005C34.4024 35.0663 34.8972 34.5716 34.8972 33.9696V26.8671C34.8972 26.2652 34.4025 25.7704 33.8005 25.7704H26.698ZM26.698 12.9337C26.0961 12.9337 25.6013 13.4284 25.6013 14.0305V21.1329C25.6013 21.7344 26.0964 22.2297 26.698 22.2297H33.8005C34.4052 22.2297 34.8972 21.7377 34.8972 21.1329V14.0305C34.8972 13.4285 34.4025 12.9337 33.8005 12.9337H26.698ZM38.5549 0.68013V8.03268C38.5548 8.05844 38.5446 8.08314 38.5264 8.10135C38.5082 8.11957 38.4835 8.12981 38.4577 8.12984H12.7058C12.6165 8.12984 12.5281 8.14743 12.4455 8.18161C12.363 8.21579 12.288 8.26589 12.2249 8.32904C12.1617 8.3922 12.1116 8.46717 12.0775 8.54969C12.0433 8.6322 12.0257 8.72064 12.0257 8.80996C12.0257 8.89927 12.0433 8.98771 12.0775 9.07022C12.1116 9.15274 12.1617 9.22771 12.2249 9.29087C12.288 9.35402 12.363 9.40412 12.4455 9.4383C12.5281 9.47248 12.6165 9.49007 12.7058 9.49007H38.4577C38.5113 9.49007 38.5549 9.53367 38.5549 9.58723V35.3391C38.5549 35.5195 38.6265 35.6925 38.7541 35.8201C38.8816 35.9476 39.0546 36.0193 39.235 36.0193C39.4154 36.0193 39.5884 35.9476 39.7159 35.8201C39.8434 35.6925 39.9151 35.5195 39.9151 35.3391V9.58723C39.9151 9.53367 39.9587 9.49007 40.0123 9.49007H47.3648C47.4541 9.49007 47.5426 9.47248 47.6251 9.4383C47.7076 9.40412 47.7826 9.35402 47.8457 9.29087C47.9089 9.22771 47.959 9.15274 47.9932 9.07022C48.0273 8.98771 48.0449 8.89927 48.0449 8.80996C48.0449 8.72064 48.0273 8.6322 47.9932 8.54969C47.959 8.46717 47.9089 8.3922 47.8457 8.32904C47.7826 8.26589 47.7076 8.21579 47.6251 8.18161C47.5426 8.14743 47.4541 8.12984 47.3648 8.12984H40.0123C39.9865 8.12981 39.9618 8.11957 39.9436 8.10135C39.9254 8.08314 39.9151 8.05844 39.9151 8.03268V0.68013C39.9151 0.499752 39.8434 0.326762 39.7159 0.199216C39.5884 0.0716701 39.4154 1.52588e-05 39.235 1.52588e-05C39.0546 1.52588e-05 38.8816 0.0716701 38.7541 0.199216C38.6265 0.326762 38.5549 0.499752 38.5549 0.68013ZM5.69871 28.0119L1.75543 24.0687C1.73726 24.0504 1.72705 24.0257 1.72705 24C1.72705 23.9742 1.73726 23.9495 1.75543 23.9313L5.69871 19.988C5.76186 19.9248 5.81195 19.8499 5.84612 19.7674C5.8803 19.6848 5.89789 19.5964 5.89789 19.5071C5.89789 19.4178 5.8803 19.3294 5.84612 19.2469C5.81195 19.1644 5.76186 19.0894 5.69871 19.0262C5.63556 18.9631 5.56059 18.913 5.47808 18.8788C5.39557 18.8446 5.30714 18.8271 5.21784 18.8271C5.12853 18.8271 5.0401 18.8446 4.95759 18.8788C4.87508 18.913 4.80012 18.9631 4.73697 19.0262L0.244166 23.519C0.181013 23.5822 0.130916 23.6572 0.0967365 23.7397C0.0625574 23.8222 0.0449657 23.9106 0.0449657 23.9999C0.0449657 24.0892 0.0625574 24.1777 0.0967365 24.2602C0.130916 24.3427 0.181013 24.4176 0.244166 24.4808L4.73697 28.9736C4.86449 29.1011 5.03745 29.1728 5.2178 29.1728C5.39815 29.1728 5.57112 29.1012 5.69865 28.9736C5.82619 28.8461 5.89784 28.6732 5.89785 28.4928C5.89786 28.3124 5.82623 28.1395 5.69871 28.0119ZM43.3529 28.9737C43.2253 29.1012 43.0524 29.1729 42.872 29.1729C42.6916 29.1729 42.5187 29.1012 42.3911 28.9737C42.2636 28.8462 42.192 28.6732 42.192 28.4928C42.192 28.3125 42.2636 28.1395 42.3911 28.0119L46.3344 24.0687C46.3526 24.0504 46.3628 24.0257 46.3628 24C46.3628 23.9742 46.3526 23.9495 46.3344 23.9313L42.3911 19.988C42.328 19.9248 42.2779 19.8499 42.2437 19.7674C42.2095 19.6848 42.192 19.5964 42.192 19.5071C42.192 19.4178 42.2095 19.3294 42.2437 19.2469C42.2779 19.1644 42.328 19.0894 42.3911 19.0262C42.4543 18.9631 42.5293 18.913 42.6118 18.8788C42.6943 18.8446 42.7827 18.8271 42.872 18.8271C42.9613 18.8271 43.0497 18.8446 43.1323 18.8788C43.2148 18.913 43.2897 18.9631 43.3529 19.0262L47.8457 23.519C47.9088 23.5822 47.9589 23.6572 47.9931 23.7397C48.0273 23.8222 48.0449 23.9106 48.0449 23.9999C48.0449 24.0892 48.0273 24.1777 47.9931 24.2602C47.9589 24.3427 47.9088 24.4176 47.8457 24.4808L43.3529 28.9737Z" fill="#FFE600"/>
</g>
<g style="mix-blend-mode:plus-lighter" filter="url(#filter1_df_653_2938)">
<path fill-rule="evenodd" clip-rule="evenodd" d="M0.725036 39.8702C0.544659 39.8702 0.371669 39.7985 0.244123 39.671C0.116577 39.5434 0.0449219 39.3705 0.0449219 39.1901C0.0449219 39.0097 0.116577 38.8367 0.244123 38.7092C0.371669 38.5816 0.544659 38.51 0.725036 38.51H8.07759C8.10335 38.5099 8.12805 38.4997 8.14626 38.4815C8.16447 38.4633 8.17472 38.4386 8.17475 38.4128V12.6609C8.17475 12.5716 8.19234 12.4831 8.22652 12.4006C8.2607 12.3181 8.31079 12.2431 8.37395 12.18C8.4371 12.1168 8.51208 12.0667 8.59459 12.0326C8.67711 11.9984 8.76555 11.9808 8.85486 11.9808C8.94418 11.9808 9.03261 11.9984 9.11513 12.0326C9.19765 12.0667 9.27262 12.1168 9.33578 12.18C9.39893 12.2431 9.44903 12.3181 9.48321 12.4006C9.51738 12.4831 9.53498 12.5716 9.53498 12.6609V38.4128C9.53498 38.4664 9.57858 38.51 9.63214 38.51H35.384C35.5644 38.51 35.7374 38.5816 35.865 38.7092C35.9925 38.8367 36.0642 39.0097 36.0642 39.1901C36.0642 39.3705 35.9925 39.5434 35.865 39.671C35.7374 39.7985 35.5644 39.8702 35.384 39.8702H9.63214C9.60638 39.8702 9.58168 39.8805 9.56346 39.8987C9.54525 39.9169 9.535 39.9416 9.53498 39.9674V47.3199C9.53498 47.4092 9.51738 47.4977 9.48321 47.5802C9.44903 47.6627 9.39893 47.7377 9.33578 47.8008C9.27262 47.864 9.19765 47.9141 9.11513 47.9482C9.03261 47.9824 8.94418 48 8.85486 48C8.76555 48 8.67711 47.9824 8.59459 47.9482C8.51208 47.9141 8.4371 47.864 8.37395 47.8008C8.31079 47.7377 8.2607 47.6627 8.22652 47.5802C8.19234 47.4977 8.17475 47.4092 8.17475 47.3199V39.9674C8.17472 39.9416 8.16447 39.9169 8.14626 39.8987C8.12805 39.8805 8.10335 39.8702 8.07759 39.8702H0.725036ZM14.2893 12.9337C13.6874 12.9337 13.1925 13.4284 13.1925 14.0305V33.9696C13.1925 34.5715 13.6872 35.0663 14.2893 35.0663H21.3918C21.9937 35.0663 22.4885 34.5716 22.4885 33.9696V14.0305C22.4885 13.4285 21.9938 12.9337 21.3918 12.9337H14.2893ZM26.698 25.7704C26.0933 25.7704 25.6013 26.2624 25.6013 26.8671V33.9696C25.6013 34.5715 26.096 35.0663 26.698 35.0663H33.8005C34.4024 35.0663 34.8972 34.5716 34.8972 33.9696V26.8671C34.8972 26.2652 34.4025 25.7704 33.8005 25.7704H26.698ZM26.698 12.9337C26.0961 12.9337 25.6013 13.4284 25.6013 14.0305V21.1329C25.6013 21.7344 26.0964 22.2297 26.698 22.2297H33.8005C34.4052 22.2297 34.8972 21.7377 34.8972 21.1329V14.0305C34.8972 13.4285 34.4025 12.9337 33.8005 12.9337H26.698ZM38.5549 0.68013V8.03268C38.5548 8.05844 38.5446 8.08314 38.5264 8.10135C38.5082 8.11957 38.4835 8.12981 38.4577 8.12984H12.7058C12.6165 8.12984 12.5281 8.14743 12.4455 8.18161C12.363 8.21579 12.288 8.26589 12.2249 8.32904C12.1617 8.3922 12.1116 8.46717 12.0775 8.54969C12.0433 8.6322 12.0257 8.72064 12.0257 8.80996C12.0257 8.89927 12.0433 8.98771 12.0775 9.07022C12.1116 9.15274 12.1617 9.22771 12.2249 9.29087C12.288 9.35402 12.363 9.40412 12.4455 9.4383C12.5281 9.47248 12.6165 9.49007 12.7058 9.49007H38.4577C38.5113 9.49007 38.5549 9.53367 38.5549 9.58723V35.3391C38.5549 35.5195 38.6265 35.6925 38.7541 35.8201C38.8816 35.9476 39.0546 36.0193 39.235 36.0193C39.4154 36.0193 39.5884 35.9476 39.7159 35.8201C39.8434 35.6925 39.9151 35.5195 39.9151 35.3391V9.58723C39.9151 9.53367 39.9587 9.49007 40.0123 9.49007H47.3648C47.4541 9.49007 47.5426 9.47248 47.6251 9.4383C47.7076 9.40412 47.7826 9.35402 47.8457 9.29087C47.9089 9.22771 47.959 9.15274 47.9932 9.07022C48.0273 8.98771 48.0449 8.89927 48.0449 8.80996C48.0449 8.72064 48.0273 8.6322 47.9932 8.54969C47.959 8.46717 47.9089 8.3922 47.8457 8.32904C47.7826 8.26589 47.7076 8.21579 47.6251 8.18161C47.5426 8.14743 47.4541 8.12984 47.3648 8.12984H40.0123C39.9865 8.12981 39.9618 8.11957 39.9436 8.10135C39.9254 8.08314 39.9151 8.05844 39.9151 8.03268V0.68013C39.9151 0.499752 39.8434 0.326762 39.7159 0.199216C39.5884 0.0716701 39.4154 1.52588e-05 39.235 1.52588e-05C39.0546 1.52588e-05 38.8816 0.0716701 38.7541 0.199216C38.6265 0.326762 38.5549 0.499752 38.5549 0.68013ZM5.69871 28.0119L1.75543 24.0687C1.73726 24.0504 1.72705 24.0257 1.72705 24C1.72705 23.9742 1.73726 23.9495 1.75543 23.9313L5.69871 19.988C5.76186 19.9248 5.81195 19.8499 5.84612 19.7674C5.8803 19.6848 5.89789 19.5964 5.89789 19.5071C5.89789 19.4178 5.8803 19.3294 5.84612 19.2469C5.81195 19.1644 5.76186 19.0894 5.69871 19.0262C5.63556 18.9631 5.56059 18.913 5.47808 18.8788C5.39557 18.8446 5.30714 18.8271 5.21784 18.8271C5.12853 18.8271 5.0401 18.8446 4.95759 18.8788C4.87508 18.913 4.80012 18.9631 4.73697 19.0262L0.244166 23.519C0.181013 23.5822 0.130916 23.6572 0.0967365 23.7397C0.0625574 23.8222 0.0449657 23.9106 0.0449657 23.9999C0.0449657 24.0892 0.0625574 24.1777 0.0967365 24.2602C0.130916 24.3427 0.181013 24.4176 0.244166 24.4808L4.73697 28.9736C4.86449 29.1011 5.03745 29.1728 5.2178 29.1728C5.39815 29.1728 5.57112 29.1012 5.69865 28.9736C5.82619 28.8461 5.89784 28.6732 5.89785 28.4928C5.89786 28.3124 5.82623 28.1395 5.69871 28.0119ZM43.3529 28.9737C43.2253 29.1012 43.0524 29.1729 42.872 29.1729C42.6916 29.1729 42.5187 29.1012 42.3911 28.9737C42.2636 28.8462 42.192 28.6732 42.192 28.4928C42.192 28.3125 42.2636 28.1395 42.3911 28.0119L46.3344 24.0687C46.3526 24.0504 46.3628 24.0257 46.3628 24C46.3628 23.9742 46.3526 23.9495 46.3344 23.9313L42.3911 19.988C42.328 19.9248 42.2779 19.8499 42.2437 19.7674C42.2095 19.6848 42.192 19.5964 42.192 19.5071C42.192 19.4178 42.2095 19.3294 42.2437 19.2469C42.2779 19.1644 42.328 19.0894 42.3911 19.0262C42.4543 18.9631 42.5293 18.913 42.6118 18.8788C42.6943 18.8446 42.7827 18.8271 42.872 18.8271C42.9613 18.8271 43.0497 18.8446 43.1323 18.8788C43.2148 18.913 43.2897 18.9631 43.3529 19.0262L47.8457 23.519C47.9088 23.5822 47.9589 23.6572 47.9931 23.7397C48.0273 23.8222 48.0449 23.9106 48.0449 23.9999C48.0449 24.0892 48.0273 24.1777 47.9931 24.2602C47.9589 24.3427 47.9088 24.4176 47.8457 24.4808L43.3529 28.9737Z" fill="#BC010A"/>
</g>
<g style="mix-blend-mode:plus-lighter" filter="url(#filter2_df_653_2938)">
<path fill-rule="evenodd" clip-rule="evenodd" d="M0.725036 39.8702C0.544659 39.8702 0.371669 39.7985 0.244123 39.671C0.116577 39.5434 0.0449219 39.3705 0.0449219 39.1901C0.0449219 39.0097 0.116577 38.8367 0.244123 38.7092C0.371669 38.5816 0.544659 38.51 0.725036 38.51H8.07759C8.10335 38.5099 8.12805 38.4997 8.14626 38.4815C8.16447 38.4633 8.17472 38.4386 8.17475 38.4128V12.6609C8.17475 12.5716 8.19234 12.4831 8.22652 12.4006C8.2607 12.3181 8.31079 12.2431 8.37395 12.18C8.4371 12.1168 8.51208 12.0667 8.59459 12.0326C8.67711 11.9984 8.76555 11.9808 8.85486 11.9808C8.94418 11.9808 9.03261 11.9984 9.11513 12.0326C9.19765 12.0667 9.27262 12.1168 9.33578 12.18C9.39893 12.2431 9.44903 12.3181 9.48321 12.4006C9.51738 12.4831 9.53498 12.5716 9.53498 12.6609V38.4128C9.53498 38.4664 9.57858 38.51 9.63214 38.51H35.384C35.5644 38.51 35.7374 38.5816 35.865 38.7092C35.9925 38.8367 36.0642 39.0097 36.0642 39.1901C36.0642 39.3705 35.9925 39.5434 35.865 39.671C35.7374 39.7985 35.5644 39.8702 35.384 39.8702H9.63214C9.60638 39.8702 9.58168 39.8805 9.56346 39.8987C9.54525 39.9169 9.535 39.9416 9.53498 39.9674V47.3199C9.53498 47.4092 9.51738 47.4977 9.48321 47.5802C9.44903 47.6627 9.39893 47.7377 9.33578 47.8008C9.27262 47.864 9.19765 47.9141 9.11513 47.9482C9.03261 47.9824 8.94418 48 8.85486 48C8.76555 48 8.67711 47.9824 8.59459 47.9482C8.51208 47.9141 8.4371 47.864 8.37395 47.8008C8.31079 47.7377 8.2607 47.6627 8.22652 47.5802C8.19234 47.4977 8.17475 47.4092 8.17475 47.3199V39.9674C8.17472 39.9416 8.16447 39.9169 8.14626 39.8987C8.12805 39.8805 8.10335 39.8702 8.07759 39.8702H0.725036ZM14.2893 12.9337C13.6874 12.9337 13.1925 13.4284 13.1925 14.0305V33.9696C13.1925 34.5715 13.6872 35.0663 14.2893 35.0663H21.3918C21.9937 35.0663 22.4885 34.5716 22.4885 33.9696V14.0305C22.4885 13.4285 21.9938 12.9337 21.3918 12.9337H14.2893ZM26.698 25.7704C26.0933 25.7704 25.6013 26.2624 25.6013 26.8671V33.9696C25.6013 34.5715 26.096 35.0663 26.698 35.0663H33.8005C34.4024 35.0663 34.8972 34.5716 34.8972 33.9696V26.8671C34.8972 26.2652 34.4025 25.7704 33.8005 25.7704H26.698ZM26.698 12.9337C26.0961 12.9337 25.6013 13.4284 25.6013 14.0305V21.1329C25.6013 21.7344 26.0964 22.2297 26.698 22.2297H33.8005C34.4052 22.2297 34.8972 21.7377 34.8972 21.1329V14.0305C34.8972 13.4285 34.4025 12.9337 33.8005 12.9337H26.698ZM38.5549 0.68013V8.03268C38.5548 8.05844 38.5446 8.08314 38.5264 8.10135C38.5082 8.11957 38.4835 8.12981 38.4577 8.12984H12.7058C12.6165 8.12984 12.5281 8.14743 12.4455 8.18161C12.363 8.21579 12.288 8.26589 12.2249 8.32904C12.1617 8.3922 12.1116 8.46717 12.0775 8.54969C12.0433 8.6322 12.0257 8.72064 12.0257 8.80996C12.0257 8.89927 12.0433 8.98771 12.0775 9.07022C12.1116 9.15274 12.1617 9.22771 12.2249 9.29087C12.288 9.35402 12.363 9.40412 12.4455 9.4383C12.5281 9.47248 12.6165 9.49007 12.7058 9.49007H38.4577C38.5113 9.49007 38.5549 9.53367 38.5549 9.58723V35.3391C38.5549 35.5195 38.6265 35.6925 38.7541 35.8201C38.8816 35.9476 39.0546 36.0193 39.235 36.0193C39.4154 36.0193 39.5884 35.9476 39.7159 35.8201C39.8434 35.6925 39.9151 35.5195 39.9151 35.3391V9.58723C39.9151 9.53367 39.9587 9.49007 40.0123 9.49007H47.3648C47.4541 9.49007 47.5426 9.47248 47.6251 9.4383C47.7076 9.40412 47.7826 9.35402 47.8457 9.29087C47.9089 9.22771 47.959 9.15274 47.9932 9.07022C48.0273 8.98771 48.0449 8.89927 48.0449 8.80996C48.0449 8.72064 48.0273 8.6322 47.9932 8.54969C47.959 8.46717 47.9089 8.3922 47.8457 8.32904C47.7826 8.26589 47.7076 8.21579 47.6251 8.18161C47.5426 8.14743 47.4541 8.12984 47.3648 8.12984H40.0123C39.9865 8.12981 39.9618 8.11957 39.9436 8.10135C39.9254 8.08314 39.9151 8.05844 39.9151 8.03268V0.68013C39.9151 0.499752 39.8434 0.326762 39.7159 0.199216C39.5884 0.0716701 39.4154 1.52588e-05 39.235 1.52588e-05C39.0546 1.52588e-05 38.8816 0.0716701 38.7541 0.199216C38.6265 0.326762 38.5549 0.499752 38.5549 0.68013ZM5.69871 28.0119L1.75543 24.0687C1.73726 24.0504 1.72705 24.0257 1.72705 24C1.72705 23.9742 1.73726 23.9495 1.75543 23.9313L5.69871 19.988C5.76186 19.9248 5.81195 19.8499 5.84612 19.7674C5.8803 19.6848 5.89789 19.5964 5.89789 19.5071C5.89789 19.4178 5.8803 19.3294 5.84612 19.2469C5.81195 19.1644 5.76186 19.0894 5.69871 19.0262C5.63556 18.9631 5.56059 18.913 5.47808 18.8788C5.39557 18.8446 5.30714 18.8271 5.21784 18.8271C5.12853 18.8271 5.0401 18.8446 4.95759 18.8788C4.87508 18.913 4.80012 18.9631 4.73697 19.0262L0.244166 23.519C0.181013 23.5822 0.130916 23.6572 0.0967365 23.7397C0.0625574 23.8222 0.0449657 23.9106 0.0449657 23.9999C0.0449657 24.0892 0.0625574 24.1777 0.0967365 24.2602C0.130916 24.3427 0.181013 24.4176 0.244166 24.4808L4.73697 28.9736C4.86449 29.1011 5.03745 29.1728 5.2178 29.1728C5.39815 29.1728 5.57112 29.1012 5.69865 28.9736C5.82619 28.8461 5.89784 28.6732 5.89785 28.4928C5.89786 28.3124 5.82623 28.1395 5.69871 28.0119ZM43.3529 28.9737C43.2253 29.1012 43.0524 29.1729 42.872 29.1729C42.6916 29.1729 42.5187 29.1012 42.3911 28.9737C42.2636 28.8462 42.192 28.6732 42.192 28.4928C42.192 28.3125 42.2636 28.1395 42.3911 28.0119L46.3344 24.0687C46.3526 24.0504 46.3628 24.0257 46.3628 24C46.3628 23.9742 46.3526 23.9495 46.3344 23.9313L42.3911 19.988C42.328 19.9248 42.2779 19.8499 42.2437 19.7674C42.2095 19.6848 42.192 19.5964 42.192 19.5071C42.192 19.4178 42.2095 19.3294 42.2437 19.2469C42.2779 19.1644 42.328 19.0894 42.3911 19.0262C42.4543 18.9631 42.5293 18.913 42.6118 18.8788C42.6943 18.8446 42.7827 18.8271 42.872 18.8271C42.9613 18.8271 43.0497 18.8446 43.1323 18.8788C43.2148 18.913 43.2897 18.9631 43.3529 19.0262L47.8457 23.519C47.9088 23.5822 47.9589 23.6572 47.9931 23.7397C48.0273 23.8222 48.0449 23.9106 48.0449 23.9999C48.0449 24.0892 48.0273 24.1777 47.9931 24.2602C47.9589 24.3427 47.9088 24.4176 47.8457 24.4808L43.3529 28.9737Z" fill="#CC1A70"/>
</g>
</g>
<defs>
<filter id="filter0_df_653_2938" x="-9.0532" y="-9.0981" width="66.1962" height="66.1962" filterUnits="userSpaceOnUse" color-interpolation-filters="sRGB">
<feFlood flood-opacity="0" result="BackgroundImageFix"/>
<feColorMatrix in="SourceAlpha" type="matrix" values="0 0 0 0 0 0 0 0 0 0 0 0 0 0 0 0 0 0 127 0" result="hardAlpha"/>
<feOffset/>
<feGaussianBlur stdDeviation="4.54906"/>
<feComposite in2="hardAlpha" operator="out"/>
<feColorMatrix type="matrix" values="0 0 0 0 1 0 0 0 0 0.996078 0 0 0 0 0.0117647 0 0 0 0.25 0"/>
<feBlend mode="normal" in2="BackgroundImageFix" result="effect1_dropShadow_653_2938"/>
<feBlend mode="normal" in="SourceGraphic" in2="effect1_dropShadow_653_2938" result="shape"/>
<feGaussianBlur stdDeviation="0.511769" result="effect2_foregroundBlur_653_2938"/>
</filter>
<filter id="filter1_df_653_2938" x="-9.0532" y="-9.0981" width="66.1962" height="66.1962" filterUnits="userSpaceOnUse" color-interpolation-filters="sRGB">
<feFlood flood-opacity="0" result="BackgroundImageFix"/>
<feColorMatrix in="SourceAlpha" type="matrix" values="0 0 0 0 0 0 0 0 0 0 0 0 0 0 0 0 0 0 127 0" result="hardAlpha"/>
<feOffset/>
<feGaussianBlur stdDeviation="4.54906"/>
<feComposite in2="hardAlpha" operator="out"/>
<feColorMatrix type="matrix" values="0 0 0 0 0.847059 0 0 0 0 0.0196078 0 0 0 0 0.156863 0 0 0 0.25 0"/>
<feBlend mode="normal" in2="BackgroundImageFix" result="effect1_dropShadow_653_2938"/>
<feBlend mode="normal" in="SourceGraphic" in2="effect1_dropShadow_653_2938" result="shape"/>
<feGaussianBlur stdDeviation="0.511769" result="effect2_foregroundBlur_653_2938"/>
</filter>
<filter id="filter2_df_653_2938" x="-9.0532" y="-9.0981" width="66.1962" height="66.1962" filterUnits="userSpaceOnUse" color-interpolation-filters="sRGB">
<feFlood flood-opacity="0" result="BackgroundImageFix"/>
<feColorMatrix in="SourceAlpha" type="matrix" values="0 0 0 0 0 0 0 0 0 0 0 0 0 0 0 0 0 0 127 0" result="hardAlpha"/>
<feOffset/>
<feGaussianBlur stdDeviation="4.54906"/>
<feComposite in2="hardAlpha" operator="out"/>
<feColorMatrix type="matrix" values="0 0 0 0 0.894118 0 0 0 0 0.141176 0 0 0 0 0.466667 0 0 0 0.25 0"/>
<feBlend mode="normal" in2="BackgroundImageFix" result="effect1_dropShadow_653_2938"/>
<feBlend mode="normal" in="SourceGraphic" in2="effect1_dropShadow_653_2938" result="shape"/>
<feGaussianBlur stdDeviation="0.511769" result="effect2_foregroundBlur_653_2938"/>
</filter>
<clipPath id="clip0_653_2938">
<rect width="48" height="48" fill="white"/>
</clipPath>
</defs>
</svg>
