<svg width="66" height="57" viewBox="0 0 66 57" fill="none" xmlns="http://www.w3.org/2000/svg">
<g style="mix-blend-mode:plus-lighter" filter="url(#filter0_df_662_3143)">
<path fill-rule="evenodd" clip-rule="evenodd" d="M17.4947 25.0404L17.4964 31.8188C17.4962 31.9378 17.4702 32.0554 17.4203 32.1634C17.3704 32.2715 17.2977 32.3674 17.2072 32.4447C16.4531 33.0854 15.5939 33.4107 14.7232 33.4107C13.6406 33.4107 12.6286 32.9146 11.817 32.0373C10.7294 30.8626 10 28.975 10 26.8393C10 24.7036 10.7294 22.8159 11.817 21.6413C12.6286 20.764 13.6406 20.2679 14.7232 20.2679C15.4379 20.2679 16.1459 20.488 16.7932 20.9217C19.2099 14.3125 25.5579 9.58929 33 9.58929C40.4421 9.58929 46.7901 14.3125 49.2068 20.9217C49.8159 20.5017 50.5369 20.2739 51.2768 20.2679C52.3594 20.2679 53.3714 20.764 54.183 21.6413C55.2706 22.8159 56 24.7036 56 26.8393C56 28.975 55.2706 30.8626 54.183 32.0373C53.3714 32.9146 52.3594 33.4107 51.2768 33.4107C50.5621 33.4107 49.8541 33.1906 49.2068 32.7569C46.9117 39.0309 41.0779 43.603 34.127 44.0531C34.1533 44.201 34.1681 44.3505 34.1681 44.5C34.1681 45.2656 33.8231 45.9835 33.2021 46.5585C32.4135 47.2879 31.1485 47.7857 29.7143 47.7857C28.2801 47.7857 27.0151 47.2879 26.2265 46.5585C25.6055 45.9835 25.2605 45.2656 25.2605 44.5C25.2605 43.8823 25.4889 43.2711 25.9439 42.7356C26.021 42.6448 26.1169 42.5719 26.225 42.522C26.3331 42.4721 26.4508 42.4463 26.5699 42.4464H32.8587C32.8823 42.4467 32.9059 42.4478 32.9294 42.4497C32.9529 42.4478 32.9764 42.4467 33 42.4464C41.0056 42.4464 47.6116 36.4056 48.5053 28.6382V25.0404C47.6116 17.2729 41.0056 11.2321 33 11.2321C24.9944 11.2321 18.3884 17.2729 17.4947 25.0404ZM30.4437 38.0534C30.124 38.1645 29.8103 38.2923 29.504 38.4362C28.0534 39.1525 26.054 40.4471 26.054 40.4471C25.9129 40.5385 25.7472 40.5845 25.5792 40.5788C25.4111 40.5731 25.2489 40.5159 25.1144 40.4151C24.9799 40.3143 24.8795 40.1746 24.8269 40.0149C24.7743 39.8552 24.772 39.6832 24.8202 39.5221C24.8202 39.5221 25.4051 37.5836 25.5349 36.2381C25.5498 36.0204 25.5498 35.8019 25.5349 35.5842C24.2688 34.5061 23.2522 33.1656 22.5555 31.6556C21.8588 30.1456 21.4986 28.5022 21.5 26.8393C21.5 20.4929 26.6536 15.3393 33 15.3393C39.3464 15.3393 44.5 20.4929 44.5 26.8393C44.499 28.5665 44.1093 30.2713 43.3596 31.8273C42.6099 33.3832 41.5196 34.7505 40.1695 35.8277C38.8193 36.9048 37.244 37.6642 35.5604 38.0495C33.8767 38.4348 32.128 38.4362 30.4437 38.0534ZM33 24.375C32.6763 24.3751 32.3557 24.439 32.0567 24.563C31.7577 24.6869 31.486 24.8686 31.2571 25.0976C31.0283 25.3266 30.8468 25.5984 30.723 25.8975C30.5993 26.1966 30.5356 26.5172 30.5357 26.8409C30.5358 27.1647 30.5997 27.4852 30.7237 27.7842C30.8477 28.0833 31.0293 28.355 31.2583 28.5838C31.4873 28.8126 31.7591 28.9941 32.0582 29.1179C32.3573 29.2417 32.6779 29.3053 33.0016 29.3052C33.6554 29.305 34.2824 29.0451 34.7445 28.5826C35.2066 28.1202 35.4661 27.4931 35.4659 26.8393C35.4657 26.1855 35.2058 25.5586 34.7433 25.0964C34.2809 24.6343 33.6538 24.3748 33 24.375ZM33 26.0179C33.2179 26.0179 33.4268 26.1044 33.5808 26.2584C33.7349 26.4125 33.8214 26.6214 33.8214 26.8393C33.8214 27.0571 33.7349 27.2661 33.5808 27.4201C33.4268 27.5742 33.2179 27.6607 33 27.6607C32.7821 27.6607 32.5732 27.5742 32.4192 27.4201C32.2651 27.2661 32.1786 27.0571 32.1786 26.8393C32.1786 26.6214 32.2651 26.4125 32.4192 26.2584C32.5732 26.1044 32.7821 26.0179 33 26.0179ZM38.75 24.375C38.4263 24.3751 38.1057 24.439 37.8067 24.563C37.5077 24.6869 37.236 24.8686 37.0071 25.0976C36.7783 25.3266 36.5968 25.5984 36.473 25.8975C36.3493 26.1966 36.2856 26.5172 36.2857 26.8409C36.2858 27.1647 36.3497 27.4852 36.4737 27.7842C36.5977 28.0833 36.7793 28.355 37.0083 28.5838C37.2373 28.8126 37.5091 28.9941 37.8082 29.1179C38.1073 29.2417 38.4279 29.3053 38.7516 29.3052C39.4054 29.305 40.0324 29.0451 40.4945 28.5826C40.9566 28.1202 41.2161 27.4931 41.2159 26.8393C41.2157 26.1855 40.9558 25.5586 40.4933 25.0964C40.0309 24.6343 39.4038 24.3748 38.75 24.375ZM38.75 26.0179C38.9679 26.0179 39.1768 26.1044 39.3308 26.2584C39.4849 26.4125 39.5714 26.6214 39.5714 26.8393C39.5714 27.0571 39.4849 27.2661 39.3308 27.4201C39.1768 27.5742 38.9679 27.6607 38.75 27.6607C38.5321 27.6607 38.3232 27.5742 38.1692 27.4201C38.0151 27.2661 37.9286 27.0571 37.9286 26.8393C37.9286 26.6214 38.0151 26.4125 38.1692 26.2584C38.3232 26.1044 38.5321 26.0179 38.75 26.0179ZM27.25 24.375C26.9263 24.3751 26.6057 24.439 26.3067 24.563C26.0077 24.6869 25.736 24.8686 25.5071 25.0976C25.2783 25.3266 25.0968 25.5984 24.973 25.8975C24.8493 26.1966 24.7856 26.5172 24.7857 26.8409C24.7858 27.1647 24.8497 27.4852 24.9737 27.7842C25.0977 28.0833 25.2793 28.355 25.5083 28.5838C25.7373 28.8126 26.0091 28.9941 26.3082 29.1179C26.6073 29.2417 26.9279 29.3053 27.2516 29.3052C27.9054 29.305 28.5324 29.0451 28.9945 28.5826C29.4566 28.1202 29.7161 27.4931 29.7159 26.8393C29.7157 26.1855 29.4558 25.5586 28.9933 25.0964C28.5309 24.6343 27.9038 24.3748 27.25 24.375ZM27.25 26.0179C27.4679 26.0179 27.6768 26.1044 27.8308 26.2584C27.9849 26.4125 28.0714 26.6214 28.0714 26.8393C28.0714 27.0571 27.9849 27.2661 27.8308 27.4201C27.6768 27.5742 27.4679 27.6607 27.25 27.6607C27.0321 27.6607 26.8232 27.5742 26.6692 27.4201C26.5151 27.2661 26.4286 27.0571 26.4286 26.8393C26.4286 26.6214 26.5151 26.4125 26.6692 26.2584C26.8232 26.1044 27.0321 26.0179 27.25 26.0179Z" fill="#FFE600"/>
</g>
<g style="mix-blend-mode:plus-lighter" filter="url(#filter1_df_662_3143)">
<path fill-rule="evenodd" clip-rule="evenodd" d="M17.4947 25.0404L17.4964 31.8188C17.4962 31.9378 17.4702 32.0554 17.4203 32.1634C17.3704 32.2715 17.2977 32.3674 17.2072 32.4447C16.4531 33.0854 15.5939 33.4107 14.7232 33.4107C13.6406 33.4107 12.6286 32.9146 11.817 32.0373C10.7294 30.8626 10 28.975 10 26.8393C10 24.7036 10.7294 22.8159 11.817 21.6413C12.6286 20.764 13.6406 20.2679 14.7232 20.2679C15.4379 20.2679 16.1459 20.488 16.7932 20.9217C19.2099 14.3125 25.5579 9.58929 33 9.58929C40.4421 9.58929 46.7901 14.3125 49.2068 20.9217C49.8159 20.5017 50.5369 20.2739 51.2768 20.2679C52.3594 20.2679 53.3714 20.764 54.183 21.6413C55.2706 22.8159 56 24.7036 56 26.8393C56 28.975 55.2706 30.8626 54.183 32.0373C53.3714 32.9146 52.3594 33.4107 51.2768 33.4107C50.5621 33.4107 49.8541 33.1906 49.2068 32.7569C46.9117 39.0309 41.0779 43.603 34.127 44.0531C34.1533 44.201 34.1681 44.3505 34.1681 44.5C34.1681 45.2656 33.8231 45.9835 33.2021 46.5585C32.4135 47.2879 31.1485 47.7857 29.7143 47.7857C28.2801 47.7857 27.0151 47.2879 26.2265 46.5585C25.6055 45.9835 25.2605 45.2656 25.2605 44.5C25.2605 43.8823 25.4889 43.2711 25.9439 42.7356C26.021 42.6448 26.1169 42.5719 26.225 42.522C26.3331 42.4721 26.4508 42.4463 26.5699 42.4464H32.8587C32.8823 42.4467 32.9059 42.4478 32.9294 42.4497C32.9529 42.4478 32.9764 42.4467 33 42.4464C41.0056 42.4464 47.6116 36.4056 48.5053 28.6382V25.0404C47.6116 17.2729 41.0056 11.2321 33 11.2321C24.9944 11.2321 18.3884 17.2729 17.4947 25.0404ZM30.4437 38.0534C30.124 38.1645 29.8103 38.2923 29.504 38.4362C28.0534 39.1525 26.054 40.4471 26.054 40.4471C25.9129 40.5385 25.7472 40.5845 25.5792 40.5788C25.4111 40.5731 25.2489 40.5159 25.1144 40.4151C24.9799 40.3143 24.8795 40.1746 24.8269 40.0149C24.7743 39.8552 24.772 39.6832 24.8202 39.5221C24.8202 39.5221 25.4051 37.5836 25.5349 36.2381C25.5498 36.0204 25.5498 35.8019 25.5349 35.5842C24.2688 34.5061 23.2522 33.1656 22.5555 31.6556C21.8588 30.1456 21.4986 28.5022 21.5 26.8393C21.5 20.4929 26.6536 15.3393 33 15.3393C39.3464 15.3393 44.5 20.4929 44.5 26.8393C44.499 28.5665 44.1093 30.2713 43.3596 31.8273C42.6099 33.3832 41.5196 34.7505 40.1695 35.8277C38.8193 36.9048 37.244 37.6642 35.5604 38.0495C33.8767 38.4348 32.128 38.4362 30.4437 38.0534ZM33 24.375C32.6763 24.3751 32.3557 24.439 32.0567 24.563C31.7577 24.6869 31.486 24.8686 31.2571 25.0976C31.0283 25.3266 30.8468 25.5984 30.723 25.8975C30.5993 26.1966 30.5356 26.5172 30.5357 26.8409C30.5358 27.1647 30.5997 27.4852 30.7237 27.7842C30.8477 28.0833 31.0293 28.355 31.2583 28.5838C31.4873 28.8126 31.7591 28.9941 32.0582 29.1179C32.3573 29.2417 32.6779 29.3053 33.0016 29.3052C33.6554 29.305 34.2824 29.0451 34.7445 28.5826C35.2066 28.1202 35.4661 27.4931 35.4659 26.8393C35.4657 26.1855 35.2058 25.5586 34.7433 25.0964C34.2809 24.6343 33.6538 24.3748 33 24.375ZM33 26.0179C33.2179 26.0179 33.4268 26.1044 33.5808 26.2584C33.7349 26.4125 33.8214 26.6214 33.8214 26.8393C33.8214 27.0571 33.7349 27.2661 33.5808 27.4201C33.4268 27.5742 33.2179 27.6607 33 27.6607C32.7821 27.6607 32.5732 27.5742 32.4192 27.4201C32.2651 27.2661 32.1786 27.0571 32.1786 26.8393C32.1786 26.6214 32.2651 26.4125 32.4192 26.2584C32.5732 26.1044 32.7821 26.0179 33 26.0179ZM38.75 24.375C38.4263 24.3751 38.1057 24.439 37.8067 24.563C37.5077 24.6869 37.236 24.8686 37.0071 25.0976C36.7783 25.3266 36.5968 25.5984 36.473 25.8975C36.3493 26.1966 36.2856 26.5172 36.2857 26.8409C36.2858 27.1647 36.3497 27.4852 36.4737 27.7842C36.5977 28.0833 36.7793 28.355 37.0083 28.5838C37.2373 28.8126 37.5091 28.9941 37.8082 29.1179C38.1073 29.2417 38.4279 29.3053 38.7516 29.3052C39.4054 29.305 40.0324 29.0451 40.4945 28.5826C40.9566 28.1202 41.2161 27.4931 41.2159 26.8393C41.2157 26.1855 40.9558 25.5586 40.4933 25.0964C40.0309 24.6343 39.4038 24.3748 38.75 24.375ZM38.75 26.0179C38.9679 26.0179 39.1768 26.1044 39.3308 26.2584C39.4849 26.4125 39.5714 26.6214 39.5714 26.8393C39.5714 27.0571 39.4849 27.2661 39.3308 27.4201C39.1768 27.5742 38.9679 27.6607 38.75 27.6607C38.5321 27.6607 38.3232 27.5742 38.1692 27.4201C38.0151 27.2661 37.9286 27.0571 37.9286 26.8393C37.9286 26.6214 38.0151 26.4125 38.1692 26.2584C38.3232 26.1044 38.5321 26.0179 38.75 26.0179ZM27.25 24.375C26.9263 24.3751 26.6057 24.439 26.3067 24.563C26.0077 24.6869 25.736 24.8686 25.5071 25.0976C25.2783 25.3266 25.0968 25.5984 24.973 25.8975C24.8493 26.1966 24.7856 26.5172 24.7857 26.8409C24.7858 27.1647 24.8497 27.4852 24.9737 27.7842C25.0977 28.0833 25.2793 28.355 25.5083 28.5838C25.7373 28.8126 26.0091 28.9941 26.3082 29.1179C26.6073 29.2417 26.9279 29.3053 27.2516 29.3052C27.9054 29.305 28.5324 29.0451 28.9945 28.5826C29.4566 28.1202 29.7161 27.4931 29.7159 26.8393C29.7157 26.1855 29.4558 25.5586 28.9933 25.0964C28.5309 24.6343 27.9038 24.3748 27.25 24.375ZM27.25 26.0179C27.4679 26.0179 27.6768 26.1044 27.8308 26.2584C27.9849 26.4125 28.0714 26.6214 28.0714 26.8393C28.0714 27.0571 27.9849 27.2661 27.8308 27.4201C27.6768 27.5742 27.4679 27.6607 27.25 27.6607C27.0321 27.6607 26.8232 27.5742 26.6692 27.4201C26.5151 27.2661 26.4286 27.0571 26.4286 26.8393C26.4286 26.6214 26.5151 26.4125 26.6692 26.2584C26.8232 26.1044 27.0321 26.0179 27.25 26.0179Z" fill="#BC010A"/>
</g>
<g style="mix-blend-mode:plus-lighter" filter="url(#filter2_df_662_3143)">
<path fill-rule="evenodd" clip-rule="evenodd" d="M17.4947 25.0404L17.4964 31.8188C17.4962 31.9378 17.4702 32.0554 17.4203 32.1634C17.3704 32.2715 17.2977 32.3674 17.2072 32.4447C16.4531 33.0854 15.5939 33.4107 14.7232 33.4107C13.6406 33.4107 12.6286 32.9146 11.817 32.0373C10.7294 30.8626 10 28.975 10 26.8393C10 24.7036 10.7294 22.8159 11.817 21.6413C12.6286 20.764 13.6406 20.2679 14.7232 20.2679C15.4379 20.2679 16.1459 20.488 16.7932 20.9217C19.2099 14.3125 25.5579 9.58929 33 9.58929C40.4421 9.58929 46.7901 14.3125 49.2068 20.9217C49.8159 20.5017 50.5369 20.2739 51.2768 20.2679C52.3594 20.2679 53.3714 20.764 54.183 21.6413C55.2706 22.8159 56 24.7036 56 26.8393C56 28.975 55.2706 30.8626 54.183 32.0373C53.3714 32.9146 52.3594 33.4107 51.2768 33.4107C50.5621 33.4107 49.8541 33.1906 49.2068 32.7569C46.9117 39.0309 41.0779 43.603 34.127 44.0531C34.1533 44.201 34.1681 44.3505 34.1681 44.5C34.1681 45.2656 33.8231 45.9835 33.2021 46.5585C32.4135 47.2879 31.1485 47.7857 29.7143 47.7857C28.2801 47.7857 27.0151 47.2879 26.2265 46.5585C25.6055 45.9835 25.2605 45.2656 25.2605 44.5C25.2605 43.8823 25.4889 43.2711 25.9439 42.7356C26.021 42.6448 26.1169 42.5719 26.225 42.522C26.3331 42.4721 26.4508 42.4463 26.5699 42.4464H32.8587C32.8823 42.4467 32.9059 42.4478 32.9294 42.4497C32.9529 42.4478 32.9764 42.4467 33 42.4464C41.0056 42.4464 47.6116 36.4056 48.5053 28.6382V25.0404C47.6116 17.2729 41.0056 11.2321 33 11.2321C24.9944 11.2321 18.3884 17.2729 17.4947 25.0404ZM30.4437 38.0534C30.124 38.1645 29.8103 38.2923 29.504 38.4362C28.0534 39.1525 26.054 40.4471 26.054 40.4471C25.9129 40.5385 25.7472 40.5845 25.5792 40.5788C25.4111 40.5731 25.2489 40.5159 25.1144 40.4151C24.9799 40.3143 24.8795 40.1746 24.8269 40.0149C24.7743 39.8552 24.772 39.6832 24.8202 39.5221C24.8202 39.5221 25.4051 37.5836 25.5349 36.2381C25.5498 36.0204 25.5498 35.8019 25.5349 35.5842C24.2688 34.5061 23.2522 33.1656 22.5555 31.6556C21.8588 30.1456 21.4986 28.5022 21.5 26.8393C21.5 20.4929 26.6536 15.3393 33 15.3393C39.3464 15.3393 44.5 20.4929 44.5 26.8393C44.499 28.5665 44.1093 30.2713 43.3596 31.8273C42.6099 33.3832 41.5196 34.7505 40.1695 35.8277C38.8193 36.9048 37.244 37.6642 35.5604 38.0495C33.8767 38.4348 32.128 38.4362 30.4437 38.0534ZM33 24.375C32.6763 24.3751 32.3557 24.439 32.0567 24.563C31.7577 24.6869 31.486 24.8686 31.2571 25.0976C31.0283 25.3266 30.8468 25.5984 30.723 25.8975C30.5993 26.1966 30.5356 26.5172 30.5357 26.8409C30.5358 27.1647 30.5997 27.4852 30.7237 27.7842C30.8477 28.0833 31.0293 28.355 31.2583 28.5838C31.4873 28.8126 31.7591 28.9941 32.0582 29.1179C32.3573 29.2417 32.6779 29.3053 33.0016 29.3052C33.6554 29.305 34.2824 29.0451 34.7445 28.5826C35.2066 28.1202 35.4661 27.4931 35.4659 26.8393C35.4657 26.1855 35.2058 25.5586 34.7433 25.0964C34.2809 24.6343 33.6538 24.3748 33 24.375ZM33 26.0179C33.2179 26.0179 33.4268 26.1044 33.5808 26.2584C33.7349 26.4125 33.8214 26.6214 33.8214 26.8393C33.8214 27.0571 33.7349 27.2661 33.5808 27.4201C33.4268 27.5742 33.2179 27.6607 33 27.6607C32.7821 27.6607 32.5732 27.5742 32.4192 27.4201C32.2651 27.2661 32.1786 27.0571 32.1786 26.8393C32.1786 26.6214 32.2651 26.4125 32.4192 26.2584C32.5732 26.1044 32.7821 26.0179 33 26.0179ZM38.75 24.375C38.4263 24.3751 38.1057 24.439 37.8067 24.563C37.5077 24.6869 37.236 24.8686 37.0071 25.0976C36.7783 25.3266 36.5968 25.5984 36.473 25.8975C36.3493 26.1966 36.2856 26.5172 36.2857 26.8409C36.2858 27.1647 36.3497 27.4852 36.4737 27.7842C36.5977 28.0833 36.7793 28.355 37.0083 28.5838C37.2373 28.8126 37.5091 28.9941 37.8082 29.1179C38.1073 29.2417 38.4279 29.3053 38.7516 29.3052C39.4054 29.305 40.0324 29.0451 40.4945 28.5826C40.9566 28.1202 41.2161 27.4931 41.2159 26.8393C41.2157 26.1855 40.9558 25.5586 40.4933 25.0964C40.0309 24.6343 39.4038 24.3748 38.75 24.375ZM38.75 26.0179C38.9679 26.0179 39.1768 26.1044 39.3308 26.2584C39.4849 26.4125 39.5714 26.6214 39.5714 26.8393C39.5714 27.0571 39.4849 27.2661 39.3308 27.4201C39.1768 27.5742 38.9679 27.6607 38.75 27.6607C38.5321 27.6607 38.3232 27.5742 38.1692 27.4201C38.0151 27.2661 37.9286 27.0571 37.9286 26.8393C37.9286 26.6214 38.0151 26.4125 38.1692 26.2584C38.3232 26.1044 38.5321 26.0179 38.75 26.0179ZM27.25 24.375C26.9263 24.3751 26.6057 24.439 26.3067 24.563C26.0077 24.6869 25.736 24.8686 25.5071 25.0976C25.2783 25.3266 25.0968 25.5984 24.973 25.8975C24.8493 26.1966 24.7856 26.5172 24.7857 26.8409C24.7858 27.1647 24.8497 27.4852 24.9737 27.7842C25.0977 28.0833 25.2793 28.355 25.5083 28.5838C25.7373 28.8126 26.0091 28.9941 26.3082 29.1179C26.6073 29.2417 26.9279 29.3053 27.2516 29.3052C27.9054 29.305 28.5324 29.0451 28.9945 28.5826C29.4566 28.1202 29.7161 27.4931 29.7159 26.8393C29.7157 26.1855 29.4558 25.5586 28.9933 25.0964C28.5309 24.6343 27.9038 24.3748 27.25 24.375ZM27.25 26.0179C27.4679 26.0179 27.6768 26.1044 27.8308 26.2584C27.9849 26.4125 28.0714 26.6214 28.0714 26.8393C28.0714 27.0571 27.9849 27.2661 27.8308 27.4201C27.6768 27.5742 27.4679 27.6607 27.25 27.6607C27.0321 27.6607 26.8232 27.5742 26.6692 27.4201C26.5151 27.2661 26.4286 27.0571 26.4286 26.8393C26.4286 26.6214 26.5151 26.4125 26.6692 26.2584C26.8232 26.1044 27.0321 26.0179 27.25 26.0179Z" fill="#CC1A70"/>
</g>
<defs>
<filter id="filter0_df_662_3143" x="0.873017" y="0.462304" width="64.254" height="56.4504" filterUnits="userSpaceOnUse" color-interpolation-filters="sRGB">
<feFlood flood-opacity="0" result="BackgroundImageFix"/>
<feColorMatrix in="SourceAlpha" type="matrix" values="0 0 0 0 0 0 0 0 0 0 0 0 0 0 0 0 0 0 127 0" result="hardAlpha"/>
<feOffset/>
<feGaussianBlur stdDeviation="4.56349"/>
<feComposite in2="hardAlpha" operator="out"/>
<feColorMatrix type="matrix" values="0 0 0 0 1 0 0 0 0 0.996078 0 0 0 0 0.0117647 0 0 0 0.25 0"/>
<feBlend mode="normal" in2="BackgroundImageFix" result="effect1_dropShadow_662_3143"/>
<feBlend mode="normal" in="SourceGraphic" in2="effect1_dropShadow_662_3143" result="shape"/>
<feGaussianBlur stdDeviation="0.513393" result="effect2_foregroundBlur_662_3143"/>
</filter>
<filter id="filter1_df_662_3143" x="0.873017" y="0.462304" width="64.254" height="56.4504" filterUnits="userSpaceOnUse" color-interpolation-filters="sRGB">
<feFlood flood-opacity="0" result="BackgroundImageFix"/>
<feColorMatrix in="SourceAlpha" type="matrix" values="0 0 0 0 0 0 0 0 0 0 0 0 0 0 0 0 0 0 127 0" result="hardAlpha"/>
<feOffset/>
<feGaussianBlur stdDeviation="4.56349"/>
<feComposite in2="hardAlpha" operator="out"/>
<feColorMatrix type="matrix" values="0 0 0 0 0.847059 0 0 0 0 0.0196078 0 0 0 0 0.156863 0 0 0 0.25 0"/>
<feBlend mode="normal" in2="BackgroundImageFix" result="effect1_dropShadow_662_3143"/>
<feBlend mode="normal" in="SourceGraphic" in2="effect1_dropShadow_662_3143" result="shape"/>
<feGaussianBlur stdDeviation="0.513393" result="effect2_foregroundBlur_662_3143"/>
</filter>
<filter id="filter2_df_662_3143" x="0.873017" y="0.462304" width="64.254" height="56.4504" filterUnits="userSpaceOnUse" color-interpolation-filters="sRGB">
<feFlood flood-opacity="0" result="BackgroundImageFix"/>
<feColorMatrix in="SourceAlpha" type="matrix" values="0 0 0 0 0 0 0 0 0 0 0 0 0 0 0 0 0 0 127 0" result="hardAlpha"/>
<feOffset/>
<feGaussianBlur stdDeviation="4.56349"/>
<feComposite in2="hardAlpha" operator="out"/>
<feColorMatrix type="matrix" values="0 0 0 0 0.894118 0 0 0 0 0.141176 0 0 0 0 0.466667 0 0 0 0.25 0"/>
<feBlend mode="normal" in2="BackgroundImageFix" result="effect1_dropShadow_662_3143"/>
<feBlend mode="normal" in="SourceGraphic" in2="effect1_dropShadow_662_3143" result="shape"/>
<feGaussianBlur stdDeviation="0.513393" result="effect2_foregroundBlur_662_3143"/>
</filter>
</defs>
</svg>
