<svg width="66" height="62" viewBox="0 0 66 62" fill="none" xmlns="http://www.w3.org/2000/svg">
<g style="mix-blend-mode:plus-lighter" filter="url(#filter0_df_662_3112)">
<path d="M55.6803 32.8831H39.0447C38.3177 32.8831 37.725 33.4758 37.725 34.2026C37.725 34.5729 37.8824 34.9064 38.1277 35.147L49.8417 46.861C49.9654 46.994 50.1152 47.1001 50.2818 47.1726C50.4483 47.2451 50.628 47.2826 50.8097 47.2825C51.0264 47.283 51.2399 47.23 51.4313 47.1282C51.6227 47.0265 51.786 46.879 51.9068 46.6991C54.7868 43.3561 56.6388 39.1104 56.9723 34.4387C56.9906 34.3613 56.9999 34.282 57 34.2025C57.0001 34.0292 56.966 33.8576 56.8997 33.6975C56.8334 33.5373 56.7362 33.3918 56.6136 33.2693C56.491 33.1468 56.3455 33.0496 56.1854 32.9833C56.0253 32.9171 55.8536 32.883 55.6803 32.8831ZM34.021 8.96875C33.294 8.97319 32.7061 9.5614 32.7061 10.2883V28.7761C32.7061 29.5077 33.294 30.1003 34.021 30.1003H52.5135C53.2405 30.1003 53.833 29.5077 53.833 28.7761C53.1801 18.1364 44.6654 9.6217 34.021 8.96875Z" fill="#FFE600"/>
<path d="M44.1838 45.7824L30.5438 32.1423C30.3123 31.9062 30.1735 31.5774 30.1735 31.2209L30.1686 11.9551C30.1687 11.7824 30.1348 11.6114 30.0688 11.4518C30.0027 11.2922 29.9059 11.1472 29.7838 11.0251C29.6616 10.9029 29.5166 10.8061 29.357 10.74C29.1974 10.674 29.0264 10.6401 28.8537 10.6402C17.774 11.3162 9 20.5207 9 31.7673C9 43.4582 18.4779 52.9405 30.1686 52.9405C35.5025 52.9405 40.3733 50.9682 44.0958 47.7131C44.2427 47.5901 44.3606 47.4364 44.4415 47.2628C44.5223 47.0892 44.564 46.8999 44.5636 46.7084C44.5633 46.3619 44.4269 46.0293 44.1838 45.7824Z" fill="#FFE600"/>
</g>
<g style="mix-blend-mode:plus-lighter" filter="url(#filter1_df_662_3112)">
<path d="M55.6803 32.8831H39.0447C38.3177 32.8831 37.725 33.4758 37.725 34.2026C37.725 34.5729 37.8824 34.9064 38.1277 35.147L49.8417 46.861C49.9654 46.994 50.1152 47.1001 50.2818 47.1726C50.4483 47.2451 50.628 47.2826 50.8097 47.2825C51.0264 47.283 51.2399 47.23 51.4313 47.1282C51.6227 47.0265 51.786 46.879 51.9068 46.6991C54.7868 43.3561 56.6388 39.1104 56.9723 34.4387C56.9906 34.3613 56.9999 34.282 57 34.2025C57.0001 34.0292 56.966 33.8576 56.8997 33.6975C56.8334 33.5373 56.7362 33.3918 56.6136 33.2693C56.491 33.1468 56.3455 33.0496 56.1854 32.9833C56.0253 32.9171 55.8536 32.883 55.6803 32.8831ZM34.021 8.96875C33.294 8.97319 32.7061 9.5614 32.7061 10.2883V28.7761C32.7061 29.5077 33.294 30.1003 34.021 30.1003H52.5135C53.2405 30.1003 53.833 29.5077 53.833 28.7761C53.1801 18.1364 44.6654 9.6217 34.021 8.96875Z" fill="#BC010A"/>
<path d="M44.1838 45.7824L30.5438 32.1423C30.3123 31.9062 30.1735 31.5774 30.1735 31.2209L30.1686 11.9551C30.1687 11.7824 30.1348 11.6114 30.0688 11.4518C30.0027 11.2922 29.9059 11.1472 29.7838 11.0251C29.6616 10.9029 29.5166 10.8061 29.357 10.74C29.1974 10.674 29.0264 10.6401 28.8537 10.6402C17.774 11.3162 9 20.5207 9 31.7673C9 43.4582 18.4779 52.9405 30.1686 52.9405C35.5025 52.9405 40.3733 50.9682 44.0958 47.7131C44.2427 47.5901 44.3606 47.4364 44.4415 47.2628C44.5223 47.0892 44.564 46.8999 44.5636 46.7084C44.5633 46.3619 44.4269 46.0293 44.1838 45.7824Z" fill="#BC010A"/>
</g>
<g style="mix-blend-mode:plus-lighter" filter="url(#filter2_df_662_3112)">
<path d="M55.6803 32.8831H39.0447C38.3177 32.8831 37.725 33.4758 37.725 34.2026C37.725 34.5729 37.8824 34.9064 38.1277 35.147L49.8417 46.861C49.9654 46.994 50.1152 47.1001 50.2818 47.1726C50.4483 47.2451 50.628 47.2826 50.8097 47.2825C51.0264 47.283 51.2399 47.23 51.4313 47.1282C51.6227 47.0265 51.786 46.879 51.9068 46.6991C54.7868 43.3561 56.6388 39.1104 56.9723 34.4387C56.9906 34.3613 56.9999 34.282 57 34.2025C57.0001 34.0292 56.966 33.8576 56.8997 33.6975C56.8334 33.5373 56.7362 33.3918 56.6136 33.2693C56.491 33.1468 56.3455 33.0496 56.1854 32.9833C56.0253 32.9171 55.8536 32.883 55.6803 32.8831ZM34.021 8.96875C33.294 8.97319 32.7061 9.5614 32.7061 10.2883V28.7761C32.7061 29.5077 33.294 30.1003 34.021 30.1003H52.5135C53.2405 30.1003 53.833 29.5077 53.833 28.7761C53.1801 18.1364 44.6654 9.6217 34.021 8.96875Z" fill="#CC1A70"/>
<path d="M44.1838 45.7824L30.5438 32.1423C30.3123 31.9062 30.1735 31.5774 30.1735 31.2209L30.1686 11.9551C30.1687 11.7824 30.1348 11.6114 30.0688 11.4518C30.0027 11.2922 29.9059 11.1472 29.7838 11.0251C29.6616 10.9029 29.5166 10.8061 29.357 10.74C29.1974 10.674 29.0264 10.6401 28.8537 10.6402C17.774 11.3162 9 20.5207 9 31.7673C9 43.4582 18.4779 52.9405 30.1686 52.9405C35.5025 52.9405 40.3733 50.9682 44.0958 47.7131C44.2427 47.5901 44.3606 47.4364 44.4415 47.2628C44.5223 47.0892 44.564 46.8999 44.5636 46.7084C44.5633 46.3619 44.4269 46.0293 44.1838 45.7824Z" fill="#CC1A70"/>
</g>
<defs>
<filter id="filter0_df_662_3112" x="0.666668" y="0.635418" width="64.6667" height="60.6385" filterUnits="userSpaceOnUse" color-interpolation-filters="sRGB">
<feFlood flood-opacity="0" result="BackgroundImageFix"/>
<feColorMatrix in="SourceAlpha" type="matrix" values="0 0 0 0 0 0 0 0 0 0 0 0 0 0 0 0 0 0 127 0" result="hardAlpha"/>
<feOffset/>
<feGaussianBlur stdDeviation="4.16667"/>
<feComposite in2="hardAlpha" operator="out"/>
<feColorMatrix type="matrix" values="0 0 0 0 1 0 0 0 0 0.996078 0 0 0 0 0.0117647 0 0 0 0.25 0"/>
<feBlend mode="normal" in2="BackgroundImageFix" result="effect1_dropShadow_662_3112"/>
<feBlend mode="normal" in="SourceGraphic" in2="effect1_dropShadow_662_3112" result="shape"/>
<feGaussianBlur stdDeviation="0.46875" result="effect2_foregroundBlur_662_3112"/>
</filter>
<filter id="filter1_df_662_3112" x="0.666668" y="0.635418" width="64.6667" height="60.6385" filterUnits="userSpaceOnUse" color-interpolation-filters="sRGB">
<feFlood flood-opacity="0" result="BackgroundImageFix"/>
<feColorMatrix in="SourceAlpha" type="matrix" values="0 0 0 0 0 0 0 0 0 0 0 0 0 0 0 0 0 0 127 0" result="hardAlpha"/>
<feOffset/>
<feGaussianBlur stdDeviation="4.16667"/>
<feComposite in2="hardAlpha" operator="out"/>
<feColorMatrix type="matrix" values="0 0 0 0 0.847059 0 0 0 0 0.0196078 0 0 0 0 0.156863 0 0 0 0.25 0"/>
<feBlend mode="normal" in2="BackgroundImageFix" result="effect1_dropShadow_662_3112"/>
<feBlend mode="normal" in="SourceGraphic" in2="effect1_dropShadow_662_3112" result="shape"/>
<feGaussianBlur stdDeviation="0.46875" result="effect2_foregroundBlur_662_3112"/>
</filter>
<filter id="filter2_df_662_3112" x="0.666668" y="0.635418" width="64.6667" height="60.6385" filterUnits="userSpaceOnUse" color-interpolation-filters="sRGB">
<feFlood flood-opacity="0" result="BackgroundImageFix"/>
<feColorMatrix in="SourceAlpha" type="matrix" values="0 0 0 0 0 0 0 0 0 0 0 0 0 0 0 0 0 0 127 0" result="hardAlpha"/>
<feOffset/>
<feGaussianBlur stdDeviation="4.16667"/>
<feComposite in2="hardAlpha" operator="out"/>
<feColorMatrix type="matrix" values="0 0 0 0 0.894118 0 0 0 0 0.141176 0 0 0 0 0.466667 0 0 0 0.25 0"/>
<feBlend mode="normal" in2="BackgroundImageFix" result="effect1_dropShadow_662_3112"/>
<feBlend mode="normal" in="SourceGraphic" in2="effect1_dropShadow_662_3112" result="shape"/>
<feGaussianBlur stdDeviation="0.46875" result="effect2_foregroundBlur_662_3112"/>
</filter>
</defs>
</svg>
