<svg width="55" height="55" viewBox="0 0 55 55" fill="none" xmlns="http://www.w3.org/2000/svg">
<g style="mix-blend-mode:plus-lighter" filter="url(#filter0_df_644_10598)">
<path d="M11 26.0466H23C23.5304 26.0466 24.0391 25.8359 24.4142 25.4608C24.7893 25.0857 25 24.577 25 24.0466V12.0466C25 11.5161 24.7893 11.0074 24.4142 10.6324C24.0391 10.2573 23.5304 10.0466 23 10.0466H11C10.4696 10.0466 9.96086 10.2573 9.58579 10.6324C9.21071 11.0074 9 11.5161 9 12.0466V24.0466C9 24.577 9.21071 25.0857 9.58579 25.4608C9.96086 25.8359 10.4696 26.0466 11 26.0466ZM11 46.0466H23C23.5304 46.0466 24.0391 45.8359 24.4142 45.4608C24.7893 45.0857 25 44.577 25 44.0466V32.0466C25 31.5161 24.7893 31.0074 24.4142 30.6324C24.0391 30.2573 23.5304 30.0466 23 30.0466H11C10.4696 30.0466 9.96086 30.2573 9.58579 30.6324C9.21071 31.0074 9 31.5161 9 32.0466V44.0466C9 44.577 9.21071 45.0857 9.58579 45.4608C9.96086 45.8359 10.4696 46.0466 11 46.0466ZM31 46.0466H43C43.5304 46.0466 44.0391 45.8359 44.4142 45.4608C44.7893 45.0857 45 44.577 45 44.0466V32.0466C45 31.5161 44.7893 31.0074 44.4142 30.6324C44.0391 30.2573 43.5304 30.0466 43 30.0466H31C30.4696 30.0466 29.9609 30.2573 29.5858 30.6324C29.2107 31.0074 29 31.5161 29 32.0466V44.0466C29 44.577 29.2107 45.0857 29.5858 45.4608C29.9609 45.8359 30.4696 46.0466 31 46.0466ZM45.586 16.6326L38.414 9.46057C38.0389 9.08563 37.5303 8.875 37 8.875C36.4697 8.875 35.9611 9.08563 35.586 9.46057L28.414 16.6326C28.0391 17.0076 27.8284 17.5162 27.8284 18.0466C27.8284 18.5769 28.0391 19.0855 28.414 19.4606L35.586 26.6326C35.9611 27.0075 36.4697 27.2181 37 27.2181C37.5303 27.2181 38.0389 27.0075 38.414 26.6326L45.586 19.4606C45.9609 19.0855 46.1716 18.5769 46.1716 18.0466C46.1716 17.5162 45.9609 17.0076 45.586 16.6326Z" fill="#FFE600"/>
</g>
<g style="mix-blend-mode:plus-lighter" filter="url(#filter1_df_644_10598)">
<path d="M11 26.0466H23C23.5304 26.0466 24.0391 25.8359 24.4142 25.4608C24.7893 25.0857 25 24.577 25 24.0466V12.0466C25 11.5161 24.7893 11.0074 24.4142 10.6324C24.0391 10.2573 23.5304 10.0466 23 10.0466H11C10.4696 10.0466 9.96086 10.2573 9.58579 10.6324C9.21071 11.0074 9 11.5161 9 12.0466V24.0466C9 24.577 9.21071 25.0857 9.58579 25.4608C9.96086 25.8359 10.4696 26.0466 11 26.0466ZM11 46.0466H23C23.5304 46.0466 24.0391 45.8359 24.4142 45.4608C24.7893 45.0857 25 44.577 25 44.0466V32.0466C25 31.5161 24.7893 31.0074 24.4142 30.6324C24.0391 30.2573 23.5304 30.0466 23 30.0466H11C10.4696 30.0466 9.96086 30.2573 9.58579 30.6324C9.21071 31.0074 9 31.5161 9 32.0466V44.0466C9 44.577 9.21071 45.0857 9.58579 45.4608C9.96086 45.8359 10.4696 46.0466 11 46.0466ZM31 46.0466H43C43.5304 46.0466 44.0391 45.8359 44.4142 45.4608C44.7893 45.0857 45 44.577 45 44.0466V32.0466C45 31.5161 44.7893 31.0074 44.4142 30.6324C44.0391 30.2573 43.5304 30.0466 43 30.0466H31C30.4696 30.0466 29.9609 30.2573 29.5858 30.6324C29.2107 31.0074 29 31.5161 29 32.0466V44.0466C29 44.577 29.2107 45.0857 29.5858 45.4608C29.9609 45.8359 30.4696 46.0466 31 46.0466ZM45.586 16.6326L38.414 9.46057C38.0389 9.08563 37.5303 8.875 37 8.875C36.4697 8.875 35.9611 9.08563 35.586 9.46057L28.414 16.6326C28.0391 17.0076 27.8284 17.5162 27.8284 18.0466C27.8284 18.5769 28.0391 19.0855 28.414 19.4606L35.586 26.6326C35.9611 27.0075 36.4697 27.2181 37 27.2181C37.5303 27.2181 38.0389 27.0075 38.414 26.6326L45.586 19.4606C45.9609 19.0855 46.1716 18.5769 46.1716 18.0466C46.1716 17.5162 45.9609 17.0076 45.586 16.6326Z" fill="#BC010A"/>
</g>
<g style="mix-blend-mode:plus-lighter" filter="url(#filter2_df_644_10598)">
<path d="M11 26.0466H23C23.5304 26.0466 24.0391 25.8359 24.4142 25.4608C24.7893 25.0857 25 24.577 25 24.0466V12.0466C25 11.5161 24.7893 11.0074 24.4142 10.6324C24.0391 10.2573 23.5304 10.0466 23 10.0466H11C10.4696 10.0466 9.96086 10.2573 9.58579 10.6324C9.21071 11.0074 9 11.5161 9 12.0466V24.0466C9 24.577 9.21071 25.0857 9.58579 25.4608C9.96086 25.8359 10.4696 26.0466 11 26.0466ZM11 46.0466H23C23.5304 46.0466 24.0391 45.8359 24.4142 45.4608C24.7893 45.0857 25 44.577 25 44.0466V32.0466C25 31.5161 24.7893 31.0074 24.4142 30.6324C24.0391 30.2573 23.5304 30.0466 23 30.0466H11C10.4696 30.0466 9.96086 30.2573 9.58579 30.6324C9.21071 31.0074 9 31.5161 9 32.0466V44.0466C9 44.577 9.21071 45.0857 9.58579 45.4608C9.96086 45.8359 10.4696 46.0466 11 46.0466ZM31 46.0466H43C43.5304 46.0466 44.0391 45.8359 44.4142 45.4608C44.7893 45.0857 45 44.577 45 44.0466V32.0466C45 31.5161 44.7893 31.0074 44.4142 30.6324C44.0391 30.2573 43.5304 30.0466 43 30.0466H31C30.4696 30.0466 29.9609 30.2573 29.5858 30.6324C29.2107 31.0074 29 31.5161 29 32.0466V44.0466C29 44.577 29.2107 45.0857 29.5858 45.4608C29.9609 45.8359 30.4696 46.0466 31 46.0466ZM45.586 16.6326L38.414 9.46057C38.0389 9.08563 37.5303 8.875 37 8.875C36.4697 8.875 35.9611 9.08563 35.586 9.46057L28.414 16.6326C28.0391 17.0076 27.8284 17.5162 27.8284 18.0466C27.8284 18.5769 28.0391 19.0855 28.414 19.4606L35.586 26.6326C35.9611 27.0075 36.4697 27.2181 37 27.2181C37.5303 27.2181 38.0389 27.0075 38.414 26.6326L45.586 19.4606C45.9609 19.0855 46.1716 18.5769 46.1716 18.0466C46.1716 17.5162 45.9609 17.0076 45.586 16.6326Z" fill="#CC1A70"/>
</g>
<defs>
<filter id="filter0_df_644_10598" x="0.666668" y="0.541668" width="53.8381" height="53.8382" filterUnits="userSpaceOnUse" color-interpolation-filters="sRGB">
<feFlood flood-opacity="0" result="BackgroundImageFix"/>
<feColorMatrix in="SourceAlpha" type="matrix" values="0 0 0 0 0 0 0 0 0 0 0 0 0 0 0 0 0 0 127 0" result="hardAlpha"/>
<feOffset/>
<feGaussianBlur stdDeviation="4.16667"/>
<feComposite in2="hardAlpha" operator="out"/>
<feColorMatrix type="matrix" values="0 0 0 0 1 0 0 0 0 0.996078 0 0 0 0 0.0117647 0 0 0 0.25 0"/>
<feBlend mode="normal" in2="BackgroundImageFix" result="effect1_dropShadow_644_10598"/>
<feBlend mode="normal" in="SourceGraphic" in2="effect1_dropShadow_644_10598" result="shape"/>
<feGaussianBlur stdDeviation="0.46875" result="effect2_foregroundBlur_644_10598"/>
</filter>
<filter id="filter1_df_644_10598" x="0.666668" y="0.541668" width="53.8381" height="53.8382" filterUnits="userSpaceOnUse" color-interpolation-filters="sRGB">
<feFlood flood-opacity="0" result="BackgroundImageFix"/>
<feColorMatrix in="SourceAlpha" type="matrix" values="0 0 0 0 0 0 0 0 0 0 0 0 0 0 0 0 0 0 127 0" result="hardAlpha"/>
<feOffset/>
<feGaussianBlur stdDeviation="4.16667"/>
<feComposite in2="hardAlpha" operator="out"/>
<feColorMatrix type="matrix" values="0 0 0 0 0.847059 0 0 0 0 0.0196078 0 0 0 0 0.156863 0 0 0 0.25 0"/>
<feBlend mode="normal" in2="BackgroundImageFix" result="effect1_dropShadow_644_10598"/>
<feBlend mode="normal" in="SourceGraphic" in2="effect1_dropShadow_644_10598" result="shape"/>
<feGaussianBlur stdDeviation="0.46875" result="effect2_foregroundBlur_644_10598"/>
</filter>
<filter id="filter2_df_644_10598" x="0.666668" y="0.541668" width="53.8381" height="53.8382" filterUnits="userSpaceOnUse" color-interpolation-filters="sRGB">
<feFlood flood-opacity="0" result="BackgroundImageFix"/>
<feColorMatrix in="SourceAlpha" type="matrix" values="0 0 0 0 0 0 0 0 0 0 0 0 0 0 0 0 0 0 127 0" result="hardAlpha"/>
<feOffset/>
<feGaussianBlur stdDeviation="4.16667"/>
<feComposite in2="hardAlpha" operator="out"/>
<feColorMatrix type="matrix" values="0 0 0 0 0.894118 0 0 0 0 0.141176 0 0 0 0 0.466667 0 0 0 0.25 0"/>
<feBlend mode="normal" in2="BackgroundImageFix" result="effect1_dropShadow_644_10598"/>
<feBlend mode="normal" in="SourceGraphic" in2="effect1_dropShadow_644_10598" result="shape"/>
<feGaussianBlur stdDeviation="0.46875" result="effect2_foregroundBlur_644_10598"/>
</filter>
</defs>
</svg>
