<svg width="48" height="48" viewBox="0 0 48 48" fill="none" xmlns="http://www.w3.org/2000/svg">
<g clip-path="url(#clip0_653_2980)">
<g style="mix-blend-mode:plus-lighter" filter="url(#filter0_df_653_2980)">
<path fill-rule="evenodd" clip-rule="evenodd" d="M41.7168 46.0762C42.4025 46.0762 42.9604 45.5183 42.9604 44.8326C42.9604 44.147 42.4025 43.5894 41.7168 43.5894C41.0312 43.5894 40.4736 44.1471 40.4736 44.8326C40.4736 45.5183 41.0312 46.0762 41.7168 46.0762ZM43.8322 35.6978C44.5179 35.6978 45.0758 35.14 45.0758 34.4546C45.0758 33.7689 44.5179 33.2111 43.8322 33.2111C43.1467 33.2111 42.589 33.769 42.589 34.4546C42.589 35.14 43.1466 35.6978 43.8322 35.6978ZM44.7388 25.3197C45.4245 25.3197 45.9824 24.7618 45.9824 24.0761C45.9824 23.3904 45.4245 22.8326 44.7388 22.8326C44.0534 22.8326 43.4956 23.3905 43.4956 24.0761C43.4955 24.7619 44.0532 25.3197 44.7388 25.3197ZM41.7168 4.563C42.4025 4.563 42.9604 4.00525 42.9604 3.31977C42.9604 2.63406 42.4025 2.07619 41.7168 2.07619C41.0312 2.07619 40.4736 2.63406 40.4736 3.31977C40.4736 4.00525 41.0312 4.563 41.7168 4.563ZM43.8322 14.9414C44.5179 14.9414 45.0758 14.3835 45.0758 13.6978C45.0758 13.0122 44.5179 12.4546 43.8322 12.4546C43.1467 12.4546 42.589 13.0123 42.589 13.6978C42.589 14.3835 43.1466 14.9414 43.8322 14.9414ZM15.2252 32.8335C14.0879 31.6962 13.195 30.3718 12.5712 28.897C11.9253 27.3699 11.5978 25.7479 11.5978 24.0762C11.5978 22.4045 11.9253 20.7825 12.5712 19.2555C13.195 17.7806 14.0879 16.4563 15.2252 15.319C16.3624 14.1818 17.6868 13.2889 19.1616 12.6651C20.5411 12.0816 21.9979 11.758 23.4989 11.7008V2.07619H20.6885V5.8911C20.6885 6.00233 20.6501 6.11016 20.5799 6.19641C20.5096 6.28265 20.4118 6.34205 20.3029 6.36459C18.0711 6.82579 15.9714 7.69626 14.0619 8.95167C13.9689 9.01277 13.8578 9.03995 13.7471 9.02865C13.6364 9.01734 13.533 8.96823 13.4544 8.8896L10.7552 6.19045L6.09668 10.8489L8.79583 13.548C8.87451 13.6267 8.92365 13.73 8.93498 13.8407C8.94631 13.9514 8.91913 14.0626 8.85802 14.1555C7.60261 16.065 6.73214 18.1648 6.27094 20.3964C6.24845 20.5053 6.18906 20.6032 6.1028 20.6734C6.01655 20.7437 5.9087 20.7821 5.79745 20.782H1.98242V27.37H5.79745C5.90868 27.37 6.01651 27.4084 6.10276 27.4786C6.18901 27.5489 6.2484 27.6467 6.27094 27.7556C6.73214 29.9873 7.60261 32.087 8.85802 33.9966C8.91915 34.0896 8.94634 34.2008 8.93501 34.3114C8.92369 34.4221 8.87453 34.5255 8.79583 34.6041L6.09668 37.3033L10.7551 41.9617L13.4542 39.2625C13.5329 39.1839 13.6363 39.1348 13.747 39.1235C13.8576 39.1121 13.9688 39.1393 14.0618 39.2004C15.9713 40.4558 18.071 41.3262 20.3027 41.7874C20.4117 41.81 20.5095 41.8694 20.5797 41.9556C20.65 42.0419 20.6884 42.1497 20.6884 42.2609V46.076H23.4988V36.4514C21.9977 36.3943 20.541 36.0707 19.1614 35.4871C17.6868 34.8636 16.3624 33.9706 15.2252 32.8335ZM30.0802 24.5597H42.5824C42.5476 24.4039 42.5285 24.2423 42.5285 24.0762C42.5285 23.91 42.5474 23.7484 42.5824 23.5927H30.0802C30.0926 23.7527 30.0991 23.9139 30.0991 24.0762C30.0991 24.2384 30.0926 24.3996 30.0802 24.5597ZM28.6359 20.1064L34.561 14.1813H41.6758C41.6409 14.0256 41.6218 13.8639 41.6218 13.6978C41.6218 13.5317 41.6408 13.37 41.6758 13.2143H34.3606C34.2324 13.2143 34.1094 13.2652 34.0187 13.3558L27.9521 19.4224C28.0748 19.5273 28.1933 19.6369 28.3075 19.7509C28.4215 19.8651 28.5311 19.9837 28.6359 20.1064ZM27.9521 28.7298L34.0188 34.7964C34.0637 34.8413 34.117 34.8769 34.1757 34.9013C34.2343 34.9256 34.2972 34.9381 34.3607 34.9381H41.6759C41.641 34.7823 41.6219 34.6207 41.6219 34.4546C41.6219 34.2884 41.6409 34.1268 41.6759 33.9711H34.561L28.6359 28.046C28.5311 28.1687 28.4215 28.2872 28.3075 28.4014C28.1933 28.5154 28.0748 28.625 27.9521 28.7298ZM24.8579 18.0215L34.6153 3.80329H39.5604C39.5254 3.64753 39.5064 3.48592 39.5064 3.31977C39.5064 3.15363 39.5254 2.99202 39.5604 2.83626H34.3607C34.2822 2.83625 34.2049 2.85537 34.1354 2.89195C34.0659 2.92853 34.0064 2.98147 33.962 3.04621L23.7238 17.9653C23.8096 17.9617 23.8958 17.9595 23.9824 17.9595C24.2754 17.9594 24.5679 17.9802 24.8579 18.0215ZM23.9831 18.9264H23.9823L23.9811 18.9265H23.9819L23.9831 18.9264ZM23.7238 30.1871L33.962 45.1062C34.0064 45.1709 34.0659 45.2239 34.1354 45.2604C34.2049 45.297 34.2822 45.3161 34.3607 45.3161H39.5604C39.5255 45.1604 39.5064 44.9987 39.5064 44.8326C39.5064 44.6665 39.5254 44.5048 39.5604 44.3491H34.6153L24.8579 30.1308C24.5679 30.1722 24.2753 30.193 23.9823 30.193C23.8961 30.1928 23.8099 30.1908 23.7238 30.1871Z" fill="#FFE600"/>
<path d="M27.616 27.7175C29.6271 25.7064 29.6271 22.4458 27.616 20.4347C25.6049 18.4237 22.3444 18.4237 20.3333 20.4347C18.3222 22.4458 18.3222 25.7064 20.3333 27.7175C22.3443 29.7286 25.605 29.7286 27.616 27.7175Z" fill="#FFE600"/>
</g>
<g style="mix-blend-mode:plus-lighter" filter="url(#filter1_df_653_2980)">
<path fill-rule="evenodd" clip-rule="evenodd" d="M41.7168 46.0762C42.4025 46.0762 42.9604 45.5183 42.9604 44.8326C42.9604 44.147 42.4025 43.5894 41.7168 43.5894C41.0312 43.5894 40.4736 44.1471 40.4736 44.8326C40.4736 45.5183 41.0312 46.0762 41.7168 46.0762ZM43.8322 35.6978C44.5179 35.6978 45.0758 35.14 45.0758 34.4546C45.0758 33.7689 44.5179 33.2111 43.8322 33.2111C43.1467 33.2111 42.589 33.769 42.589 34.4546C42.589 35.14 43.1466 35.6978 43.8322 35.6978ZM44.7388 25.3197C45.4245 25.3197 45.9824 24.7618 45.9824 24.0761C45.9824 23.3904 45.4245 22.8326 44.7388 22.8326C44.0534 22.8326 43.4956 23.3905 43.4956 24.0761C43.4955 24.7619 44.0532 25.3197 44.7388 25.3197ZM41.7168 4.563C42.4025 4.563 42.9604 4.00525 42.9604 3.31977C42.9604 2.63406 42.4025 2.07619 41.7168 2.07619C41.0312 2.07619 40.4736 2.63406 40.4736 3.31977C40.4736 4.00525 41.0312 4.563 41.7168 4.563ZM43.8322 14.9414C44.5179 14.9414 45.0758 14.3835 45.0758 13.6978C45.0758 13.0122 44.5179 12.4546 43.8322 12.4546C43.1467 12.4546 42.589 13.0123 42.589 13.6978C42.589 14.3835 43.1466 14.9414 43.8322 14.9414ZM15.2252 32.8335C14.0879 31.6962 13.195 30.3718 12.5712 28.897C11.9253 27.3699 11.5978 25.7479 11.5978 24.0762C11.5978 22.4045 11.9253 20.7825 12.5712 19.2555C13.195 17.7806 14.0879 16.4563 15.2252 15.319C16.3624 14.1818 17.6868 13.2889 19.1616 12.6651C20.5411 12.0816 21.9979 11.758 23.4989 11.7008V2.07619H20.6885V5.8911C20.6885 6.00233 20.6501 6.11016 20.5799 6.19641C20.5096 6.28265 20.4118 6.34205 20.3029 6.36459C18.0711 6.82579 15.9714 7.69626 14.0619 8.95167C13.9689 9.01277 13.8578 9.03995 13.7471 9.02865C13.6364 9.01734 13.533 8.96823 13.4544 8.8896L10.7552 6.19045L6.09668 10.8489L8.79583 13.548C8.87451 13.6267 8.92365 13.73 8.93498 13.8407C8.94631 13.9514 8.91913 14.0626 8.85802 14.1555C7.60261 16.065 6.73214 18.1648 6.27094 20.3964C6.24845 20.5053 6.18906 20.6032 6.1028 20.6734C6.01655 20.7437 5.9087 20.7821 5.79745 20.782H1.98242V27.37H5.79745C5.90868 27.37 6.01651 27.4084 6.10276 27.4786C6.18901 27.5489 6.2484 27.6467 6.27094 27.7556C6.73214 29.9873 7.60261 32.087 8.85802 33.9966C8.91915 34.0896 8.94634 34.2008 8.93501 34.3114C8.92369 34.4221 8.87453 34.5255 8.79583 34.6041L6.09668 37.3033L10.7551 41.9617L13.4542 39.2625C13.5329 39.1839 13.6363 39.1348 13.747 39.1235C13.8576 39.1121 13.9688 39.1393 14.0618 39.2004C15.9713 40.4558 18.071 41.3262 20.3027 41.7874C20.4117 41.81 20.5095 41.8694 20.5797 41.9556C20.65 42.0419 20.6884 42.1497 20.6884 42.2609V46.076H23.4988V36.4514C21.9977 36.3943 20.541 36.0707 19.1614 35.4871C17.6868 34.8636 16.3624 33.9706 15.2252 32.8335ZM30.0802 24.5597H42.5824C42.5476 24.4039 42.5285 24.2423 42.5285 24.0762C42.5285 23.91 42.5474 23.7484 42.5824 23.5927H30.0802C30.0926 23.7527 30.0991 23.9139 30.0991 24.0762C30.0991 24.2384 30.0926 24.3996 30.0802 24.5597ZM28.6359 20.1064L34.561 14.1813H41.6758C41.6409 14.0256 41.6218 13.8639 41.6218 13.6978C41.6218 13.5317 41.6408 13.37 41.6758 13.2143H34.3606C34.2324 13.2143 34.1094 13.2652 34.0187 13.3558L27.9521 19.4224C28.0748 19.5273 28.1933 19.6369 28.3075 19.7509C28.4215 19.8651 28.5311 19.9837 28.6359 20.1064ZM27.9521 28.7298L34.0188 34.7964C34.0637 34.8413 34.117 34.8769 34.1757 34.9013C34.2343 34.9256 34.2972 34.9381 34.3607 34.9381H41.6759C41.641 34.7823 41.6219 34.6207 41.6219 34.4546C41.6219 34.2884 41.6409 34.1268 41.6759 33.9711H34.561L28.6359 28.046C28.5311 28.1687 28.4215 28.2872 28.3075 28.4014C28.1933 28.5154 28.0748 28.625 27.9521 28.7298ZM24.8579 18.0215L34.6153 3.80329H39.5604C39.5254 3.64753 39.5064 3.48592 39.5064 3.31977C39.5064 3.15363 39.5254 2.99202 39.5604 2.83626H34.3607C34.2822 2.83625 34.2049 2.85537 34.1354 2.89195C34.0659 2.92853 34.0064 2.98147 33.962 3.04621L23.7238 17.9653C23.8096 17.9617 23.8958 17.9595 23.9824 17.9595C24.2754 17.9594 24.5679 17.9802 24.8579 18.0215ZM23.9831 18.9264H23.9823L23.9811 18.9265H23.9819L23.9831 18.9264ZM23.7238 30.1871L33.962 45.1062C34.0064 45.1709 34.0659 45.2239 34.1354 45.2604C34.2049 45.297 34.2822 45.3161 34.3607 45.3161H39.5604C39.5255 45.1604 39.5064 44.9987 39.5064 44.8326C39.5064 44.6665 39.5254 44.5048 39.5604 44.3491H34.6153L24.8579 30.1308C24.5679 30.1722 24.2753 30.193 23.9823 30.193C23.8961 30.1928 23.8099 30.1908 23.7238 30.1871Z" fill="#BC010A"/>
<path d="M27.616 27.7175C29.6271 25.7064 29.6271 22.4458 27.616 20.4347C25.6049 18.4237 22.3444 18.4237 20.3333 20.4347C18.3222 22.4458 18.3222 25.7064 20.3333 27.7175C22.3443 29.7286 25.605 29.7286 27.616 27.7175Z" fill="#BC010A"/>
</g>
<g style="mix-blend-mode:plus-lighter" filter="url(#filter2_df_653_2980)">
<path fill-rule="evenodd" clip-rule="evenodd" d="M41.7168 46.0762C42.4025 46.0762 42.9604 45.5183 42.9604 44.8326C42.9604 44.147 42.4025 43.5894 41.7168 43.5894C41.0312 43.5894 40.4736 44.1471 40.4736 44.8326C40.4736 45.5183 41.0312 46.0762 41.7168 46.0762ZM43.8322 35.6978C44.5179 35.6978 45.0758 35.14 45.0758 34.4546C45.0758 33.7689 44.5179 33.2111 43.8322 33.2111C43.1467 33.2111 42.589 33.769 42.589 34.4546C42.589 35.14 43.1466 35.6978 43.8322 35.6978ZM44.7388 25.3197C45.4245 25.3197 45.9824 24.7618 45.9824 24.0761C45.9824 23.3904 45.4245 22.8326 44.7388 22.8326C44.0534 22.8326 43.4956 23.3905 43.4956 24.0761C43.4955 24.7619 44.0532 25.3197 44.7388 25.3197ZM41.7168 4.563C42.4025 4.563 42.9604 4.00525 42.9604 3.31977C42.9604 2.63406 42.4025 2.07619 41.7168 2.07619C41.0312 2.07619 40.4736 2.63406 40.4736 3.31977C40.4736 4.00525 41.0312 4.563 41.7168 4.563ZM43.8322 14.9414C44.5179 14.9414 45.0758 14.3835 45.0758 13.6978C45.0758 13.0122 44.5179 12.4546 43.8322 12.4546C43.1467 12.4546 42.589 13.0123 42.589 13.6978C42.589 14.3835 43.1466 14.9414 43.8322 14.9414ZM15.2252 32.8335C14.0879 31.6962 13.195 30.3718 12.5712 28.897C11.9253 27.3699 11.5978 25.7479 11.5978 24.0762C11.5978 22.4045 11.9253 20.7825 12.5712 19.2555C13.195 17.7806 14.0879 16.4563 15.2252 15.319C16.3624 14.1818 17.6868 13.2889 19.1616 12.6651C20.5411 12.0816 21.9979 11.758 23.4989 11.7008V2.07619H20.6885V5.8911C20.6885 6.00233 20.6501 6.11016 20.5799 6.19641C20.5096 6.28265 20.4118 6.34205 20.3029 6.36459C18.0711 6.82579 15.9714 7.69626 14.0619 8.95167C13.9689 9.01277 13.8578 9.03995 13.7471 9.02865C13.6364 9.01734 13.533 8.96823 13.4544 8.8896L10.7552 6.19045L6.09668 10.8489L8.79583 13.548C8.87451 13.6267 8.92365 13.73 8.93498 13.8407C8.94631 13.9514 8.91913 14.0626 8.85802 14.1555C7.60261 16.065 6.73214 18.1648 6.27094 20.3964C6.24845 20.5053 6.18906 20.6032 6.1028 20.6734C6.01655 20.7437 5.9087 20.7821 5.79745 20.782H1.98242V27.37H5.79745C5.90868 27.37 6.01651 27.4084 6.10276 27.4786C6.18901 27.5489 6.2484 27.6467 6.27094 27.7556C6.73214 29.9873 7.60261 32.087 8.85802 33.9966C8.91915 34.0896 8.94634 34.2008 8.93501 34.3114C8.92369 34.4221 8.87453 34.5255 8.79583 34.6041L6.09668 37.3033L10.7551 41.9617L13.4542 39.2625C13.5329 39.1839 13.6363 39.1348 13.747 39.1235C13.8576 39.1121 13.9688 39.1393 14.0618 39.2004C15.9713 40.4558 18.071 41.3262 20.3027 41.7874C20.4117 41.81 20.5095 41.8694 20.5797 41.9556C20.65 42.0419 20.6884 42.1497 20.6884 42.2609V46.076H23.4988V36.4514C21.9977 36.3943 20.541 36.0707 19.1614 35.4871C17.6868 34.8636 16.3624 33.9706 15.2252 32.8335ZM30.0802 24.5597H42.5824C42.5476 24.4039 42.5285 24.2423 42.5285 24.0762C42.5285 23.91 42.5474 23.7484 42.5824 23.5927H30.0802C30.0926 23.7527 30.0991 23.9139 30.0991 24.0762C30.0991 24.2384 30.0926 24.3996 30.0802 24.5597ZM28.6359 20.1064L34.561 14.1813H41.6758C41.6409 14.0256 41.6218 13.8639 41.6218 13.6978C41.6218 13.5317 41.6408 13.37 41.6758 13.2143H34.3606C34.2324 13.2143 34.1094 13.2652 34.0187 13.3558L27.9521 19.4224C28.0748 19.5273 28.1933 19.6369 28.3075 19.7509C28.4215 19.8651 28.5311 19.9837 28.6359 20.1064ZM27.9521 28.7298L34.0188 34.7964C34.0637 34.8413 34.117 34.8769 34.1757 34.9013C34.2343 34.9256 34.2972 34.9381 34.3607 34.9381H41.6759C41.641 34.7823 41.6219 34.6207 41.6219 34.4546C41.6219 34.2884 41.6409 34.1268 41.6759 33.9711H34.561L28.6359 28.046C28.5311 28.1687 28.4215 28.2872 28.3075 28.4014C28.1933 28.5154 28.0748 28.625 27.9521 28.7298ZM24.8579 18.0215L34.6153 3.80329H39.5604C39.5254 3.64753 39.5064 3.48592 39.5064 3.31977C39.5064 3.15363 39.5254 2.99202 39.5604 2.83626H34.3607C34.2822 2.83625 34.2049 2.85537 34.1354 2.89195C34.0659 2.92853 34.0064 2.98147 33.962 3.04621L23.7238 17.9653C23.8096 17.9617 23.8958 17.9595 23.9824 17.9595C24.2754 17.9594 24.5679 17.9802 24.8579 18.0215ZM23.9831 18.9264H23.9823L23.9811 18.9265H23.9819L23.9831 18.9264ZM23.7238 30.1871L33.962 45.1062C34.0064 45.1709 34.0659 45.2239 34.1354 45.2604C34.2049 45.297 34.2822 45.3161 34.3607 45.3161H39.5604C39.5255 45.1604 39.5064 44.9987 39.5064 44.8326C39.5064 44.6665 39.5254 44.5048 39.5604 44.3491H34.6153L24.8579 30.1308C24.5679 30.1722 24.2753 30.193 23.9823 30.193C23.8961 30.1928 23.8099 30.1908 23.7238 30.1871Z" fill="#CC1A70"/>
<path d="M27.616 27.7175C29.6271 25.7064 29.6271 22.4458 27.616 20.4347C25.6049 18.4237 22.3444 18.4237 20.3333 20.4347C18.3222 22.4458 18.3222 25.7064 20.3333 27.7175C22.3443 29.7286 25.605 29.7286 27.616 27.7175Z" fill="#CC1A70"/>
</g>
</g>
<defs>
<filter id="filter0_df_653_2980" x="-8.21271" y="-8.11894" width="64.3903" height="64.3903" filterUnits="userSpaceOnUse" color-interpolation-filters="sRGB">
<feFlood flood-opacity="0" result="BackgroundImageFix"/>
<feColorMatrix in="SourceAlpha" type="matrix" values="0 0 0 0 0 0 0 0 0 0 0 0 0 0 0 0 0 0 127 0" result="hardAlpha"/>
<feOffset/>
<feGaussianBlur stdDeviation="5.09757"/>
<feComposite in2="hardAlpha" operator="out"/>
<feColorMatrix type="matrix" values="0 0 0 0 1 0 0 0 0 0.996078 0 0 0 0 0.0117647 0 0 0 0.25 0"/>
<feBlend mode="normal" in2="BackgroundImageFix" result="effect1_dropShadow_653_2980"/>
<feBlend mode="normal" in="SourceGraphic" in2="effect1_dropShadow_653_2980" result="shape"/>
<feGaussianBlur stdDeviation="0.573476" result="effect2_foregroundBlur_653_2980"/>
</filter>
<filter id="filter1_df_653_2980" x="-8.21271" y="-8.11894" width="64.3903" height="64.3903" filterUnits="userSpaceOnUse" color-interpolation-filters="sRGB">
<feFlood flood-opacity="0" result="BackgroundImageFix"/>
<feColorMatrix in="SourceAlpha" type="matrix" values="0 0 0 0 0 0 0 0 0 0 0 0 0 0 0 0 0 0 127 0" result="hardAlpha"/>
<feOffset/>
<feGaussianBlur stdDeviation="5.09757"/>
<feComposite in2="hardAlpha" operator="out"/>
<feColorMatrix type="matrix" values="0 0 0 0 0.847059 0 0 0 0 0.0196078 0 0 0 0 0.156863 0 0 0 0.25 0"/>
<feBlend mode="normal" in2="BackgroundImageFix" result="effect1_dropShadow_653_2980"/>
<feBlend mode="normal" in="SourceGraphic" in2="effect1_dropShadow_653_2980" result="shape"/>
<feGaussianBlur stdDeviation="0.573476" result="effect2_foregroundBlur_653_2980"/>
</filter>
<filter id="filter2_df_653_2980" x="-8.21271" y="-8.11894" width="64.3903" height="64.3903" filterUnits="userSpaceOnUse" color-interpolation-filters="sRGB">
<feFlood flood-opacity="0" result="BackgroundImageFix"/>
<feColorMatrix in="SourceAlpha" type="matrix" values="0 0 0 0 0 0 0 0 0 0 0 0 0 0 0 0 0 0 127 0" result="hardAlpha"/>
<feOffset/>
<feGaussianBlur stdDeviation="5.09757"/>
<feComposite in2="hardAlpha" operator="out"/>
<feColorMatrix type="matrix" values="0 0 0 0 0.894118 0 0 0 0 0.141176 0 0 0 0 0.466667 0 0 0 0.25 0"/>
<feBlend mode="normal" in2="BackgroundImageFix" result="effect1_dropShadow_653_2980"/>
<feBlend mode="normal" in="SourceGraphic" in2="effect1_dropShadow_653_2980" result="shape"/>
<feGaussianBlur stdDeviation="0.573476" result="effect2_foregroundBlur_653_2980"/>
</filter>
<clipPath id="clip0_653_2980">
<rect width="48" height="48" fill="white"/>
</clipPath>
</defs>
</svg>
