<svg width="58" height="58" viewBox="0 0 58 58" fill="none" xmlns="http://www.w3.org/2000/svg">
<g style="mix-blend-mode:plus-lighter" filter="url(#filter0_df_644_10448)">
<path d="M27.3979 43.2412H44.1518V26.069H27.3979V43.2412ZM35.778 28.6755C39.014 28.6755 41.6467 31.3118 41.6467 34.5532C41.6448 36.1091 41.0259 37.6007 39.9257 38.7009C38.8255 39.801 37.3339 40.42 35.778 40.4219C32.5367 40.4219 29.9003 37.7891 29.9003 34.5532C29.902 32.9948 30.5218 31.5008 31.6237 30.3989C32.7256 29.2969 34.2197 28.6771 35.778 28.6755Z" fill="#FFE600"/>
<path d="M8.65625 38.5128C8.65673 39.1139 8.89571 39.6902 9.32073 40.1152C9.74575 40.5402 10.3221 40.7792 10.9231 40.7797H26.4923V25.6334C26.4923 25.6271 26.4887 25.6216 26.4887 25.6153C26.4887 25.6089 26.4923 25.6044 26.4923 25.5981V21.5842C26.4933 20.9105 26.7613 20.2647 27.2377 19.7883C27.7141 19.3119 28.3599 19.0439 29.0336 19.0429H42.5162C43.1899 19.0439 43.8357 19.3119 44.3121 19.7883C44.7884 20.2647 45.0565 20.9105 45.0575 21.5842V25.6089L45.0584 25.6162L45.0575 25.6225V40.7797H47.145C47.7447 40.7777 48.3192 40.538 48.7423 40.113C49.1654 39.688 49.4026 39.1125 49.4019 38.5128V16.5052H8.65625V38.5128ZM11.8052 20.2855C11.8052 19.8055 12.1956 19.4151 12.6756 19.4151H22.5726C23.0526 19.4151 23.443 19.8055 23.443 20.2855V25.1462C23.443 25.6262 23.0535 26.0165 22.5735 26.0165H12.6747C12.4441 26.016 12.2231 25.9241 12.0601 25.761C11.8971 25.5979 11.8055 25.3768 11.8052 25.1462V20.2855ZM12.2581 28.9852H22.9901C23.1102 28.9852 23.2254 29.033 23.3103 29.1179C23.3953 29.2028 23.443 29.318 23.443 29.4381C23.443 29.5582 23.3953 29.6734 23.3103 29.7583C23.2254 29.8432 23.1102 29.8909 22.9901 29.8909H12.2581C12.138 29.8909 12.0228 29.8432 11.9379 29.7583C11.8529 29.6734 11.8052 29.5582 11.8052 29.4381C11.8052 29.318 11.8529 29.2028 11.9379 29.1179C12.0228 29.033 12.138 28.9852 12.2581 28.9852ZM12.2581 32.9222H22.9901C23.1102 32.9222 23.2254 32.9699 23.3103 33.0548C23.3953 33.1397 23.443 33.2549 23.443 33.375C23.443 33.4951 23.3953 33.6103 23.3103 33.6952C23.2254 33.7801 23.1102 33.8278 22.9901 33.8278H12.2581C12.138 33.8278 12.0228 33.7801 11.9379 33.6952C11.8529 33.6103 11.8052 33.4951 11.8052 33.375C11.8052 33.2549 11.8529 33.1397 11.9379 33.0548C12.0228 32.9699 12.138 32.9222 12.2581 32.9222ZM12.2581 36.86H22.9901C23.1102 36.86 23.2254 36.9077 23.3103 36.9926C23.3953 37.0775 23.443 37.1927 23.443 37.3128C23.443 37.4329 23.3953 37.5481 23.3103 37.633C23.2254 37.7179 23.1102 37.7656 22.9901 37.7656H12.2581C12.138 37.7656 12.0228 37.7179 11.9379 37.633C11.8529 37.5481 11.8052 37.4329 11.8052 37.3128C11.8052 37.1927 11.8529 37.0775 11.9379 36.9926C12.0228 36.9077 12.138 36.86 12.2581 36.86Z" fill="#FFE600"/>
<path d="M42.5162 19.9485H29.0336C28.1316 19.9485 27.398 20.6821 27.398 21.5841V25.1633H44.1518V21.5841C44.1518 20.6821 43.4182 19.9485 42.5162 19.9485ZM36.0606 23.4806H35.4873C35.266 23.4704 35.0571 23.3754 34.904 23.2151C34.751 23.0549 34.6656 22.8418 34.6656 22.6202C34.6656 22.3986 34.751 22.1856 34.904 22.0253C35.0571 21.8651 35.266 21.77 35.4873 21.7598H36.0606C36.282 21.77 36.4909 21.8651 36.644 22.0253C36.797 22.1856 36.8824 22.3986 36.8824 22.6202C36.8824 22.8418 36.797 23.0549 36.644 23.2151C36.4909 23.3754 36.282 23.4704 36.0606 23.4806ZM33.8744 34.421C33.9218 34.3848 33.9759 34.3584 34.0335 34.3433C34.0912 34.3282 34.1513 34.3247 34.2103 34.3329C34.2693 34.3412 34.3262 34.3611 34.3775 34.3914C34.4288 34.4217 34.4736 34.462 34.5092 34.5097L34.9983 35.1582L37.103 33.3306C37.1476 33.2894 37.2 33.2577 37.257 33.2372C37.3141 33.2166 37.3747 33.2078 37.4353 33.2112C37.4958 33.2145 37.5551 33.23 37.6095 33.2567C37.664 33.2834 37.7125 33.3207 37.7522 33.3666C37.792 33.4124 37.8221 33.4657 37.8409 33.5234C37.8596 33.581 37.8666 33.6419 37.8613 33.7023C37.8561 33.7627 37.8388 33.8215 37.8105 33.8751C37.7821 33.9287 37.7433 33.976 37.6962 34.0143L35.2265 36.1598C35.1797 36.2008 35.125 36.2316 35.0657 36.2504C35.0064 36.2691 34.9439 36.2754 34.8821 36.2689C34.8202 36.2623 34.7604 36.2431 34.7064 36.2123C34.6524 36.1815 34.6053 36.1399 34.5681 36.0901L33.7865 35.0549C33.7143 34.9591 33.683 34.8385 33.6997 34.7196C33.7163 34.6007 33.7786 34.4933 33.8744 34.421ZM47.145 8.9375H10.9231C10.3234 8.93678 9.74791 9.17401 9.32292 9.59713C8.89793 10.0203 8.65817 10.5947 8.65625 11.1944V15.5995H49.4019V11.1944C49.4012 10.5961 49.1632 10.0224 48.7401 9.59933C48.317 9.17623 47.7434 8.93822 47.145 8.9375ZM12.3043 13.1742C11.8206 13.1742 11.3986 12.7512 11.3986 12.2685C11.3986 11.7858 11.8206 11.3629 12.3043 11.3629C12.7879 11.3629 13.2099 11.7858 13.2099 12.2685C13.2099 12.7512 12.7861 13.1742 12.3043 13.1742ZM15.6932 13.1742C15.2114 13.1742 14.7876 12.7512 14.7876 12.2685C14.7876 11.7858 15.2114 11.3629 15.6932 11.3629C16.175 11.3629 16.5989 11.7858 16.5989 12.2685C16.5989 12.7512 16.1759 13.1742 15.6932 13.1742ZM19.0831 13.1742C18.6013 13.1742 18.1775 12.7512 18.1775 12.2685C18.1775 11.7858 18.6013 11.3629 19.0831 11.3629C19.5658 11.3629 19.9888 11.7858 19.9888 12.2685C19.9888 12.7512 19.5658 13.1742 19.0831 13.1742ZM43.967 13.1742H36.5986C36.3654 13.1637 36.1452 13.0638 35.9839 12.8951C35.8226 12.7264 35.7325 12.5019 35.7325 12.2685C35.7325 12.0351 35.8226 11.8107 35.9839 11.642C36.1452 11.4733 36.3654 11.3733 36.5986 11.3629H43.967C44.2002 11.3733 44.4204 11.4733 44.5817 11.642C44.7431 11.8107 44.8331 12.0351 44.8331 12.2685C44.8331 12.5019 44.7431 12.7264 44.5817 12.8951C44.4204 13.0638 44.2002 13.1637 43.967 13.1742ZM27.398 47.506C27.398 48.4116 28.1316 49.1488 29.0336 49.1488H42.5162C43.4182 49.1488 44.1518 48.4116 44.1518 47.506V44.1469H27.398V47.506ZM35.5453 45.7626C36.0271 45.7626 36.451 46.1864 36.451 46.6682C36.451 47.1509 36.0271 47.5739 35.5453 47.5739C35.0626 47.5739 34.6396 47.1509 34.6396 46.6682C34.6396 46.1864 35.0626 45.7626 35.5453 45.7626Z" fill="#FFE600"/>
</g>
<g style="mix-blend-mode:plus-lighter" filter="url(#filter1_df_644_10448)">
<path d="M27.3979 43.2412H44.1518V26.069H27.3979V43.2412ZM35.778 28.6755C39.014 28.6755 41.6467 31.3118 41.6467 34.5532C41.6448 36.1091 41.0259 37.6007 39.9257 38.7009C38.8255 39.801 37.3339 40.42 35.778 40.4219C32.5367 40.4219 29.9003 37.7891 29.9003 34.5532C29.902 32.9948 30.5218 31.5008 31.6237 30.3989C32.7256 29.2969 34.2197 28.6771 35.778 28.6755Z" fill="#BC010A"/>
<path d="M8.65625 38.5128C8.65673 39.1139 8.89571 39.6902 9.32073 40.1152C9.74575 40.5402 10.3221 40.7792 10.9231 40.7797H26.4923V25.6334C26.4923 25.6271 26.4887 25.6216 26.4887 25.6153C26.4887 25.6089 26.4923 25.6044 26.4923 25.5981V21.5842C26.4933 20.9105 26.7613 20.2647 27.2377 19.7883C27.7141 19.3119 28.3599 19.0439 29.0336 19.0429H42.5162C43.1899 19.0439 43.8357 19.3119 44.3121 19.7883C44.7884 20.2647 45.0565 20.9105 45.0575 21.5842V25.6089L45.0584 25.6162L45.0575 25.6225V40.7797H47.145C47.7447 40.7777 48.3192 40.538 48.7423 40.113C49.1654 39.688 49.4026 39.1125 49.4019 38.5128V16.5052H8.65625V38.5128ZM11.8052 20.2855C11.8052 19.8055 12.1956 19.4151 12.6756 19.4151H22.5726C23.0526 19.4151 23.443 19.8055 23.443 20.2855V25.1462C23.443 25.6262 23.0535 26.0165 22.5735 26.0165H12.6747C12.4441 26.016 12.2231 25.9241 12.0601 25.761C11.8971 25.5979 11.8055 25.3768 11.8052 25.1462V20.2855ZM12.2581 28.9852H22.9901C23.1102 28.9852 23.2254 29.033 23.3103 29.1179C23.3953 29.2028 23.443 29.318 23.443 29.4381C23.443 29.5582 23.3953 29.6734 23.3103 29.7583C23.2254 29.8432 23.1102 29.8909 22.9901 29.8909H12.2581C12.138 29.8909 12.0228 29.8432 11.9379 29.7583C11.8529 29.6734 11.8052 29.5582 11.8052 29.4381C11.8052 29.318 11.8529 29.2028 11.9379 29.1179C12.0228 29.033 12.138 28.9852 12.2581 28.9852ZM12.2581 32.9222H22.9901C23.1102 32.9222 23.2254 32.9699 23.3103 33.0548C23.3953 33.1397 23.443 33.2549 23.443 33.375C23.443 33.4951 23.3953 33.6103 23.3103 33.6952C23.2254 33.7801 23.1102 33.8278 22.9901 33.8278H12.2581C12.138 33.8278 12.0228 33.7801 11.9379 33.6952C11.8529 33.6103 11.8052 33.4951 11.8052 33.375C11.8052 33.2549 11.8529 33.1397 11.9379 33.0548C12.0228 32.9699 12.138 32.9222 12.2581 32.9222ZM12.2581 36.86H22.9901C23.1102 36.86 23.2254 36.9077 23.3103 36.9926C23.3953 37.0775 23.443 37.1927 23.443 37.3128C23.443 37.4329 23.3953 37.5481 23.3103 37.633C23.2254 37.7179 23.1102 37.7656 22.9901 37.7656H12.2581C12.138 37.7656 12.0228 37.7179 11.9379 37.633C11.8529 37.5481 11.8052 37.4329 11.8052 37.3128C11.8052 37.1927 11.8529 37.0775 11.9379 36.9926C12.0228 36.9077 12.138 36.86 12.2581 36.86Z" fill="#BC010A"/>
<path d="M42.5162 19.9485H29.0336C28.1316 19.9485 27.398 20.6821 27.398 21.5841V25.1633H44.1518V21.5841C44.1518 20.6821 43.4182 19.9485 42.5162 19.9485ZM36.0606 23.4806H35.4873C35.266 23.4704 35.0571 23.3754 34.904 23.2151C34.751 23.0549 34.6656 22.8418 34.6656 22.6202C34.6656 22.3986 34.751 22.1856 34.904 22.0253C35.0571 21.8651 35.266 21.77 35.4873 21.7598H36.0606C36.282 21.77 36.4909 21.8651 36.644 22.0253C36.797 22.1856 36.8824 22.3986 36.8824 22.6202C36.8824 22.8418 36.797 23.0549 36.644 23.2151C36.4909 23.3754 36.282 23.4704 36.0606 23.4806ZM33.8744 34.421C33.9218 34.3848 33.9759 34.3584 34.0335 34.3433C34.0912 34.3282 34.1513 34.3247 34.2103 34.3329C34.2693 34.3412 34.3262 34.3611 34.3775 34.3914C34.4288 34.4217 34.4736 34.462 34.5092 34.5097L34.9983 35.1582L37.103 33.3306C37.1476 33.2894 37.2 33.2577 37.257 33.2372C37.3141 33.2166 37.3747 33.2078 37.4353 33.2112C37.4958 33.2145 37.5551 33.23 37.6095 33.2567C37.664 33.2834 37.7125 33.3207 37.7522 33.3666C37.792 33.4124 37.8221 33.4657 37.8409 33.5234C37.8596 33.581 37.8666 33.6419 37.8613 33.7023C37.8561 33.7627 37.8388 33.8215 37.8105 33.8751C37.7821 33.9287 37.7433 33.976 37.6962 34.0143L35.2265 36.1598C35.1797 36.2008 35.125 36.2316 35.0657 36.2504C35.0064 36.2691 34.9439 36.2754 34.8821 36.2689C34.8202 36.2623 34.7604 36.2431 34.7064 36.2123C34.6524 36.1815 34.6053 36.1399 34.5681 36.0901L33.7865 35.0549C33.7143 34.9591 33.683 34.8385 33.6997 34.7196C33.7163 34.6007 33.7786 34.4933 33.8744 34.421ZM47.145 8.9375H10.9231C10.3234 8.93678 9.74791 9.17401 9.32292 9.59713C8.89793 10.0203 8.65817 10.5947 8.65625 11.1944V15.5995H49.4019V11.1944C49.4012 10.5961 49.1632 10.0224 48.7401 9.59933C48.317 9.17623 47.7434 8.93822 47.145 8.9375ZM12.3043 13.1742C11.8206 13.1742 11.3986 12.7512 11.3986 12.2685C11.3986 11.7858 11.8206 11.3629 12.3043 11.3629C12.7879 11.3629 13.2099 11.7858 13.2099 12.2685C13.2099 12.7512 12.7861 13.1742 12.3043 13.1742ZM15.6932 13.1742C15.2114 13.1742 14.7876 12.7512 14.7876 12.2685C14.7876 11.7858 15.2114 11.3629 15.6932 11.3629C16.175 11.3629 16.5989 11.7858 16.5989 12.2685C16.5989 12.7512 16.1759 13.1742 15.6932 13.1742ZM19.0831 13.1742C18.6013 13.1742 18.1775 12.7512 18.1775 12.2685C18.1775 11.7858 18.6013 11.3629 19.0831 11.3629C19.5658 11.3629 19.9888 11.7858 19.9888 12.2685C19.9888 12.7512 19.5658 13.1742 19.0831 13.1742ZM43.967 13.1742H36.5986C36.3654 13.1637 36.1452 13.0638 35.9839 12.8951C35.8226 12.7264 35.7325 12.5019 35.7325 12.2685C35.7325 12.0351 35.8226 11.8107 35.9839 11.642C36.1452 11.4733 36.3654 11.3733 36.5986 11.3629H43.967C44.2002 11.3733 44.4204 11.4733 44.5817 11.642C44.7431 11.8107 44.8331 12.0351 44.8331 12.2685C44.8331 12.5019 44.7431 12.7264 44.5817 12.8951C44.4204 13.0638 44.2002 13.1637 43.967 13.1742ZM27.398 47.506C27.398 48.4116 28.1316 49.1488 29.0336 49.1488H42.5162C43.4182 49.1488 44.1518 48.4116 44.1518 47.506V44.1469H27.398V47.506ZM35.5453 45.7626C36.0271 45.7626 36.451 46.1864 36.451 46.6682C36.451 47.1509 36.0271 47.5739 35.5453 47.5739C35.0626 47.5739 34.6396 47.1509 34.6396 46.6682C34.6396 46.1864 35.0626 45.7626 35.5453 45.7626Z" fill="#BC010A"/>
</g>
<g style="mix-blend-mode:plus-lighter" filter="url(#filter2_df_644_10448)">
<path d="M27.3979 43.2412H44.1518V26.069H27.3979V43.2412ZM35.778 28.6755C39.014 28.6755 41.6467 31.3118 41.6467 34.5532C41.6448 36.1091 41.0259 37.6007 39.9257 38.7009C38.8255 39.801 37.3339 40.42 35.778 40.4219C32.5367 40.4219 29.9003 37.7891 29.9003 34.5532C29.902 32.9948 30.5218 31.5008 31.6237 30.3989C32.7256 29.2969 34.2197 28.6771 35.778 28.6755Z" fill="#CC1A70"/>
<path d="M8.65625 38.5128C8.65673 39.1139 8.89571 39.6902 9.32073 40.1152C9.74575 40.5402 10.3221 40.7792 10.9231 40.7797H26.4923V25.6334C26.4923 25.6271 26.4887 25.6216 26.4887 25.6153C26.4887 25.6089 26.4923 25.6044 26.4923 25.5981V21.5842C26.4933 20.9105 26.7613 20.2647 27.2377 19.7883C27.7141 19.3119 28.3599 19.0439 29.0336 19.0429H42.5162C43.1899 19.0439 43.8357 19.3119 44.3121 19.7883C44.7884 20.2647 45.0565 20.9105 45.0575 21.5842V25.6089L45.0584 25.6162L45.0575 25.6225V40.7797H47.145C47.7447 40.7777 48.3192 40.538 48.7423 40.113C49.1654 39.688 49.4026 39.1125 49.4019 38.5128V16.5052H8.65625V38.5128ZM11.8052 20.2855C11.8052 19.8055 12.1956 19.4151 12.6756 19.4151H22.5726C23.0526 19.4151 23.443 19.8055 23.443 20.2855V25.1462C23.443 25.6262 23.0535 26.0165 22.5735 26.0165H12.6747C12.4441 26.016 12.2231 25.9241 12.0601 25.761C11.8971 25.5979 11.8055 25.3768 11.8052 25.1462V20.2855ZM12.2581 28.9852H22.9901C23.1102 28.9852 23.2254 29.033 23.3103 29.1179C23.3953 29.2028 23.443 29.318 23.443 29.4381C23.443 29.5582 23.3953 29.6734 23.3103 29.7583C23.2254 29.8432 23.1102 29.8909 22.9901 29.8909H12.2581C12.138 29.8909 12.0228 29.8432 11.9379 29.7583C11.8529 29.6734 11.8052 29.5582 11.8052 29.4381C11.8052 29.318 11.8529 29.2028 11.9379 29.1179C12.0228 29.033 12.138 28.9852 12.2581 28.9852ZM12.2581 32.9222H22.9901C23.1102 32.9222 23.2254 32.9699 23.3103 33.0548C23.3953 33.1397 23.443 33.2549 23.443 33.375C23.443 33.4951 23.3953 33.6103 23.3103 33.6952C23.2254 33.7801 23.1102 33.8278 22.9901 33.8278H12.2581C12.138 33.8278 12.0228 33.7801 11.9379 33.6952C11.8529 33.6103 11.8052 33.4951 11.8052 33.375C11.8052 33.2549 11.8529 33.1397 11.9379 33.0548C12.0228 32.9699 12.138 32.9222 12.2581 32.9222ZM12.2581 36.86H22.9901C23.1102 36.86 23.2254 36.9077 23.3103 36.9926C23.3953 37.0775 23.443 37.1927 23.443 37.3128C23.443 37.4329 23.3953 37.5481 23.3103 37.633C23.2254 37.7179 23.1102 37.7656 22.9901 37.7656H12.2581C12.138 37.7656 12.0228 37.7179 11.9379 37.633C11.8529 37.5481 11.8052 37.4329 11.8052 37.3128C11.8052 37.1927 11.8529 37.0775 11.9379 36.9926C12.0228 36.9077 12.138 36.86 12.2581 36.86Z" fill="#CC1A70"/>
<path d="M42.5162 19.9485H29.0336C28.1316 19.9485 27.398 20.6821 27.398 21.5841V25.1633H44.1518V21.5841C44.1518 20.6821 43.4182 19.9485 42.5162 19.9485ZM36.0606 23.4806H35.4873C35.266 23.4704 35.0571 23.3754 34.904 23.2151C34.751 23.0549 34.6656 22.8418 34.6656 22.6202C34.6656 22.3986 34.751 22.1856 34.904 22.0253C35.0571 21.8651 35.266 21.77 35.4873 21.7598H36.0606C36.282 21.77 36.4909 21.8651 36.644 22.0253C36.797 22.1856 36.8824 22.3986 36.8824 22.6202C36.8824 22.8418 36.797 23.0549 36.644 23.2151C36.4909 23.3754 36.282 23.4704 36.0606 23.4806ZM33.8744 34.421C33.9218 34.3848 33.9759 34.3584 34.0335 34.3433C34.0912 34.3282 34.1513 34.3247 34.2103 34.3329C34.2693 34.3412 34.3262 34.3611 34.3775 34.3914C34.4288 34.4217 34.4736 34.462 34.5092 34.5097L34.9983 35.1582L37.103 33.3306C37.1476 33.2894 37.2 33.2577 37.257 33.2372C37.3141 33.2166 37.3747 33.2078 37.4353 33.2112C37.4958 33.2145 37.5551 33.23 37.6095 33.2567C37.664 33.2834 37.7125 33.3207 37.7522 33.3666C37.792 33.4124 37.8221 33.4657 37.8409 33.5234C37.8596 33.581 37.8666 33.6419 37.8613 33.7023C37.8561 33.7627 37.8388 33.8215 37.8105 33.8751C37.7821 33.9287 37.7433 33.976 37.6962 34.0143L35.2265 36.1598C35.1797 36.2008 35.125 36.2316 35.0657 36.2504C35.0064 36.2691 34.9439 36.2754 34.8821 36.2689C34.8202 36.2623 34.7604 36.2431 34.7064 36.2123C34.6524 36.1815 34.6053 36.1399 34.5681 36.0901L33.7865 35.0549C33.7143 34.9591 33.683 34.8385 33.6997 34.7196C33.7163 34.6007 33.7786 34.4933 33.8744 34.421ZM47.145 8.9375H10.9231C10.3234 8.93678 9.74791 9.17401 9.32292 9.59713C8.89793 10.0203 8.65817 10.5947 8.65625 11.1944V15.5995H49.4019V11.1944C49.4012 10.5961 49.1632 10.0224 48.7401 9.59933C48.317 9.17623 47.7434 8.93822 47.145 8.9375ZM12.3043 13.1742C11.8206 13.1742 11.3986 12.7512 11.3986 12.2685C11.3986 11.7858 11.8206 11.3629 12.3043 11.3629C12.7879 11.3629 13.2099 11.7858 13.2099 12.2685C13.2099 12.7512 12.7861 13.1742 12.3043 13.1742ZM15.6932 13.1742C15.2114 13.1742 14.7876 12.7512 14.7876 12.2685C14.7876 11.7858 15.2114 11.3629 15.6932 11.3629C16.175 11.3629 16.5989 11.7858 16.5989 12.2685C16.5989 12.7512 16.1759 13.1742 15.6932 13.1742ZM19.0831 13.1742C18.6013 13.1742 18.1775 12.7512 18.1775 12.2685C18.1775 11.7858 18.6013 11.3629 19.0831 11.3629C19.5658 11.3629 19.9888 11.7858 19.9888 12.2685C19.9888 12.7512 19.5658 13.1742 19.0831 13.1742ZM43.967 13.1742H36.5986C36.3654 13.1637 36.1452 13.0638 35.9839 12.8951C35.8226 12.7264 35.7325 12.5019 35.7325 12.2685C35.7325 12.0351 35.8226 11.8107 35.9839 11.642C36.1452 11.4733 36.3654 11.3733 36.5986 11.3629H43.967C44.2002 11.3733 44.4204 11.4733 44.5817 11.642C44.7431 11.8107 44.8331 12.0351 44.8331 12.2685C44.8331 12.5019 44.7431 12.7264 44.5817 12.8951C44.4204 13.0638 44.2002 13.1637 43.967 13.1742ZM27.398 47.506C27.398 48.4116 28.1316 49.1488 29.0336 49.1488H42.5162C43.4182 49.1488 44.1518 48.4116 44.1518 47.506V44.1469H27.398V47.506ZM35.5453 45.7626C36.0271 45.7626 36.451 46.1864 36.451 46.6682C36.451 47.1509 36.0271 47.5739 35.5453 47.5739C35.0626 47.5739 34.6396 47.1509 34.6396 46.6682C34.6396 46.1864 35.0626 45.7626 35.5453 45.7626Z" fill="#CC1A70"/>
</g>
<defs>
<filter id="filter0_df_644_10448" x="0.322918" y="0.604168" width="57.4123" height="56.878" filterUnits="userSpaceOnUse" color-interpolation-filters="sRGB">
<feFlood flood-opacity="0" result="BackgroundImageFix"/>
<feColorMatrix in="SourceAlpha" type="matrix" values="0 0 0 0 0 0 0 0 0 0 0 0 0 0 0 0 0 0 127 0" result="hardAlpha"/>
<feOffset/>
<feGaussianBlur stdDeviation="4.16667"/>
<feComposite in2="hardAlpha" operator="out"/>
<feColorMatrix type="matrix" values="0 0 0 0 1 0 0 0 0 0.996078 0 0 0 0 0.0117647 0 0 0 0.25 0"/>
<feBlend mode="normal" in2="BackgroundImageFix" result="effect1_dropShadow_644_10448"/>
<feBlend mode="normal" in="SourceGraphic" in2="effect1_dropShadow_644_10448" result="shape"/>
<feGaussianBlur stdDeviation="0.46875" result="effect2_foregroundBlur_644_10448"/>
</filter>
<filter id="filter1_df_644_10448" x="0.322918" y="0.604168" width="57.4123" height="56.878" filterUnits="userSpaceOnUse" color-interpolation-filters="sRGB">
<feFlood flood-opacity="0" result="BackgroundImageFix"/>
<feColorMatrix in="SourceAlpha" type="matrix" values="0 0 0 0 0 0 0 0 0 0 0 0 0 0 0 0 0 0 127 0" result="hardAlpha"/>
<feOffset/>
<feGaussianBlur stdDeviation="4.16667"/>
<feComposite in2="hardAlpha" operator="out"/>
<feColorMatrix type="matrix" values="0 0 0 0 0.847059 0 0 0 0 0.0196078 0 0 0 0 0.156863 0 0 0 0.25 0"/>
<feBlend mode="normal" in2="BackgroundImageFix" result="effect1_dropShadow_644_10448"/>
<feBlend mode="normal" in="SourceGraphic" in2="effect1_dropShadow_644_10448" result="shape"/>
<feGaussianBlur stdDeviation="0.46875" result="effect2_foregroundBlur_644_10448"/>
</filter>
<filter id="filter2_df_644_10448" x="0.322918" y="0.604168" width="57.4123" height="56.878" filterUnits="userSpaceOnUse" color-interpolation-filters="sRGB">
<feFlood flood-opacity="0" result="BackgroundImageFix"/>
<feColorMatrix in="SourceAlpha" type="matrix" values="0 0 0 0 0 0 0 0 0 0 0 0 0 0 0 0 0 0 127 0" result="hardAlpha"/>
<feOffset/>
<feGaussianBlur stdDeviation="4.16667"/>
<feComposite in2="hardAlpha" operator="out"/>
<feColorMatrix type="matrix" values="0 0 0 0 0.894118 0 0 0 0 0.141176 0 0 0 0 0.466667 0 0 0 0.25 0"/>
<feBlend mode="normal" in2="BackgroundImageFix" result="effect1_dropShadow_644_10448"/>
<feBlend mode="normal" in="SourceGraphic" in2="effect1_dropShadow_644_10448" result="shape"/>
<feGaussianBlur stdDeviation="0.46875" result="effect2_foregroundBlur_644_10448"/>
</filter>
</defs>
</svg>
