<svg width="54" height="54" viewBox="0 0 54 54" fill="none" xmlns="http://www.w3.org/2000/svg">
<g style="mix-blend-mode:plus-lighter" filter="url(#filter0_df_644_10546)">
<path fill-rule="evenodd" clip-rule="evenodd" d="M15.5714 12.2271V8.42859C15.5714 7.63961 14.9318 7 14.1429 7H8.42859C7.63961 7 7 7.63961 7 8.42859V37.3972C7.23144 37.2611 7.48108 37.1586 7.74141 37.0929L15.5714 12.2271ZM25.63 13.5714L26.13 11.9793C26.3665 11.2298 25.9508 10.4305 25.2014 10.1936L19.75 8.46641C18.9975 8.23016 18.1959 8.64836 17.9593 9.4007L9.2907 36.9286L25.63 13.5714ZM33.9286 19.1521L34.9086 17.7542C35.0162 17.6005 35.0924 17.427 35.133 17.2437C35.1735 17.0605 35.1775 16.8711 35.1448 16.6863C35.1122 16.5015 35.0434 16.3249 34.9424 16.1667C34.8414 16.0085 34.7103 15.8717 34.5565 15.7642L29.875 12.4857C29.7212 12.3781 29.5478 12.3019 29.3645 12.2613C29.1813 12.2208 28.9918 12.2168 28.807 12.2494C28.6222 12.2821 28.4457 12.3509 28.2875 12.4519C28.1293 12.5528 27.9925 12.684 27.885 12.8378L11.0386 36.9243L33.9286 19.1521ZM40.2307 26.9086L41.5421 25.8986C41.6912 25.7844 41.8164 25.6419 41.9103 25.4792C42.0043 25.3166 42.0653 25.137 42.0897 24.9508C42.1142 24.7645 42.1017 24.5753 42.053 24.3939C42.0042 24.2125 41.9202 24.0425 41.8056 23.8936L38.3199 19.365C38.2067 19.2153 38.0648 19.0897 37.9026 18.9953C37.7404 18.9009 37.5611 18.8397 37.375 18.8151C37.189 18.7906 36.9999 18.8033 36.8188 18.8524C36.6376 18.9016 36.4681 18.9862 36.3199 19.1014L13.8736 36.53L40.2307 26.9086Z" fill="#FFE600"/>
<path d="M10.5717 43.4286C10.9662 43.4286 11.286 43.1088 11.286 42.7143C11.286 42.3198 10.9662 42 10.5717 42C10.1772 42 9.85742 42.3198 9.85742 42.7143C9.85742 43.1088 10.1772 43.4286 10.5717 43.4286Z" fill="#FFE600"/>
<path fill-rule="evenodd" clip-rule="evenodd" d="M25.5715 38.4287H32.0001V47.0001H25.5715V38.4287ZM17.7144 38.4287H24.1429V47.0001H17.7144V38.4287ZM45.5715 38.4287H41.2858V47.0001H45.5715C46.3605 47.0001 47.0001 46.3605 47.0001 45.5715V39.8572C47.0001 39.0683 46.3605 38.4287 45.5715 38.4287ZM33.4287 38.4287H39.8572V47.0001H33.4287V38.4287Z" fill="#FFE600"/>
<path d="M7 39.8572V45.5715C7 46.3605 7.63961 47.0001 8.42859 47.0001H16.2857V38.4287H8.42859C7.63961 38.4287 7 39.0683 7 39.8572ZM10.5714 40.5715C11.7548 40.5715 12.7143 41.5309 12.7143 42.7144C12.7143 43.8979 11.7549 44.8573 10.5714 44.8573C9.38789 44.8573 8.42852 43.8979 8.42852 42.7144C8.42852 41.5309 9.38797 40.5715 10.5714 40.5715Z" fill="#FFE600"/>
<path fill-rule="evenodd" clip-rule="evenodd" d="M45.4189 35.6571C45.5953 35.5928 45.7572 35.4943 45.8955 35.3674C46.0338 35.2404 46.1458 35.0875 46.2249 34.9172C46.304 34.747 46.3489 34.5629 46.3568 34.3753C46.3647 34.1877 46.3356 34.0005 46.2711 33.8242L44.314 28.4592C44.2497 28.2828 44.1512 28.1208 44.0243 27.9825C43.8974 27.8442 43.7444 27.7323 43.5742 27.6532C43.4039 27.574 43.2198 27.5292 43.0322 27.5213C42.8447 27.5134 42.6574 27.5425 42.4811 27.607C39.5046 28.6957 26.181 33.5585 16.7539 37H41.7446L45.4189 35.6571Z" fill="#FFE600"/>
</g>
<g style="mix-blend-mode:plus-lighter" filter="url(#filter1_df_644_10546)">
<path fill-rule="evenodd" clip-rule="evenodd" d="M15.5714 12.2271V8.42859C15.5714 7.63961 14.9318 7 14.1429 7H8.42859C7.63961 7 7 7.63961 7 8.42859V37.3972C7.23144 37.2611 7.48108 37.1586 7.74141 37.0929L15.5714 12.2271ZM25.63 13.5714L26.13 11.9793C26.3665 11.2298 25.9508 10.4305 25.2014 10.1936L19.75 8.46641C18.9975 8.23016 18.1959 8.64836 17.9593 9.4007L9.2907 36.9286L25.63 13.5714ZM33.9286 19.1521L34.9086 17.7542C35.0162 17.6005 35.0924 17.427 35.133 17.2437C35.1735 17.0605 35.1775 16.8711 35.1448 16.6863C35.1122 16.5015 35.0434 16.3249 34.9424 16.1667C34.8414 16.0085 34.7103 15.8717 34.5565 15.7642L29.875 12.4857C29.7212 12.3781 29.5478 12.3019 29.3645 12.2613C29.1813 12.2208 28.9918 12.2168 28.807 12.2494C28.6222 12.2821 28.4457 12.3509 28.2875 12.4519C28.1293 12.5528 27.9925 12.684 27.885 12.8378L11.0386 36.9243L33.9286 19.1521ZM40.2307 26.9086L41.5421 25.8986C41.6912 25.7844 41.8164 25.6419 41.9103 25.4792C42.0043 25.3166 42.0653 25.137 42.0897 24.9508C42.1142 24.7645 42.1017 24.5753 42.053 24.3939C42.0042 24.2125 41.9202 24.0425 41.8056 23.8936L38.3199 19.365C38.2067 19.2153 38.0648 19.0897 37.9026 18.9953C37.7404 18.9009 37.5611 18.8397 37.375 18.8151C37.189 18.7906 36.9999 18.8033 36.8188 18.8524C36.6376 18.9016 36.4681 18.9862 36.3199 19.1014L13.8736 36.53L40.2307 26.9086Z" fill="#BC010A"/>
<path d="M10.5717 43.4286C10.9662 43.4286 11.286 43.1088 11.286 42.7143C11.286 42.3198 10.9662 42 10.5717 42C10.1772 42 9.85742 42.3198 9.85742 42.7143C9.85742 43.1088 10.1772 43.4286 10.5717 43.4286Z" fill="#BC010A"/>
<path fill-rule="evenodd" clip-rule="evenodd" d="M25.5715 38.4287H32.0001V47.0001H25.5715V38.4287ZM17.7144 38.4287H24.1429V47.0001H17.7144V38.4287ZM45.5715 38.4287H41.2858V47.0001H45.5715C46.3605 47.0001 47.0001 46.3605 47.0001 45.5715V39.8572C47.0001 39.0683 46.3605 38.4287 45.5715 38.4287ZM33.4287 38.4287H39.8572V47.0001H33.4287V38.4287Z" fill="#BC010A"/>
<path d="M7 39.8572V45.5715C7 46.3605 7.63961 47.0001 8.42859 47.0001H16.2857V38.4287H8.42859C7.63961 38.4287 7 39.0683 7 39.8572ZM10.5714 40.5715C11.7548 40.5715 12.7143 41.5309 12.7143 42.7144C12.7143 43.8979 11.7549 44.8573 10.5714 44.8573C9.38789 44.8573 8.42852 43.8979 8.42852 42.7144C8.42852 41.5309 9.38797 40.5715 10.5714 40.5715Z" fill="#BC010A"/>
<path fill-rule="evenodd" clip-rule="evenodd" d="M45.4189 35.6571C45.5953 35.5928 45.7572 35.4943 45.8955 35.3674C46.0338 35.2404 46.1458 35.0875 46.2249 34.9172C46.304 34.747 46.3489 34.5629 46.3568 34.3753C46.3647 34.1877 46.3356 34.0005 46.2711 33.8242L44.314 28.4592C44.2497 28.2828 44.1512 28.1208 44.0243 27.9825C43.8974 27.8442 43.7444 27.7323 43.5742 27.6532C43.4039 27.574 43.2198 27.5292 43.0322 27.5213C42.8447 27.5134 42.6574 27.5425 42.4811 27.607C39.5046 28.6957 26.181 33.5585 16.7539 37H41.7446L45.4189 35.6571Z" fill="#BC010A"/>
</g>
<g style="mix-blend-mode:plus-lighter" filter="url(#filter2_df_644_10546)">
<path fill-rule="evenodd" clip-rule="evenodd" d="M15.5714 12.2271V8.42859C15.5714 7.63961 14.9318 7 14.1429 7H8.42859C7.63961 7 7 7.63961 7 8.42859V37.3972C7.23144 37.2611 7.48108 37.1586 7.74141 37.0929L15.5714 12.2271ZM25.63 13.5714L26.13 11.9793C26.3665 11.2298 25.9508 10.4305 25.2014 10.1936L19.75 8.46641C18.9975 8.23016 18.1959 8.64836 17.9593 9.4007L9.2907 36.9286L25.63 13.5714ZM33.9286 19.1521L34.9086 17.7542C35.0162 17.6005 35.0924 17.427 35.133 17.2437C35.1735 17.0605 35.1775 16.8711 35.1448 16.6863C35.1122 16.5015 35.0434 16.3249 34.9424 16.1667C34.8414 16.0085 34.7103 15.8717 34.5565 15.7642L29.875 12.4857C29.7212 12.3781 29.5478 12.3019 29.3645 12.2613C29.1813 12.2208 28.9918 12.2168 28.807 12.2494C28.6222 12.2821 28.4457 12.3509 28.2875 12.4519C28.1293 12.5528 27.9925 12.684 27.885 12.8378L11.0386 36.9243L33.9286 19.1521ZM40.2307 26.9086L41.5421 25.8986C41.6912 25.7844 41.8164 25.6419 41.9103 25.4792C42.0043 25.3166 42.0653 25.137 42.0897 24.9508C42.1142 24.7645 42.1017 24.5753 42.053 24.3939C42.0042 24.2125 41.9202 24.0425 41.8056 23.8936L38.3199 19.365C38.2067 19.2153 38.0648 19.0897 37.9026 18.9953C37.7404 18.9009 37.5611 18.8397 37.375 18.8151C37.189 18.7906 36.9999 18.8033 36.8188 18.8524C36.6376 18.9016 36.4681 18.9862 36.3199 19.1014L13.8736 36.53L40.2307 26.9086Z" fill="#CC1A70"/>
<path d="M10.5717 43.4286C10.9662 43.4286 11.286 43.1088 11.286 42.7143C11.286 42.3198 10.9662 42 10.5717 42C10.1772 42 9.85742 42.3198 9.85742 42.7143C9.85742 43.1088 10.1772 43.4286 10.5717 43.4286Z" fill="#CC1A70"/>
<path fill-rule="evenodd" clip-rule="evenodd" d="M25.5715 38.4287H32.0001V47.0001H25.5715V38.4287ZM17.7144 38.4287H24.1429V47.0001H17.7144V38.4287ZM45.5715 38.4287H41.2858V47.0001H45.5715C46.3605 47.0001 47.0001 46.3605 47.0001 45.5715V39.8572C47.0001 39.0683 46.3605 38.4287 45.5715 38.4287ZM33.4287 38.4287H39.8572V47.0001H33.4287V38.4287Z" fill="#CC1A70"/>
<path d="M7 39.8572V45.5715C7 46.3605 7.63961 47.0001 8.42859 47.0001H16.2857V38.4287H8.42859C7.63961 38.4287 7 39.0683 7 39.8572ZM10.5714 40.5715C11.7548 40.5715 12.7143 41.5309 12.7143 42.7144C12.7143 43.8979 11.7549 44.8573 10.5714 44.8573C9.38789 44.8573 8.42852 43.8979 8.42852 42.7144C8.42852 41.5309 9.38797 40.5715 10.5714 40.5715Z" fill="#CC1A70"/>
<path fill-rule="evenodd" clip-rule="evenodd" d="M45.4189 35.6571C45.5953 35.5928 45.7572 35.4943 45.8955 35.3674C46.0338 35.2404 46.1458 35.0875 46.2249 34.9172C46.304 34.747 46.3489 34.5629 46.3568 34.3753C46.3647 34.1877 46.3356 34.0005 46.2711 33.8242L44.314 28.4592C44.2497 28.2828 44.1512 28.1208 44.0243 27.9825C43.8974 27.8442 43.7444 27.7323 43.5742 27.6532C43.4039 27.574 43.2198 27.5292 43.0322 27.5213C42.8447 27.5134 42.6574 27.5425 42.4811 27.607C39.5046 28.6957 26.181 33.5585 16.7539 37H41.7446L45.4189 35.6571Z" fill="#CC1A70"/>
</g>
<defs>
<filter id="filter0_df_644_10546" x="0.0555563" y="0.0555563" width="53.8889" height="53.889" filterUnits="userSpaceOnUse" color-interpolation-filters="sRGB">
<feFlood flood-opacity="0" result="BackgroundImageFix"/>
<feColorMatrix in="SourceAlpha" type="matrix" values="0 0 0 0 0 0 0 0 0 0 0 0 0 0 0 0 0 0 127 0" result="hardAlpha"/>
<feOffset/>
<feGaussianBlur stdDeviation="3.47222"/>
<feComposite in2="hardAlpha" operator="out"/>
<feColorMatrix type="matrix" values="0 0 0 0 1 0 0 0 0 0.996078 0 0 0 0 0.0117647 0 0 0 0.25 0"/>
<feBlend mode="normal" in2="BackgroundImageFix" result="effect1_dropShadow_644_10546"/>
<feBlend mode="normal" in="SourceGraphic" in2="effect1_dropShadow_644_10546" result="shape"/>
<feGaussianBlur stdDeviation="0.390625" result="effect2_foregroundBlur_644_10546"/>
</filter>
<filter id="filter1_df_644_10546" x="0.0555563" y="0.0555563" width="53.8889" height="53.889" filterUnits="userSpaceOnUse" color-interpolation-filters="sRGB">
<feFlood flood-opacity="0" result="BackgroundImageFix"/>
<feColorMatrix in="SourceAlpha" type="matrix" values="0 0 0 0 0 0 0 0 0 0 0 0 0 0 0 0 0 0 127 0" result="hardAlpha"/>
<feOffset/>
<feGaussianBlur stdDeviation="3.47222"/>
<feComposite in2="hardAlpha" operator="out"/>
<feColorMatrix type="matrix" values="0 0 0 0 0.847059 0 0 0 0 0.0196078 0 0 0 0 0.156863 0 0 0 0.25 0"/>
<feBlend mode="normal" in2="BackgroundImageFix" result="effect1_dropShadow_644_10546"/>
<feBlend mode="normal" in="SourceGraphic" in2="effect1_dropShadow_644_10546" result="shape"/>
<feGaussianBlur stdDeviation="0.390625" result="effect2_foregroundBlur_644_10546"/>
</filter>
<filter id="filter2_df_644_10546" x="0.0555563" y="0.0555563" width="53.8889" height="53.889" filterUnits="userSpaceOnUse" color-interpolation-filters="sRGB">
<feFlood flood-opacity="0" result="BackgroundImageFix"/>
<feColorMatrix in="SourceAlpha" type="matrix" values="0 0 0 0 0 0 0 0 0 0 0 0 0 0 0 0 0 0 127 0" result="hardAlpha"/>
<feOffset/>
<feGaussianBlur stdDeviation="3.47222"/>
<feComposite in2="hardAlpha" operator="out"/>
<feColorMatrix type="matrix" values="0 0 0 0 0.894118 0 0 0 0 0.141176 0 0 0 0 0.466667 0 0 0 0.25 0"/>
<feBlend mode="normal" in2="BackgroundImageFix" result="effect1_dropShadow_644_10546"/>
<feBlend mode="normal" in="SourceGraphic" in2="effect1_dropShadow_644_10546" result="shape"/>
<feGaussianBlur stdDeviation="0.390625" result="effect2_foregroundBlur_644_10546"/>
</filter>
</defs>
</svg>
