<svg width="54" height="66" viewBox="0 0 54 66" fill="none" xmlns="http://www.w3.org/2000/svg">
<g style="mix-blend-mode:plus-lighter" filter="url(#filter0_df_642_10345)">
<path d="M26.9966 37.8813L26.9223 26.4348C25.6975 26.5657 23.9269 26.9558 22.1888 28.0529C18.3574 30.5164 15.2606 36.1417 17.0784 41.7112C18.5215 46.1264 22.6054 49.2217 27.2405 49.4137C31.2477 49.5685 35.0691 47.4085 37.1958 43.8836L27.4208 38.5912C27.293 38.5217 27.1862 38.4192 27.1116 38.2943C27.0369 38.1694 26.9972 38.0268 26.9966 37.8813Z" fill="#FFE600"/>
<path d="M42.3178 37.8759C42.3178 37.4261 42.6801 37.0622 43.1268 37.0622H45.5988C45.1931 27.144 37.4256 19.1567 27.7869 18.751V20.6981C27.7869 21.1479 27.4246 21.5117 26.9779 21.5117C26.5312 21.5117 26.1689 21.1479 26.1689 20.6981V18.7533C16.5681 19.1992 8.84163 27.1711 8.4375 37.0622H10.9505C11.3972 37.0622 11.7596 37.4261 11.7596 37.8759C11.7596 38.3257 11.3972 38.6896 10.9505 38.6896H8.4375C8.8424 48.5938 16.5898 56.5742 26.2099 57V54.5628C26.2099 54.113 26.5722 53.7492 27.0189 53.7492C27.4656 53.7492 27.828 54.113 27.828 54.5628V57C37.4465 56.5742 45.1939 48.5938 45.5988 38.6896H43.126C42.6801 38.6896 42.3178 38.3257 42.3178 37.8759ZM39.0236 43.9347C36.7823 48.2927 32.3384 51.0488 27.6143 51.0488C27.4695 51.0488 27.3255 51.0465 27.18 51.041C21.8705 50.8219 17.196 47.2769 15.543 42.2207C13.4705 35.8715 16.9753 29.4736 21.3247 26.6787C23.7123 25.1706 26.11 24.799 27.7018 24.751C28.1454 24.7618 28.5309 25.0955 28.534 25.5592L28.6099 37.3881L38.6876 42.8439C39.077 43.0545 39.2264 43.5399 39.0236 43.9347Z" fill="#FFE600"/>
<path d="M39.752 21.7123L42.1388 19.2581L44.552 21.7386L42.1899 24.1417M11.8562 24.0859L9.42139 21.72L11.8694 19.2023L14.2918 21.6937M28.6524 16.9061V13.7737H25.3442V17.0292M22.5037 9C22.3558 9 22.2784 9.12542 22.2784 9.24929V11.6168C22.2784 11.7801 22.3915 11.8661 22.5037 11.8661H31.5324C31.6694 11.8661 31.7507 11.7329 31.76 11.6005L31.7576 9.24852C31.7576 9.08594 31.6446 9 31.5324 9H22.5037Z" fill="#FFE600"/>
</g>
<g style="mix-blend-mode:plus-lighter" filter="url(#filter1_df_642_10345)">
<path d="M26.9966 37.8813L26.9223 26.4348C25.6975 26.5657 23.9269 26.9558 22.1888 28.0529C18.3574 30.5164 15.2606 36.1417 17.0784 41.7112C18.5215 46.1264 22.6054 49.2217 27.2405 49.4137C31.2477 49.5685 35.0691 47.4085 37.1958 43.8836L27.4208 38.5912C27.293 38.5217 27.1862 38.4192 27.1116 38.2943C27.0369 38.1694 26.9972 38.0268 26.9966 37.8813Z" fill="#BC010A"/>
<path d="M42.3178 37.8759C42.3178 37.4261 42.6801 37.0622 43.1268 37.0622H45.5988C45.1931 27.144 37.4256 19.1567 27.7869 18.751V20.6981C27.7869 21.1479 27.4246 21.5117 26.9779 21.5117C26.5312 21.5117 26.1689 21.1479 26.1689 20.6981V18.7533C16.5681 19.1992 8.84163 27.1711 8.4375 37.0622H10.9505C11.3972 37.0622 11.7596 37.4261 11.7596 37.8759C11.7596 38.3257 11.3972 38.6896 10.9505 38.6896H8.4375C8.8424 48.5938 16.5898 56.5742 26.2099 57V54.5628C26.2099 54.113 26.5722 53.7492 27.0189 53.7492C27.4656 53.7492 27.828 54.113 27.828 54.5628V57C37.4465 56.5742 45.1939 48.5938 45.5988 38.6896H43.126C42.6801 38.6896 42.3178 38.3257 42.3178 37.8759ZM39.0236 43.9347C36.7823 48.2927 32.3384 51.0488 27.6143 51.0488C27.4695 51.0488 27.3255 51.0465 27.18 51.041C21.8705 50.8219 17.196 47.2769 15.543 42.2207C13.4705 35.8715 16.9753 29.4736 21.3247 26.6787C23.7123 25.1706 26.11 24.799 27.7018 24.751C28.1454 24.7618 28.5309 25.0955 28.534 25.5592L28.6099 37.3881L38.6876 42.8439C39.077 43.0545 39.2264 43.5399 39.0236 43.9347Z" fill="#BC010A"/>
<path d="M39.752 21.7123L42.1388 19.2581L44.552 21.7386L42.1899 24.1417M11.8562 24.0859L9.42139 21.72L11.8694 19.2023L14.2918 21.6937M28.6524 16.9061V13.7737H25.3442V17.0292M22.5037 9C22.3558 9 22.2784 9.12542 22.2784 9.24929V11.6168C22.2784 11.7801 22.3915 11.8661 22.5037 11.8661H31.5324C31.6694 11.8661 31.7507 11.7329 31.76 11.6005L31.7576 9.24852C31.7576 9.08594 31.6446 9 31.5324 9H22.5037Z" fill="#BC010A"/>
</g>
<g style="mix-blend-mode:plus-lighter" filter="url(#filter2_df_642_10345)">
<path d="M26.9966 37.8813L26.9223 26.4348C25.6975 26.5657 23.9269 26.9558 22.1888 28.0529C18.3574 30.5164 15.2606 36.1417 17.0784 41.7112C18.5215 46.1264 22.6054 49.2217 27.2405 49.4137C31.2477 49.5685 35.0691 47.4085 37.1958 43.8836L27.4208 38.5912C27.293 38.5217 27.1862 38.4192 27.1116 38.2943C27.0369 38.1694 26.9972 38.0268 26.9966 37.8813Z" fill="#CC1A70"/>
<path d="M42.3178 37.8759C42.3178 37.4261 42.6801 37.0622 43.1268 37.0622H45.5988C45.1931 27.144 37.4256 19.1567 27.7869 18.751V20.6981C27.7869 21.1479 27.4246 21.5117 26.9779 21.5117C26.5312 21.5117 26.1689 21.1479 26.1689 20.6981V18.7533C16.5681 19.1992 8.84163 27.1711 8.4375 37.0622H10.9505C11.3972 37.0622 11.7596 37.4261 11.7596 37.8759C11.7596 38.3257 11.3972 38.6896 10.9505 38.6896H8.4375C8.8424 48.5938 16.5898 56.5742 26.2099 57V54.5628C26.2099 54.113 26.5722 53.7492 27.0189 53.7492C27.4656 53.7492 27.828 54.113 27.828 54.5628V57C37.4465 56.5742 45.1939 48.5938 45.5988 38.6896H43.126C42.6801 38.6896 42.3178 38.3257 42.3178 37.8759ZM39.0236 43.9347C36.7823 48.2927 32.3384 51.0488 27.6143 51.0488C27.4695 51.0488 27.3255 51.0465 27.18 51.041C21.8705 50.8219 17.196 47.2769 15.543 42.2207C13.4705 35.8715 16.9753 29.4736 21.3247 26.6787C23.7123 25.1706 26.11 24.799 27.7018 24.751C28.1454 24.7618 28.5309 25.0955 28.534 25.5592L28.6099 37.3881L38.6876 42.8439C39.077 43.0545 39.2264 43.5399 39.0236 43.9347Z" fill="#CC1A70"/>
<path d="M39.752 21.7123L42.1388 19.2581L44.552 21.7386L42.1899 24.1417M11.8562 24.0859L9.42139 21.72L11.8694 19.2023L14.2918 21.6937M28.6524 16.9061V13.7737H25.3442V17.0292M22.5037 9C22.3558 9 22.2784 9.12542 22.2784 9.24929V11.6168C22.2784 11.7801 22.3915 11.8661 22.5037 11.8661H31.5324C31.6694 11.8661 31.7507 11.7329 31.76 11.6005L31.7576 9.24852C31.7576 9.08594 31.6446 9 31.5324 9H22.5037Z" fill="#CC1A70"/>
</g>
<defs>
<filter id="filter0_df_642_10345" x="0.104168" y="0.666668" width="53.8278" height="64.6667" filterUnits="userSpaceOnUse" color-interpolation-filters="sRGB">
<feFlood flood-opacity="0" result="BackgroundImageFix"/>
<feColorMatrix in="SourceAlpha" type="matrix" values="0 0 0 0 0 0 0 0 0 0 0 0 0 0 0 0 0 0 127 0" result="hardAlpha"/>
<feOffset/>
<feGaussianBlur stdDeviation="4.16667"/>
<feComposite in2="hardAlpha" operator="out"/>
<feColorMatrix type="matrix" values="0 0 0 0 1 0 0 0 0 0.996078 0 0 0 0 0.0117647 0 0 0 0.25 0"/>
<feBlend mode="normal" in2="BackgroundImageFix" result="effect1_dropShadow_642_10345"/>
<feBlend mode="normal" in="SourceGraphic" in2="effect1_dropShadow_642_10345" result="shape"/>
<feGaussianBlur stdDeviation="0.5" result="effect2_foregroundBlur_642_10345"/>
</filter>
<filter id="filter1_df_642_10345" x="0.104168" y="0.666668" width="53.8278" height="64.6667" filterUnits="userSpaceOnUse" color-interpolation-filters="sRGB">
<feFlood flood-opacity="0" result="BackgroundImageFix"/>
<feColorMatrix in="SourceAlpha" type="matrix" values="0 0 0 0 0 0 0 0 0 0 0 0 0 0 0 0 0 0 127 0" result="hardAlpha"/>
<feOffset/>
<feGaussianBlur stdDeviation="4.16667"/>
<feComposite in2="hardAlpha" operator="out"/>
<feColorMatrix type="matrix" values="0 0 0 0 0.847059 0 0 0 0 0.0196078 0 0 0 0 0.156863 0 0 0 0.25 0"/>
<feBlend mode="normal" in2="BackgroundImageFix" result="effect1_dropShadow_642_10345"/>
<feBlend mode="normal" in="SourceGraphic" in2="effect1_dropShadow_642_10345" result="shape"/>
<feGaussianBlur stdDeviation="0.5" result="effect2_foregroundBlur_642_10345"/>
</filter>
<filter id="filter2_df_642_10345" x="0.104168" y="0.666668" width="53.8278" height="64.6667" filterUnits="userSpaceOnUse" color-interpolation-filters="sRGB">
<feFlood flood-opacity="0" result="BackgroundImageFix"/>
<feColorMatrix in="SourceAlpha" type="matrix" values="0 0 0 0 0 0 0 0 0 0 0 0 0 0 0 0 0 0 127 0" result="hardAlpha"/>
<feOffset/>
<feGaussianBlur stdDeviation="4.16667"/>
<feComposite in2="hardAlpha" operator="out"/>
<feColorMatrix type="matrix" values="0 0 0 0 0.894118 0 0 0 0 0.141176 0 0 0 0 0.466667 0 0 0 0.25 0"/>
<feBlend mode="normal" in2="BackgroundImageFix" result="effect1_dropShadow_642_10345"/>
<feBlend mode="normal" in="SourceGraphic" in2="effect1_dropShadow_642_10345" result="shape"/>
<feGaussianBlur stdDeviation="0.5" result="effect2_foregroundBlur_642_10345"/>
</filter>
</defs>
</svg>
