<svg width="48" height="48" viewBox="0 0 48 48" fill="none" xmlns="http://www.w3.org/2000/svg">
<g clip-path="url(#clip0_662_15429)">
<g style="mix-blend-mode:plus-lighter" filter="url(#filter0_df_662_15429)">
<path d="M19.9562 11.153L21.1607 14.498C21.8217 16.3317 22.879 17.9971 24.2573 19.3754C25.6356 20.7538 27.301 21.8111 29.1347 22.472L32.4797 23.6765C32.5458 23.7007 32.6028 23.7446 32.6431 23.8023C32.6834 23.86 32.705 23.9286 32.705 23.999C32.705 24.0693 32.6834 24.138 32.6431 24.1957C32.6028 24.2533 32.5458 24.2972 32.4797 24.3215L29.1347 25.526C27.301 26.1869 25.6356 27.2442 24.2573 28.6225C22.879 30.0008 21.8217 31.6662 21.1607 33.5L19.9562 36.845C19.932 36.911 19.8881 36.968 19.8304 37.0083C19.7727 37.0486 19.7041 37.0702 19.6337 37.0702C19.5634 37.0702 19.4947 37.0486 19.4371 37.0083C19.3794 36.968 19.3355 36.911 19.3112 36.845L18.1067 33.5C17.4458 31.6662 16.3885 30.0008 15.0102 28.6225C13.6319 27.2442 11.9665 26.1869 10.1327 25.526L6.78774 24.3215C6.72169 24.2972 6.66467 24.2533 6.62438 24.1957C6.5841 24.138 6.5625 24.0693 6.5625 23.999C6.5625 23.9286 6.5841 23.86 6.62438 23.8023C6.66467 23.7446 6.72169 23.7007 6.78774 23.6765L10.1327 22.472C11.9665 21.8111 13.6319 20.7538 15.0102 19.3754C16.3885 17.9971 17.4458 16.3317 18.1067 14.498L19.3112 11.153C19.3348 11.0863 19.3785 11.0285 19.4362 10.9876C19.494 10.9467 19.563 10.9248 19.6337 10.9248C19.7045 10.9248 19.7735 10.9467 19.8313 10.9876C19.889 11.0285 19.9327 11.0863 19.9562 11.153ZM35.0132 3.11447L35.6237 4.80797C35.9587 5.73643 36.4942 6.57963 37.1921 7.27757C37.8901 7.97551 38.7333 8.51101 39.6617 8.84597L41.3552 9.45647C41.3888 9.46869 41.4178 9.49093 41.4382 9.52018C41.4587 9.54943 41.4697 9.58427 41.4697 9.61997C41.4697 9.65568 41.4587 9.69052 41.4382 9.71977C41.4178 9.74901 41.3888 9.77126 41.3552 9.78347L39.6617 10.394C38.7333 10.7289 37.8901 11.2644 37.1921 11.9624C36.4942 12.6603 35.9587 13.5035 35.6237 14.432L35.0132 16.1255C35.001 16.159 34.9788 16.188 34.9495 16.2085C34.9203 16.229 34.8854 16.2399 34.8497 16.2399C34.814 16.2399 34.7792 16.229 34.7499 16.2085C34.7207 16.188 34.6985 16.159 34.6862 16.1255L34.0757 14.432C33.7408 13.5035 33.2053 12.6603 32.5073 11.9624C31.8094 11.2644 30.9662 10.7289 30.0377 10.394L28.3442 9.78347C28.3107 9.77126 28.2817 9.74901 28.2612 9.71977C28.2408 9.69052 28.2298 9.65568 28.2298 9.61997C28.2298 9.58427 28.2408 9.54943 28.2612 9.52018C28.2817 9.49093 28.3107 9.46869 28.3442 9.45647L30.0377 8.84597C30.9662 8.51101 31.8094 7.97551 32.5073 7.27757C33.2053 6.57963 33.7408 5.73643 34.0757 4.80797L34.6862 3.11447C34.6985 3.08092 34.7207 3.05194 34.7499 3.03146C34.7792 3.01098 34.814 3 34.8497 3C34.8854 3 34.9203 3.01098 34.9495 3.03146C34.9788 3.05194 35.001 3.08092 35.0132 3.11447ZM35.0132 31.874L35.6237 33.5675C35.9587 34.4959 36.4942 35.3391 37.1921 36.0371C37.8901 36.735 38.7333 37.2705 39.6617 37.6055L41.3552 38.216C41.3888 38.2282 41.4178 38.2504 41.4382 38.2797C41.4587 38.3089 41.4697 38.3438 41.4697 38.3795C41.4697 38.4152 41.4587 38.45 41.4382 38.4793C41.4178 38.5085 41.3888 38.5308 41.3552 38.543L39.6617 39.1535C38.7333 39.4884 37.8901 40.0239 37.1921 40.7219C36.4942 41.4198 35.9587 42.263 35.6237 43.1915L35.0132 44.885C35.001 44.9185 34.9788 44.9475 34.9495 44.968C34.9203 44.9885 34.8854 44.9994 34.8497 44.9994C34.814 44.9994 34.7792 44.9885 34.7499 44.968C34.7207 44.9475 34.6985 44.9185 34.6862 44.885L34.0757 43.1915C33.7408 42.263 33.2053 41.4198 32.5073 40.7219C31.8094 40.0239 30.9662 39.4884 30.0377 39.1535L28.3442 38.543C28.3107 38.5308 28.2817 38.5085 28.2612 38.4793C28.2408 38.45 28.2298 38.4152 28.2298 38.3795C28.2298 38.3438 28.2408 38.3089 28.2612 38.2797C28.2817 38.2504 28.3107 38.2282 28.3442 38.216L30.0377 37.6055C30.9662 37.2705 31.8094 36.735 32.5073 36.0371C33.2053 35.3391 33.7408 34.4959 34.0757 33.5675L34.6862 31.874C34.7417 31.721 34.9592 31.721 35.0132 31.874Z" fill="#FFE600"/>
</g>
<g style="mix-blend-mode:plus-lighter" filter="url(#filter1_df_662_15429)">
<path d="M19.9562 11.153L21.1607 14.498C21.8217 16.3317 22.879 17.9971 24.2573 19.3754C25.6356 20.7538 27.301 21.8111 29.1347 22.472L32.4797 23.6765C32.5458 23.7007 32.6028 23.7446 32.6431 23.8023C32.6834 23.86 32.705 23.9286 32.705 23.999C32.705 24.0693 32.6834 24.138 32.6431 24.1957C32.6028 24.2533 32.5458 24.2972 32.4797 24.3215L29.1347 25.526C27.301 26.1869 25.6356 27.2442 24.2573 28.6225C22.879 30.0008 21.8217 31.6662 21.1607 33.5L19.9562 36.845C19.932 36.911 19.8881 36.968 19.8304 37.0083C19.7727 37.0486 19.7041 37.0702 19.6337 37.0702C19.5634 37.0702 19.4947 37.0486 19.4371 37.0083C19.3794 36.968 19.3355 36.911 19.3112 36.845L18.1067 33.5C17.4458 31.6662 16.3885 30.0008 15.0102 28.6225C13.6319 27.2442 11.9665 26.1869 10.1327 25.526L6.78774 24.3215C6.72169 24.2972 6.66467 24.2533 6.62438 24.1957C6.5841 24.138 6.5625 24.0693 6.5625 23.999C6.5625 23.9286 6.5841 23.86 6.62438 23.8023C6.66467 23.7446 6.72169 23.7007 6.78774 23.6765L10.1327 22.472C11.9665 21.8111 13.6319 20.7538 15.0102 19.3754C16.3885 17.9971 17.4458 16.3317 18.1067 14.498L19.3112 11.153C19.3348 11.0863 19.3785 11.0285 19.4362 10.9876C19.494 10.9467 19.563 10.9248 19.6337 10.9248C19.7045 10.9248 19.7735 10.9467 19.8313 10.9876C19.889 11.0285 19.9327 11.0863 19.9562 11.153ZM35.0132 3.11447L35.6237 4.80797C35.9587 5.73643 36.4942 6.57963 37.1921 7.27757C37.8901 7.97551 38.7333 8.51101 39.6617 8.84597L41.3552 9.45647C41.3888 9.46869 41.4178 9.49093 41.4382 9.52018C41.4587 9.54943 41.4697 9.58427 41.4697 9.61997C41.4697 9.65568 41.4587 9.69052 41.4382 9.71977C41.4178 9.74901 41.3888 9.77126 41.3552 9.78347L39.6617 10.394C38.7333 10.7289 37.8901 11.2644 37.1921 11.9624C36.4942 12.6603 35.9587 13.5035 35.6237 14.432L35.0132 16.1255C35.001 16.159 34.9788 16.188 34.9495 16.2085C34.9203 16.229 34.8854 16.2399 34.8497 16.2399C34.814 16.2399 34.7792 16.229 34.7499 16.2085C34.7207 16.188 34.6985 16.159 34.6862 16.1255L34.0757 14.432C33.7408 13.5035 33.2053 12.6603 32.5073 11.9624C31.8094 11.2644 30.9662 10.7289 30.0377 10.394L28.3442 9.78347C28.3107 9.77126 28.2817 9.74901 28.2612 9.71977C28.2408 9.69052 28.2298 9.65568 28.2298 9.61997C28.2298 9.58427 28.2408 9.54943 28.2612 9.52018C28.2817 9.49093 28.3107 9.46869 28.3442 9.45647L30.0377 8.84597C30.9662 8.51101 31.8094 7.97551 32.5073 7.27757C33.2053 6.57963 33.7408 5.73643 34.0757 4.80797L34.6862 3.11447C34.6985 3.08092 34.7207 3.05194 34.7499 3.03146C34.7792 3.01098 34.814 3 34.8497 3C34.8854 3 34.9203 3.01098 34.9495 3.03146C34.9788 3.05194 35.001 3.08092 35.0132 3.11447ZM35.0132 31.874L35.6237 33.5675C35.9587 34.4959 36.4942 35.3391 37.1921 36.0371C37.8901 36.735 38.7333 37.2705 39.6617 37.6055L41.3552 38.216C41.3888 38.2282 41.4178 38.2504 41.4382 38.2797C41.4587 38.3089 41.4697 38.3438 41.4697 38.3795C41.4697 38.4152 41.4587 38.45 41.4382 38.4793C41.4178 38.5085 41.3888 38.5308 41.3552 38.543L39.6617 39.1535C38.7333 39.4884 37.8901 40.0239 37.1921 40.7219C36.4942 41.4198 35.9587 42.263 35.6237 43.1915L35.0132 44.885C35.001 44.9185 34.9788 44.9475 34.9495 44.968C34.9203 44.9885 34.8854 44.9994 34.8497 44.9994C34.814 44.9994 34.7792 44.9885 34.7499 44.968C34.7207 44.9475 34.6985 44.9185 34.6862 44.885L34.0757 43.1915C33.7408 42.263 33.2053 41.4198 32.5073 40.7219C31.8094 40.0239 30.9662 39.4884 30.0377 39.1535L28.3442 38.543C28.3107 38.5308 28.2817 38.5085 28.2612 38.4793C28.2408 38.45 28.2298 38.4152 28.2298 38.3795C28.2298 38.3438 28.2408 38.3089 28.2612 38.2797C28.2817 38.2504 28.3107 38.2282 28.3442 38.216L30.0377 37.6055C30.9662 37.2705 31.8094 36.735 32.5073 36.0371C33.2053 35.3391 33.7408 34.4959 34.0757 33.5675L34.6862 31.874C34.7417 31.721 34.9592 31.721 35.0132 31.874Z" fill="#BC010A"/>
</g>
<g style="mix-blend-mode:plus-lighter" filter="url(#filter2_df_662_15429)">
<path d="M19.9562 11.153L21.1607 14.498C21.8217 16.3317 22.879 17.9971 24.2573 19.3754C25.6356 20.7538 27.301 21.8111 29.1347 22.472L32.4797 23.6765C32.5458 23.7007 32.6028 23.7446 32.6431 23.8023C32.6834 23.86 32.705 23.9286 32.705 23.999C32.705 24.0693 32.6834 24.138 32.6431 24.1957C32.6028 24.2533 32.5458 24.2972 32.4797 24.3215L29.1347 25.526C27.301 26.1869 25.6356 27.2442 24.2573 28.6225C22.879 30.0008 21.8217 31.6662 21.1607 33.5L19.9562 36.845C19.932 36.911 19.8881 36.968 19.8304 37.0083C19.7727 37.0486 19.7041 37.0702 19.6337 37.0702C19.5634 37.0702 19.4947 37.0486 19.4371 37.0083C19.3794 36.968 19.3355 36.911 19.3112 36.845L18.1067 33.5C17.4458 31.6662 16.3885 30.0008 15.0102 28.6225C13.6319 27.2442 11.9665 26.1869 10.1327 25.526L6.78774 24.3215C6.72169 24.2972 6.66467 24.2533 6.62438 24.1957C6.5841 24.138 6.5625 24.0693 6.5625 23.999C6.5625 23.9286 6.5841 23.86 6.62438 23.8023C6.66467 23.7446 6.72169 23.7007 6.78774 23.6765L10.1327 22.472C11.9665 21.8111 13.6319 20.7538 15.0102 19.3754C16.3885 17.9971 17.4458 16.3317 18.1067 14.498L19.3112 11.153C19.3348 11.0863 19.3785 11.0285 19.4362 10.9876C19.494 10.9467 19.563 10.9248 19.6337 10.9248C19.7045 10.9248 19.7735 10.9467 19.8313 10.9876C19.889 11.0285 19.9327 11.0863 19.9562 11.153ZM35.0132 3.11447L35.6237 4.80797C35.9587 5.73643 36.4942 6.57963 37.1921 7.27757C37.8901 7.97551 38.7333 8.51101 39.6617 8.84597L41.3552 9.45647C41.3888 9.46869 41.4178 9.49093 41.4382 9.52018C41.4587 9.54943 41.4697 9.58427 41.4697 9.61997C41.4697 9.65568 41.4587 9.69052 41.4382 9.71977C41.4178 9.74901 41.3888 9.77126 41.3552 9.78347L39.6617 10.394C38.7333 10.7289 37.8901 11.2644 37.1921 11.9624C36.4942 12.6603 35.9587 13.5035 35.6237 14.432L35.0132 16.1255C35.001 16.159 34.9788 16.188 34.9495 16.2085C34.9203 16.229 34.8854 16.2399 34.8497 16.2399C34.814 16.2399 34.7792 16.229 34.7499 16.2085C34.7207 16.188 34.6985 16.159 34.6862 16.1255L34.0757 14.432C33.7408 13.5035 33.2053 12.6603 32.5073 11.9624C31.8094 11.2644 30.9662 10.7289 30.0377 10.394L28.3442 9.78347C28.3107 9.77126 28.2817 9.74901 28.2612 9.71977C28.2408 9.69052 28.2298 9.65568 28.2298 9.61997C28.2298 9.58427 28.2408 9.54943 28.2612 9.52018C28.2817 9.49093 28.3107 9.46869 28.3442 9.45647L30.0377 8.84597C30.9662 8.51101 31.8094 7.97551 32.5073 7.27757C33.2053 6.57963 33.7408 5.73643 34.0757 4.80797L34.6862 3.11447C34.6985 3.08092 34.7207 3.05194 34.7499 3.03146C34.7792 3.01098 34.814 3 34.8497 3C34.8854 3 34.9203 3.01098 34.9495 3.03146C34.9788 3.05194 35.001 3.08092 35.0132 3.11447ZM35.0132 31.874L35.6237 33.5675C35.9587 34.4959 36.4942 35.3391 37.1921 36.0371C37.8901 36.735 38.7333 37.2705 39.6617 37.6055L41.3552 38.216C41.3888 38.2282 41.4178 38.2504 41.4382 38.2797C41.4587 38.3089 41.4697 38.3438 41.4697 38.3795C41.4697 38.4152 41.4587 38.45 41.4382 38.4793C41.4178 38.5085 41.3888 38.5308 41.3552 38.543L39.6617 39.1535C38.7333 39.4884 37.8901 40.0239 37.1921 40.7219C36.4942 41.4198 35.9587 42.263 35.6237 43.1915L35.0132 44.885C35.001 44.9185 34.9788 44.9475 34.9495 44.968C34.9203 44.9885 34.8854 44.9994 34.8497 44.9994C34.814 44.9994 34.7792 44.9885 34.7499 44.968C34.7207 44.9475 34.6985 44.9185 34.6862 44.885L34.0757 43.1915C33.7408 42.263 33.2053 41.4198 32.5073 40.7219C31.8094 40.0239 30.9662 39.4884 30.0377 39.1535L28.3442 38.543C28.3107 38.5308 28.2817 38.5085 28.2612 38.4793C28.2408 38.45 28.2298 38.4152 28.2298 38.3795C28.2298 38.3438 28.2408 38.3089 28.2612 38.2797C28.2817 38.2504 28.3107 38.2282 28.3442 38.216L30.0377 37.6055C30.9662 37.2705 31.8094 36.735 32.5073 36.0371C33.2053 35.3391 33.7408 34.4959 34.0757 33.5675L34.6862 31.874C34.7417 31.721 34.9592 31.721 35.0132 31.874Z" fill="#CC1A70"/>
</g>
</g>
<defs>
<filter id="filter0_df_662_15429" x="-1.77083" y="-5.33333" width="51.5739" height="58.6661" filterUnits="userSpaceOnUse" color-interpolation-filters="sRGB">
<feFlood flood-opacity="0" result="BackgroundImageFix"/>
<feColorMatrix in="SourceAlpha" type="matrix" values="0 0 0 0 0 0 0 0 0 0 0 0 0 0 0 0 0 0 127 0" result="hardAlpha"/>
<feOffset/>
<feGaussianBlur stdDeviation="4.16667"/>
<feComposite in2="hardAlpha" operator="out"/>
<feColorMatrix type="matrix" values="0 0 0 0 1 0 0 0 0 0.996078 0 0 0 0 0.0117647 0 0 0 0.25 0"/>
<feBlend mode="normal" in2="BackgroundImageFix" result="effect1_dropShadow_662_15429"/>
<feBlend mode="normal" in="SourceGraphic" in2="effect1_dropShadow_662_15429" result="shape"/>
<feGaussianBlur stdDeviation="0.46875" result="effect2_foregroundBlur_662_15429"/>
</filter>
<filter id="filter1_df_662_15429" x="-1.77083" y="-5.33333" width="51.5739" height="58.6661" filterUnits="userSpaceOnUse" color-interpolation-filters="sRGB">
<feFlood flood-opacity="0" result="BackgroundImageFix"/>
<feColorMatrix in="SourceAlpha" type="matrix" values="0 0 0 0 0 0 0 0 0 0 0 0 0 0 0 0 0 0 127 0" result="hardAlpha"/>
<feOffset/>
<feGaussianBlur stdDeviation="4.16667"/>
<feComposite in2="hardAlpha" operator="out"/>
<feColorMatrix type="matrix" values="0 0 0 0 0.847059 0 0 0 0 0.0196078 0 0 0 0 0.156863 0 0 0 0.25 0"/>
<feBlend mode="normal" in2="BackgroundImageFix" result="effect1_dropShadow_662_15429"/>
<feBlend mode="normal" in="SourceGraphic" in2="effect1_dropShadow_662_15429" result="shape"/>
<feGaussianBlur stdDeviation="0.46875" result="effect2_foregroundBlur_662_15429"/>
</filter>
<filter id="filter2_df_662_15429" x="-1.77083" y="-5.33333" width="51.5739" height="58.6661" filterUnits="userSpaceOnUse" color-interpolation-filters="sRGB">
<feFlood flood-opacity="0" result="BackgroundImageFix"/>
<feColorMatrix in="SourceAlpha" type="matrix" values="0 0 0 0 0 0 0 0 0 0 0 0 0 0 0 0 0 0 127 0" result="hardAlpha"/>
<feOffset/>
<feGaussianBlur stdDeviation="4.16667"/>
<feComposite in2="hardAlpha" operator="out"/>
<feColorMatrix type="matrix" values="0 0 0 0 0.894118 0 0 0 0 0.141176 0 0 0 0 0.466667 0 0 0 0.25 0"/>
<feBlend mode="normal" in2="BackgroundImageFix" result="effect1_dropShadow_662_15429"/>
<feBlend mode="normal" in="SourceGraphic" in2="effect1_dropShadow_662_15429" result="shape"/>
<feGaussianBlur stdDeviation="0.46875" result="effect2_foregroundBlur_662_15429"/>
</filter>
<clipPath id="clip0_662_15429">
<rect width="48" height="48" fill="white"/>
</clipPath>
</defs>
</svg>
