<svg width="54" height="55" viewBox="0 0 54 55" fill="none" xmlns="http://www.w3.org/2000/svg">
<g style="mix-blend-mode:plus-lighter" filter="url(#filter0_df_662_15541)">
<path d="M10.333 26.0466H22.333C22.8634 26.0466 23.3721 25.8359 23.7472 25.4608C24.1223 25.0857 24.333 24.577 24.333 24.0466V12.0466C24.333 11.5161 24.1223 11.0074 23.7472 10.6324C23.3721 10.2573 22.8634 10.0466 22.333 10.0466H10.333C9.80257 10.0466 9.29387 10.2573 8.91879 10.6324C8.54372 11.0074 8.33301 11.5161 8.33301 12.0466V24.0466C8.33301 24.577 8.54372 25.0857 8.91879 25.4608C9.29387 25.8359 9.80257 26.0466 10.333 26.0466ZM10.333 46.0466H22.333C22.8634 46.0466 23.3721 45.8359 23.7472 45.4608C24.1223 45.0857 24.333 44.577 24.333 44.0466V32.0466C24.333 31.5161 24.1223 31.0074 23.7472 30.6324C23.3721 30.2573 22.8634 30.0466 22.333 30.0466H10.333C9.80257 30.0466 9.29387 30.2573 8.91879 30.6324C8.54372 31.0074 8.33301 31.5161 8.33301 32.0466V44.0466C8.33301 44.577 8.54372 45.0857 8.91879 45.4608C9.29387 45.8359 9.80257 46.0466 10.333 46.0466ZM30.333 46.0466H42.333C42.8634 46.0466 43.3722 45.8359 43.7472 45.4608C44.1223 45.0857 44.333 44.577 44.333 44.0466V32.0466C44.333 31.5161 44.1223 31.0074 43.7472 30.6324C43.3722 30.2573 42.8634 30.0466 42.333 30.0466H30.333C29.8026 30.0466 29.2939 30.2573 28.9188 30.6324C28.5437 31.0074 28.333 31.5161 28.333 32.0466V44.0466C28.333 44.577 28.5437 45.0857 28.9188 45.4608C29.2939 45.8359 29.8026 46.0466 30.333 46.0466ZM44.919 16.6326L37.747 9.46057C37.372 9.08563 36.8633 8.875 36.333 8.875C35.8027 8.875 35.2941 9.08563 34.919 9.46057L27.747 16.6326C27.3721 17.0076 27.1614 17.5162 27.1614 18.0466C27.1614 18.5769 27.3721 19.0855 27.747 19.4606L34.919 26.6326C35.2941 27.0075 35.8027 27.2181 36.333 27.2181C36.8633 27.2181 37.372 27.0075 37.747 26.6326L44.919 19.4606C45.2939 19.0855 45.5046 18.5769 45.5046 18.0466C45.5046 17.5162 45.2939 17.0076 44.919 16.6326Z" fill="#FFE600"/>
</g>
<g style="mix-blend-mode:plus-lighter" filter="url(#filter1_df_662_15541)">
<path d="M10.333 26.0466H22.333C22.8634 26.0466 23.3721 25.8359 23.7472 25.4608C24.1223 25.0857 24.333 24.577 24.333 24.0466V12.0466C24.333 11.5161 24.1223 11.0074 23.7472 10.6324C23.3721 10.2573 22.8634 10.0466 22.333 10.0466H10.333C9.80257 10.0466 9.29387 10.2573 8.91879 10.6324C8.54372 11.0074 8.33301 11.5161 8.33301 12.0466V24.0466C8.33301 24.577 8.54372 25.0857 8.91879 25.4608C9.29387 25.8359 9.80257 26.0466 10.333 26.0466ZM10.333 46.0466H22.333C22.8634 46.0466 23.3721 45.8359 23.7472 45.4608C24.1223 45.0857 24.333 44.577 24.333 44.0466V32.0466C24.333 31.5161 24.1223 31.0074 23.7472 30.6324C23.3721 30.2573 22.8634 30.0466 22.333 30.0466H10.333C9.80257 30.0466 9.29387 30.2573 8.91879 30.6324C8.54372 31.0074 8.33301 31.5161 8.33301 32.0466V44.0466C8.33301 44.577 8.54372 45.0857 8.91879 45.4608C9.29387 45.8359 9.80257 46.0466 10.333 46.0466ZM30.333 46.0466H42.333C42.8634 46.0466 43.3722 45.8359 43.7472 45.4608C44.1223 45.0857 44.333 44.577 44.333 44.0466V32.0466C44.333 31.5161 44.1223 31.0074 43.7472 30.6324C43.3722 30.2573 42.8634 30.0466 42.333 30.0466H30.333C29.8026 30.0466 29.2939 30.2573 28.9188 30.6324C28.5437 31.0074 28.333 31.5161 28.333 32.0466V44.0466C28.333 44.577 28.5437 45.0857 28.9188 45.4608C29.2939 45.8359 29.8026 46.0466 30.333 46.0466ZM44.919 16.6326L37.747 9.46057C37.372 9.08563 36.8633 8.875 36.333 8.875C35.8027 8.875 35.2941 9.08563 34.919 9.46057L27.747 16.6326C27.3721 17.0076 27.1614 17.5162 27.1614 18.0466C27.1614 18.5769 27.3721 19.0855 27.747 19.4606L34.919 26.6326C35.2941 27.0075 35.8027 27.2181 36.333 27.2181C36.8633 27.2181 37.372 27.0075 37.747 26.6326L44.919 19.4606C45.2939 19.0855 45.5046 18.5769 45.5046 18.0466C45.5046 17.5162 45.2939 17.0076 44.919 16.6326Z" fill="#BC010A"/>
</g>
<g style="mix-blend-mode:plus-lighter" filter="url(#filter2_df_662_15541)">
<path d="M10.333 26.0466H22.333C22.8634 26.0466 23.3721 25.8359 23.7472 25.4608C24.1223 25.0857 24.333 24.577 24.333 24.0466V12.0466C24.333 11.5161 24.1223 11.0074 23.7472 10.6324C23.3721 10.2573 22.8634 10.0466 22.333 10.0466H10.333C9.80257 10.0466 9.29387 10.2573 8.91879 10.6324C8.54372 11.0074 8.33301 11.5161 8.33301 12.0466V24.0466C8.33301 24.577 8.54372 25.0857 8.91879 25.4608C9.29387 25.8359 9.80257 26.0466 10.333 26.0466ZM10.333 46.0466H22.333C22.8634 46.0466 23.3721 45.8359 23.7472 45.4608C24.1223 45.0857 24.333 44.577 24.333 44.0466V32.0466C24.333 31.5161 24.1223 31.0074 23.7472 30.6324C23.3721 30.2573 22.8634 30.0466 22.333 30.0466H10.333C9.80257 30.0466 9.29387 30.2573 8.91879 30.6324C8.54372 31.0074 8.33301 31.5161 8.33301 32.0466V44.0466C8.33301 44.577 8.54372 45.0857 8.91879 45.4608C9.29387 45.8359 9.80257 46.0466 10.333 46.0466ZM30.333 46.0466H42.333C42.8634 46.0466 43.3722 45.8359 43.7472 45.4608C44.1223 45.0857 44.333 44.577 44.333 44.0466V32.0466C44.333 31.5161 44.1223 31.0074 43.7472 30.6324C43.3722 30.2573 42.8634 30.0466 42.333 30.0466H30.333C29.8026 30.0466 29.2939 30.2573 28.9188 30.6324C28.5437 31.0074 28.333 31.5161 28.333 32.0466V44.0466C28.333 44.577 28.5437 45.0857 28.9188 45.4608C29.2939 45.8359 29.8026 46.0466 30.333 46.0466ZM44.919 16.6326L37.747 9.46057C37.372 9.08563 36.8633 8.875 36.333 8.875C35.8027 8.875 35.2941 9.08563 34.919 9.46057L27.747 16.6326C27.3721 17.0076 27.1614 17.5162 27.1614 18.0466C27.1614 18.5769 27.3721 19.0855 27.747 19.4606L34.919 26.6326C35.2941 27.0075 35.8027 27.2181 36.333 27.2181C36.8633 27.2181 37.372 27.0075 37.747 26.6326L44.919 19.4606C45.2939 19.0855 45.5046 18.5769 45.5046 18.0466C45.5046 17.5162 45.2939 17.0076 44.919 16.6326Z" fill="#CC1A70"/>
</g>
<defs>
<filter id="filter0_df_662_15541" x="-0.000324249" y="0.541668" width="53.8385" height="53.8383" filterUnits="userSpaceOnUse" color-interpolation-filters="sRGB">
<feFlood flood-opacity="0" result="BackgroundImageFix"/>
<feColorMatrix in="SourceAlpha" type="matrix" values="0 0 0 0 0 0 0 0 0 0 0 0 0 0 0 0 0 0 127 0" result="hardAlpha"/>
<feOffset/>
<feGaussianBlur stdDeviation="4.16667"/>
<feComposite in2="hardAlpha" operator="out"/>
<feColorMatrix type="matrix" values="0 0 0 0 1 0 0 0 0 0.996078 0 0 0 0 0.0117647 0 0 0 0.25 0"/>
<feBlend mode="normal" in2="BackgroundImageFix" result="effect1_dropShadow_662_15541"/>
<feBlend mode="normal" in="SourceGraphic" in2="effect1_dropShadow_662_15541" result="shape"/>
<feGaussianBlur stdDeviation="0.46875" result="effect2_foregroundBlur_662_15541"/>
</filter>
<filter id="filter1_df_662_15541" x="-0.000324249" y="0.541668" width="53.8385" height="53.8383" filterUnits="userSpaceOnUse" color-interpolation-filters="sRGB">
<feFlood flood-opacity="0" result="BackgroundImageFix"/>
<feColorMatrix in="SourceAlpha" type="matrix" values="0 0 0 0 0 0 0 0 0 0 0 0 0 0 0 0 0 0 127 0" result="hardAlpha"/>
<feOffset/>
<feGaussianBlur stdDeviation="4.16667"/>
<feComposite in2="hardAlpha" operator="out"/>
<feColorMatrix type="matrix" values="0 0 0 0 0.847059 0 0 0 0 0.0196078 0 0 0 0 0.156863 0 0 0 0.25 0"/>
<feBlend mode="normal" in2="BackgroundImageFix" result="effect1_dropShadow_662_15541"/>
<feBlend mode="normal" in="SourceGraphic" in2="effect1_dropShadow_662_15541" result="shape"/>
<feGaussianBlur stdDeviation="0.46875" result="effect2_foregroundBlur_662_15541"/>
</filter>
<filter id="filter2_df_662_15541" x="-0.000324249" y="0.541668" width="53.8385" height="53.8383" filterUnits="userSpaceOnUse" color-interpolation-filters="sRGB">
<feFlood flood-opacity="0" result="BackgroundImageFix"/>
<feColorMatrix in="SourceAlpha" type="matrix" values="0 0 0 0 0 0 0 0 0 0 0 0 0 0 0 0 0 0 127 0" result="hardAlpha"/>
<feOffset/>
<feGaussianBlur stdDeviation="4.16667"/>
<feComposite in2="hardAlpha" operator="out"/>
<feColorMatrix type="matrix" values="0 0 0 0 0.894118 0 0 0 0 0.141176 0 0 0 0 0.466667 0 0 0 0.25 0"/>
<feBlend mode="normal" in2="BackgroundImageFix" result="effect1_dropShadow_662_15541"/>
<feBlend mode="normal" in="SourceGraphic" in2="effect1_dropShadow_662_15541" result="shape"/>
<feGaussianBlur stdDeviation="0.46875" result="effect2_foregroundBlur_662_15541"/>
</filter>
</defs>
</svg>
