<svg width="59" height="60" viewBox="0 0 59 60" fill="none" xmlns="http://www.w3.org/2000/svg">
<g style="mix-blend-mode:plus-lighter" filter="url(#filter0_df_662_15583)">
<path d="M29.667 9C25.5136 9 21.4535 10.2316 18 12.5391C14.5466 14.8466 11.855 18.1264 10.2655 21.9636C8.67609 25.8009 8.26022 30.0233 9.07051 34.0969C9.8808 38.1705 11.8809 41.9123 14.8178 44.8492C17.7547 47.7861 21.4965 49.7862 25.5701 50.5965C29.6437 51.4068 33.8661 50.9909 37.7034 49.4015C41.5406 47.812 44.8204 45.1204 47.1279 41.667C49.4354 38.2135 50.667 34.1534 50.667 30C50.6608 24.4323 48.4464 19.0945 44.5094 15.1576C40.5725 11.2206 35.2347 9.00615 29.667 9ZM29.667 15C32.8586 14.9948 35.968 16.0112 38.5402 17.9006C41.1124 19.7899 43.0124 22.453 43.962 25.5H39.042L37.917 24C37.5667 23.5353 37.1136 23.158 36.5931 22.8978C36.0726 22.6375 35.4989 22.5014 34.917 22.5H24.417C23.8351 22.5013 23.2614 22.6375 22.7409 22.8977C22.2204 23.158 21.7672 23.5353 21.417 24L20.292 25.5H15.372C16.3217 22.4531 18.2217 19.7901 20.7939 17.9007C23.3661 16.0114 26.4755 14.9949 29.667 15ZM25.917 44.523C23.1991 43.8197 20.7335 42.367 18.801 40.3304C16.8686 38.2939 15.5472 35.7555 14.9873 33.0045C17.9132 33.0912 20.6904 34.3136 22.7306 36.4128C24.7708 38.5119 25.9136 41.3228 25.917 44.25V44.523ZM29.667 36C28.777 36 27.907 35.7361 27.1669 35.2416C26.4269 34.7471 25.8501 34.0443 25.5095 33.2221C25.1689 32.3998 25.0798 31.495 25.2535 30.6221C25.4271 29.7492 25.8557 28.9474 26.485 28.318C27.1144 27.6887 27.9162 27.2601 28.7891 27.0865C29.662 26.9128 30.5668 27.0019 31.3891 27.3425C32.2113 27.6831 32.9141 28.2599 33.4086 28.9999C33.9031 29.74 34.167 30.61 34.167 31.5C34.1656 32.693 33.6911 33.8368 32.8474 34.6804C32.0038 35.5241 30.8601 35.9986 29.667 36ZM33.417 44.523V44.25C33.4206 41.3228 34.5635 38.512 36.6036 36.413C38.6438 34.3139 41.4209 33.0914 44.3468 33.0045C43.787 35.7556 42.4656 38.2941 40.5332 40.3306C38.6007 42.3672 36.135 43.8198 33.417 44.523Z" fill="#FFE600"/>
<path d="M29.667 34.5C31.3238 34.5 32.667 33.1569 32.667 31.5C32.667 29.8431 31.3238 28.5 29.667 28.5C28.0101 28.5 26.667 29.8431 26.667 31.5C26.667 33.1569 28.0101 34.5 29.667 34.5Z" fill="#FFE600"/>
</g>
<g style="mix-blend-mode:plus-lighter" filter="url(#filter1_df_662_15583)">
<path d="M29.667 9C25.5136 9 21.4535 10.2316 18 12.5391C14.5466 14.8466 11.855 18.1264 10.2655 21.9636C8.67609 25.8009 8.26022 30.0233 9.07051 34.0969C9.8808 38.1705 11.8809 41.9123 14.8178 44.8492C17.7547 47.7861 21.4965 49.7862 25.5701 50.5965C29.6437 51.4068 33.8661 50.9909 37.7034 49.4015C41.5406 47.812 44.8204 45.1204 47.1279 41.667C49.4354 38.2135 50.667 34.1534 50.667 30C50.6608 24.4323 48.4464 19.0945 44.5094 15.1576C40.5725 11.2206 35.2347 9.00615 29.667 9ZM29.667 15C32.8586 14.9948 35.968 16.0112 38.5402 17.9006C41.1124 19.7899 43.0124 22.453 43.962 25.5H39.042L37.917 24C37.5667 23.5353 37.1136 23.158 36.5931 22.8978C36.0726 22.6375 35.4989 22.5014 34.917 22.5H24.417C23.8351 22.5013 23.2614 22.6375 22.7409 22.8977C22.2204 23.158 21.7672 23.5353 21.417 24L20.292 25.5H15.372C16.3217 22.4531 18.2217 19.7901 20.7939 17.9007C23.3661 16.0114 26.4755 14.9949 29.667 15ZM25.917 44.523C23.1991 43.8197 20.7335 42.367 18.801 40.3304C16.8686 38.2939 15.5472 35.7555 14.9873 33.0045C17.9132 33.0912 20.6904 34.3136 22.7306 36.4128C24.7708 38.5119 25.9136 41.3228 25.917 44.25V44.523ZM29.667 36C28.777 36 27.907 35.7361 27.1669 35.2416C26.4269 34.7471 25.8501 34.0443 25.5095 33.2221C25.1689 32.3998 25.0798 31.495 25.2535 30.6221C25.4271 29.7492 25.8557 28.9474 26.485 28.318C27.1144 27.6887 27.9162 27.2601 28.7891 27.0865C29.662 26.9128 30.5668 27.0019 31.3891 27.3425C32.2113 27.6831 32.9141 28.2599 33.4086 28.9999C33.9031 29.74 34.167 30.61 34.167 31.5C34.1656 32.693 33.6911 33.8368 32.8474 34.6804C32.0038 35.5241 30.8601 35.9986 29.667 36ZM33.417 44.523V44.25C33.4206 41.3228 34.5635 38.512 36.6036 36.413C38.6438 34.3139 41.4209 33.0914 44.3468 33.0045C43.787 35.7556 42.4656 38.2941 40.5332 40.3306C38.6007 42.3672 36.135 43.8198 33.417 44.523Z" fill="#BC010A"/>
<path d="M29.667 34.5C31.3238 34.5 32.667 33.1569 32.667 31.5C32.667 29.8431 31.3238 28.5 29.667 28.5C28.0101 28.5 26.667 29.8431 26.667 31.5C26.667 33.1569 28.0101 34.5 29.667 34.5Z" fill="#BC010A"/>
</g>
<g style="mix-blend-mode:plus-lighter" filter="url(#filter2_df_662_15583)">
<path d="M29.667 9C25.5136 9 21.4535 10.2316 18 12.5391C14.5466 14.8466 11.855 18.1264 10.2655 21.9636C8.67609 25.8009 8.26022 30.0233 9.07051 34.0969C9.8808 38.1705 11.8809 41.9123 14.8178 44.8492C17.7547 47.7861 21.4965 49.7862 25.5701 50.5965C29.6437 51.4068 33.8661 50.9909 37.7034 49.4015C41.5406 47.812 44.8204 45.1204 47.1279 41.667C49.4354 38.2135 50.667 34.1534 50.667 30C50.6608 24.4323 48.4464 19.0945 44.5094 15.1576C40.5725 11.2206 35.2347 9.00615 29.667 9ZM29.667 15C32.8586 14.9948 35.968 16.0112 38.5402 17.9006C41.1124 19.7899 43.0124 22.453 43.962 25.5H39.042L37.917 24C37.5667 23.5353 37.1136 23.158 36.5931 22.8978C36.0726 22.6375 35.4989 22.5014 34.917 22.5H24.417C23.8351 22.5013 23.2614 22.6375 22.7409 22.8977C22.2204 23.158 21.7672 23.5353 21.417 24L20.292 25.5H15.372C16.3217 22.4531 18.2217 19.7901 20.7939 17.9007C23.3661 16.0114 26.4755 14.9949 29.667 15ZM25.917 44.523C23.1991 43.8197 20.7335 42.367 18.801 40.3304C16.8686 38.2939 15.5472 35.7555 14.9873 33.0045C17.9132 33.0912 20.6904 34.3136 22.7306 36.4128C24.7708 38.5119 25.9136 41.3228 25.917 44.25V44.523ZM29.667 36C28.777 36 27.907 35.7361 27.1669 35.2416C26.4269 34.7471 25.8501 34.0443 25.5095 33.2221C25.1689 32.3998 25.0798 31.495 25.2535 30.6221C25.4271 29.7492 25.8557 28.9474 26.485 28.318C27.1144 27.6887 27.9162 27.2601 28.7891 27.0865C29.662 26.9128 30.5668 27.0019 31.3891 27.3425C32.2113 27.6831 32.9141 28.2599 33.4086 28.9999C33.9031 29.74 34.167 30.61 34.167 31.5C34.1656 32.693 33.6911 33.8368 32.8474 34.6804C32.0038 35.5241 30.8601 35.9986 29.667 36ZM33.417 44.523V44.25C33.4206 41.3228 34.5635 38.512 36.6036 36.413C38.6438 34.3139 41.4209 33.0914 44.3468 33.0045C43.787 35.7556 42.4656 38.2941 40.5332 40.3306C38.6007 42.3672 36.135 43.8198 33.417 44.523Z" fill="#CC1A70"/>
<path d="M29.667 34.5C31.3238 34.5 32.667 33.1569 32.667 31.5C32.667 29.8431 31.3238 28.5 29.667 28.5C28.0101 28.5 26.667 29.8431 26.667 31.5C26.667 33.1569 28.0101 34.5 29.667 34.5Z" fill="#CC1A70"/>
</g>
<defs>
<filter id="filter0_df_662_15583" x="0.33366" y="0.666668" width="58.6667" height="58.6667" filterUnits="userSpaceOnUse" color-interpolation-filters="sRGB">
<feFlood flood-opacity="0" result="BackgroundImageFix"/>
<feColorMatrix in="SourceAlpha" type="matrix" values="0 0 0 0 0 0 0 0 0 0 0 0 0 0 0 0 0 0 127 0" result="hardAlpha"/>
<feOffset/>
<feGaussianBlur stdDeviation="4.16667"/>
<feComposite in2="hardAlpha" operator="out"/>
<feColorMatrix type="matrix" values="0 0 0 0 1 0 0 0 0 0.996078 0 0 0 0 0.0117647 0 0 0 0.25 0"/>
<feBlend mode="normal" in2="BackgroundImageFix" result="effect1_dropShadow_662_15583"/>
<feBlend mode="normal" in="SourceGraphic" in2="effect1_dropShadow_662_15583" result="shape"/>
<feGaussianBlur stdDeviation="0.46875" result="effect2_foregroundBlur_662_15583"/>
</filter>
<filter id="filter1_df_662_15583" x="0.33366" y="0.666668" width="58.6667" height="58.6667" filterUnits="userSpaceOnUse" color-interpolation-filters="sRGB">
<feFlood flood-opacity="0" result="BackgroundImageFix"/>
<feColorMatrix in="SourceAlpha" type="matrix" values="0 0 0 0 0 0 0 0 0 0 0 0 0 0 0 0 0 0 127 0" result="hardAlpha"/>
<feOffset/>
<feGaussianBlur stdDeviation="4.16667"/>
<feComposite in2="hardAlpha" operator="out"/>
<feColorMatrix type="matrix" values="0 0 0 0 0.847059 0 0 0 0 0.0196078 0 0 0 0 0.156863 0 0 0 0.25 0"/>
<feBlend mode="normal" in2="BackgroundImageFix" result="effect1_dropShadow_662_15583"/>
<feBlend mode="normal" in="SourceGraphic" in2="effect1_dropShadow_662_15583" result="shape"/>
<feGaussianBlur stdDeviation="0.46875" result="effect2_foregroundBlur_662_15583"/>
</filter>
<filter id="filter2_df_662_15583" x="0.33366" y="0.666668" width="58.6667" height="58.6667" filterUnits="userSpaceOnUse" color-interpolation-filters="sRGB">
<feFlood flood-opacity="0" result="BackgroundImageFix"/>
<feColorMatrix in="SourceAlpha" type="matrix" values="0 0 0 0 0 0 0 0 0 0 0 0 0 0 0 0 0 0 127 0" result="hardAlpha"/>
<feOffset/>
<feGaussianBlur stdDeviation="4.16667"/>
<feComposite in2="hardAlpha" operator="out"/>
<feColorMatrix type="matrix" values="0 0 0 0 0.894118 0 0 0 0 0.141176 0 0 0 0 0.466667 0 0 0 0.25 0"/>
<feBlend mode="normal" in2="BackgroundImageFix" result="effect1_dropShadow_662_15583"/>
<feBlend mode="normal" in="SourceGraphic" in2="effect1_dropShadow_662_15583" result="shape"/>
<feGaussianBlur stdDeviation="0.46875" result="effect2_foregroundBlur_662_15583"/>
</filter>
</defs>
</svg>
