<svg width="66" height="57" viewBox="0 0 66 57" fill="none" xmlns="http://www.w3.org/2000/svg">
<g style="mix-blend-mode:plus-lighter" filter="url(#filter0_df_662_15859)">
<path fill-rule="evenodd" clip-rule="evenodd" d="M17.4947 25.0403L17.4964 31.8187C17.4962 31.9377 17.4702 32.0553 17.4203 32.1634C17.3704 32.2714 17.2977 32.3674 17.2072 32.4447C16.4531 33.0854 15.5939 33.4107 14.7232 33.4107C13.6406 33.4107 12.6286 32.9145 11.817 32.0372C10.7294 30.8626 10 28.9749 10 26.8392C10 24.7035 10.7294 22.8159 11.817 21.6412C12.6286 20.7639 13.6406 20.2678 14.7232 20.2678C15.4379 20.2678 16.1459 20.4879 16.7932 20.9217C19.2099 14.3124 25.5579 9.58923 33 9.58923C40.4421 9.58923 46.7901 14.3124 49.2068 20.9217C49.8159 20.5016 50.5369 20.2739 51.2768 20.2678C52.3594 20.2678 53.3714 20.7639 54.183 21.6412C55.2706 22.8159 56 24.7035 56 26.8392C56 28.9749 55.2706 30.8626 54.183 32.0372C53.3714 32.9145 52.3594 33.4107 51.2768 33.4107C50.5621 33.4107 49.8541 33.1905 49.2068 32.7568C46.9117 39.0309 41.0779 43.603 34.127 44.0531C34.1533 44.201 34.1681 44.3504 34.1681 44.5C34.1681 45.2655 33.8231 45.9834 33.2021 46.5584C32.4135 47.2879 31.1485 47.7857 29.7143 47.7857C28.2801 47.7857 27.0151 47.2879 26.2265 46.5584C25.6055 45.9834 25.2605 45.2655 25.2605 44.5C25.2605 43.8822 25.4889 43.2711 25.9439 42.7355C26.021 42.6448 26.1169 42.5719 26.225 42.5219C26.3331 42.472 26.4508 42.4462 26.5699 42.4464H32.8587C32.8823 42.4466 32.9059 42.4477 32.9294 42.4497C32.9529 42.4478 32.9764 42.4467 33 42.4464C41.0056 42.4464 47.6116 36.4056 48.5053 28.6382V25.0403C47.6116 17.2729 41.0056 11.2321 33 11.2321C24.9944 11.2321 18.3884 17.2729 17.4947 25.0403ZM30.4437 38.0534C30.124 38.1645 29.8103 38.2923 29.504 38.4362C28.0534 39.1524 26.054 40.447 26.054 40.447C25.9129 40.5385 25.7472 40.5845 25.5792 40.5788C25.4111 40.573 25.2489 40.5159 25.1144 40.415C24.9799 40.3142 24.8795 40.1745 24.8269 40.0148C24.7743 39.8551 24.772 39.6831 24.8202 39.5221C24.8202 39.5221 25.4051 37.5835 25.5349 36.238C25.5498 36.0203 25.5498 35.8019 25.5349 35.5842C24.2688 34.506 23.2522 33.1655 22.5555 31.6555C21.8588 30.1456 21.4986 28.5022 21.5 26.8392C21.5 20.4929 26.6536 15.3392 33 15.3392C39.3464 15.3392 44.5 20.4929 44.5 26.8392C44.499 28.5664 44.1093 30.2712 43.3596 31.8272C42.6099 33.3832 41.5196 34.7505 40.1695 35.8276C38.8193 36.9048 37.244 37.6641 35.5604 38.0494C33.8767 38.4348 32.128 38.4361 30.4437 38.0534ZM33 24.3749C32.6763 24.3751 32.3557 24.4389 32.0567 24.5629C31.7577 24.6869 31.486 24.8686 31.2571 25.0975C31.0283 25.3265 30.8468 25.5983 30.723 25.8975C30.5993 26.1966 30.5356 26.5172 30.5357 26.8409C30.5358 27.1646 30.5997 27.4851 30.7237 27.7842C30.8477 28.0832 31.0293 28.3549 31.2583 28.5837C31.4873 28.8126 31.7591 28.994 32.0582 29.1178C32.3573 29.2416 32.6779 29.3053 33.0016 29.3052C33.6554 29.3049 34.2824 29.045 34.7445 28.5826C35.2066 28.1201 35.4661 27.493 35.4659 26.8392C35.4657 26.1854 35.2058 25.5585 34.7433 25.0964C34.2809 24.6342 33.6538 24.3747 33 24.3749ZM33 26.0178C33.2179 26.0178 33.4268 26.1043 33.5808 26.2584C33.7349 26.4124 33.8214 26.6214 33.8214 26.8392C33.8214 27.0571 33.7349 27.266 33.5808 27.4201C33.4268 27.5741 33.2179 27.6607 33 27.6607C32.7821 27.6607 32.5732 27.5741 32.4192 27.4201C32.2651 27.266 32.1786 27.0571 32.1786 26.8392C32.1786 26.6214 32.2651 26.4124 32.4192 26.2584C32.5732 26.1043 32.7821 26.0178 33 26.0178ZM38.75 24.3749C38.4263 24.3751 38.1057 24.4389 37.8067 24.5629C37.5077 24.6869 37.236 24.8686 37.0071 25.0975C36.7783 25.3265 36.5968 25.5983 36.473 25.8975C36.3493 26.1966 36.2856 26.5172 36.2857 26.8409C36.2858 27.1646 36.3497 27.4851 36.4737 27.7842C36.5977 28.0832 36.7793 28.3549 37.0083 28.5837C37.2373 28.8126 37.5091 28.994 37.8082 29.1178C38.1073 29.2416 38.4279 29.3053 38.7516 29.3052C39.4054 29.3049 40.0324 29.045 40.4945 28.5826C40.9566 28.1201 41.2161 27.493 41.2159 26.8392C41.2157 26.1854 40.9558 25.5585 40.4933 25.0964C40.0309 24.6342 39.4038 24.3747 38.75 24.3749ZM38.75 26.0178C38.9679 26.0178 39.1768 26.1043 39.3308 26.2584C39.4849 26.4124 39.5714 26.6214 39.5714 26.8392C39.5714 27.0571 39.4849 27.266 39.3308 27.4201C39.1768 27.5741 38.9679 27.6607 38.75 27.6607C38.5321 27.6607 38.3232 27.5741 38.1692 27.4201C38.0151 27.266 37.9286 27.0571 37.9286 26.8392C37.9286 26.6214 38.0151 26.4124 38.1692 26.2584C38.3232 26.1043 38.5321 26.0178 38.75 26.0178ZM27.25 24.3749C26.9263 24.3751 26.6057 24.4389 26.3067 24.5629C26.0077 24.6869 25.736 24.8686 25.5071 25.0975C25.2783 25.3265 25.0968 25.5983 24.973 25.8975C24.8493 26.1966 24.7856 26.5172 24.7857 26.8409C24.7858 27.1646 24.8497 27.4851 24.9737 27.7842C25.0977 28.0832 25.2793 28.3549 25.5083 28.5837C25.7373 28.8126 26.0091 28.994 26.3082 29.1178C26.6073 29.2416 26.9279 29.3053 27.2516 29.3052C27.9054 29.3049 28.5324 29.045 28.9945 28.5826C29.4566 28.1201 29.7161 27.493 29.7159 26.8392C29.7157 26.1854 29.4558 25.5585 28.9933 25.0964C28.5309 24.6342 27.9038 24.3747 27.25 24.3749ZM27.25 26.0178C27.4679 26.0178 27.6768 26.1043 27.8308 26.2584C27.9849 26.4124 28.0714 26.6214 28.0714 26.8392C28.0714 27.0571 27.9849 27.266 27.8308 27.4201C27.6768 27.5741 27.4679 27.6607 27.25 27.6607C27.0321 27.6607 26.8232 27.5741 26.6692 27.4201C26.5151 27.266 26.4286 27.0571 26.4286 26.8392C26.4286 26.6214 26.5151 26.4124 26.6692 26.2584C26.8232 26.1043 27.0321 26.0178 27.25 26.0178Z" fill="#FFE600"/>
</g>
<g style="mix-blend-mode:plus-lighter" filter="url(#filter1_df_662_15859)">
<path fill-rule="evenodd" clip-rule="evenodd" d="M17.4947 25.0403L17.4964 31.8187C17.4962 31.9377 17.4702 32.0553 17.4203 32.1634C17.3704 32.2714 17.2977 32.3674 17.2072 32.4447C16.4531 33.0854 15.5939 33.4107 14.7232 33.4107C13.6406 33.4107 12.6286 32.9145 11.817 32.0372C10.7294 30.8626 10 28.9749 10 26.8392C10 24.7035 10.7294 22.8159 11.817 21.6412C12.6286 20.7639 13.6406 20.2678 14.7232 20.2678C15.4379 20.2678 16.1459 20.4879 16.7932 20.9217C19.2099 14.3124 25.5579 9.58923 33 9.58923C40.4421 9.58923 46.7901 14.3124 49.2068 20.9217C49.8159 20.5016 50.5369 20.2739 51.2768 20.2678C52.3594 20.2678 53.3714 20.7639 54.183 21.6412C55.2706 22.8159 56 24.7035 56 26.8392C56 28.9749 55.2706 30.8626 54.183 32.0372C53.3714 32.9145 52.3594 33.4107 51.2768 33.4107C50.5621 33.4107 49.8541 33.1905 49.2068 32.7568C46.9117 39.0309 41.0779 43.603 34.127 44.0531C34.1533 44.201 34.1681 44.3504 34.1681 44.5C34.1681 45.2655 33.8231 45.9834 33.2021 46.5584C32.4135 47.2879 31.1485 47.7857 29.7143 47.7857C28.2801 47.7857 27.0151 47.2879 26.2265 46.5584C25.6055 45.9834 25.2605 45.2655 25.2605 44.5C25.2605 43.8822 25.4889 43.2711 25.9439 42.7355C26.021 42.6448 26.1169 42.5719 26.225 42.5219C26.3331 42.472 26.4508 42.4462 26.5699 42.4464H32.8587C32.8823 42.4466 32.9059 42.4477 32.9294 42.4497C32.9529 42.4478 32.9764 42.4467 33 42.4464C41.0056 42.4464 47.6116 36.4056 48.5053 28.6382V25.0403C47.6116 17.2729 41.0056 11.2321 33 11.2321C24.9944 11.2321 18.3884 17.2729 17.4947 25.0403ZM30.4437 38.0534C30.124 38.1645 29.8103 38.2923 29.504 38.4362C28.0534 39.1524 26.054 40.447 26.054 40.447C25.9129 40.5385 25.7472 40.5845 25.5792 40.5788C25.4111 40.573 25.2489 40.5159 25.1144 40.415C24.9799 40.3142 24.8795 40.1745 24.8269 40.0148C24.7743 39.8551 24.772 39.6831 24.8202 39.5221C24.8202 39.5221 25.4051 37.5835 25.5349 36.238C25.5498 36.0203 25.5498 35.8019 25.5349 35.5842C24.2688 34.506 23.2522 33.1655 22.5555 31.6555C21.8588 30.1456 21.4986 28.5022 21.5 26.8392C21.5 20.4929 26.6536 15.3392 33 15.3392C39.3464 15.3392 44.5 20.4929 44.5 26.8392C44.499 28.5664 44.1093 30.2712 43.3596 31.8272C42.6099 33.3832 41.5196 34.7505 40.1695 35.8276C38.8193 36.9048 37.244 37.6641 35.5604 38.0494C33.8767 38.4348 32.128 38.4361 30.4437 38.0534ZM33 24.3749C32.6763 24.3751 32.3557 24.4389 32.0567 24.5629C31.7577 24.6869 31.486 24.8686 31.2571 25.0975C31.0283 25.3265 30.8468 25.5983 30.723 25.8975C30.5993 26.1966 30.5356 26.5172 30.5357 26.8409C30.5358 27.1646 30.5997 27.4851 30.7237 27.7842C30.8477 28.0832 31.0293 28.3549 31.2583 28.5837C31.4873 28.8126 31.7591 28.994 32.0582 29.1178C32.3573 29.2416 32.6779 29.3053 33.0016 29.3052C33.6554 29.3049 34.2824 29.045 34.7445 28.5826C35.2066 28.1201 35.4661 27.493 35.4659 26.8392C35.4657 26.1854 35.2058 25.5585 34.7433 25.0964C34.2809 24.6342 33.6538 24.3747 33 24.3749ZM33 26.0178C33.2179 26.0178 33.4268 26.1043 33.5808 26.2584C33.7349 26.4124 33.8214 26.6214 33.8214 26.8392C33.8214 27.0571 33.7349 27.266 33.5808 27.4201C33.4268 27.5741 33.2179 27.6607 33 27.6607C32.7821 27.6607 32.5732 27.5741 32.4192 27.4201C32.2651 27.266 32.1786 27.0571 32.1786 26.8392C32.1786 26.6214 32.2651 26.4124 32.4192 26.2584C32.5732 26.1043 32.7821 26.0178 33 26.0178ZM38.75 24.3749C38.4263 24.3751 38.1057 24.4389 37.8067 24.5629C37.5077 24.6869 37.236 24.8686 37.0071 25.0975C36.7783 25.3265 36.5968 25.5983 36.473 25.8975C36.3493 26.1966 36.2856 26.5172 36.2857 26.8409C36.2858 27.1646 36.3497 27.4851 36.4737 27.7842C36.5977 28.0832 36.7793 28.3549 37.0083 28.5837C37.2373 28.8126 37.5091 28.994 37.8082 29.1178C38.1073 29.2416 38.4279 29.3053 38.7516 29.3052C39.4054 29.3049 40.0324 29.045 40.4945 28.5826C40.9566 28.1201 41.2161 27.493 41.2159 26.8392C41.2157 26.1854 40.9558 25.5585 40.4933 25.0964C40.0309 24.6342 39.4038 24.3747 38.75 24.3749ZM38.75 26.0178C38.9679 26.0178 39.1768 26.1043 39.3308 26.2584C39.4849 26.4124 39.5714 26.6214 39.5714 26.8392C39.5714 27.0571 39.4849 27.266 39.3308 27.4201C39.1768 27.5741 38.9679 27.6607 38.75 27.6607C38.5321 27.6607 38.3232 27.5741 38.1692 27.4201C38.0151 27.266 37.9286 27.0571 37.9286 26.8392C37.9286 26.6214 38.0151 26.4124 38.1692 26.2584C38.3232 26.1043 38.5321 26.0178 38.75 26.0178ZM27.25 24.3749C26.9263 24.3751 26.6057 24.4389 26.3067 24.5629C26.0077 24.6869 25.736 24.8686 25.5071 25.0975C25.2783 25.3265 25.0968 25.5983 24.973 25.8975C24.8493 26.1966 24.7856 26.5172 24.7857 26.8409C24.7858 27.1646 24.8497 27.4851 24.9737 27.7842C25.0977 28.0832 25.2793 28.3549 25.5083 28.5837C25.7373 28.8126 26.0091 28.994 26.3082 29.1178C26.6073 29.2416 26.9279 29.3053 27.2516 29.3052C27.9054 29.3049 28.5324 29.045 28.9945 28.5826C29.4566 28.1201 29.7161 27.493 29.7159 26.8392C29.7157 26.1854 29.4558 25.5585 28.9933 25.0964C28.5309 24.6342 27.9038 24.3747 27.25 24.3749ZM27.25 26.0178C27.4679 26.0178 27.6768 26.1043 27.8308 26.2584C27.9849 26.4124 28.0714 26.6214 28.0714 26.8392C28.0714 27.0571 27.9849 27.266 27.8308 27.4201C27.6768 27.5741 27.4679 27.6607 27.25 27.6607C27.0321 27.6607 26.8232 27.5741 26.6692 27.4201C26.5151 27.266 26.4286 27.0571 26.4286 26.8392C26.4286 26.6214 26.5151 26.4124 26.6692 26.2584C26.8232 26.1043 27.0321 26.0178 27.25 26.0178Z" fill="#BC010A"/>
</g>
<g style="mix-blend-mode:plus-lighter" filter="url(#filter2_df_662_15859)">
<path fill-rule="evenodd" clip-rule="evenodd" d="M17.4947 25.0403L17.4964 31.8187C17.4962 31.9377 17.4702 32.0553 17.4203 32.1634C17.3704 32.2714 17.2977 32.3674 17.2072 32.4447C16.4531 33.0854 15.5939 33.4107 14.7232 33.4107C13.6406 33.4107 12.6286 32.9145 11.817 32.0372C10.7294 30.8626 10 28.9749 10 26.8392C10 24.7035 10.7294 22.8159 11.817 21.6412C12.6286 20.7639 13.6406 20.2678 14.7232 20.2678C15.4379 20.2678 16.1459 20.4879 16.7932 20.9217C19.2099 14.3124 25.5579 9.58923 33 9.58923C40.4421 9.58923 46.7901 14.3124 49.2068 20.9217C49.8159 20.5016 50.5369 20.2739 51.2768 20.2678C52.3594 20.2678 53.3714 20.7639 54.183 21.6412C55.2706 22.8159 56 24.7035 56 26.8392C56 28.9749 55.2706 30.8626 54.183 32.0372C53.3714 32.9145 52.3594 33.4107 51.2768 33.4107C50.5621 33.4107 49.8541 33.1905 49.2068 32.7568C46.9117 39.0309 41.0779 43.603 34.127 44.0531C34.1533 44.201 34.1681 44.3504 34.1681 44.5C34.1681 45.2655 33.8231 45.9834 33.2021 46.5584C32.4135 47.2879 31.1485 47.7857 29.7143 47.7857C28.2801 47.7857 27.0151 47.2879 26.2265 46.5584C25.6055 45.9834 25.2605 45.2655 25.2605 44.5C25.2605 43.8822 25.4889 43.2711 25.9439 42.7355C26.021 42.6448 26.1169 42.5719 26.225 42.5219C26.3331 42.472 26.4508 42.4462 26.5699 42.4464H32.8587C32.8823 42.4466 32.9059 42.4477 32.9294 42.4497C32.9529 42.4478 32.9764 42.4467 33 42.4464C41.0056 42.4464 47.6116 36.4056 48.5053 28.6382V25.0403C47.6116 17.2729 41.0056 11.2321 33 11.2321C24.9944 11.2321 18.3884 17.2729 17.4947 25.0403ZM30.4437 38.0534C30.124 38.1645 29.8103 38.2923 29.504 38.4362C28.0534 39.1524 26.054 40.447 26.054 40.447C25.9129 40.5385 25.7472 40.5845 25.5792 40.5788C25.4111 40.573 25.2489 40.5159 25.1144 40.415C24.9799 40.3142 24.8795 40.1745 24.8269 40.0148C24.7743 39.8551 24.772 39.6831 24.8202 39.5221C24.8202 39.5221 25.4051 37.5835 25.5349 36.238C25.5498 36.0203 25.5498 35.8019 25.5349 35.5842C24.2688 34.506 23.2522 33.1655 22.5555 31.6555C21.8588 30.1456 21.4986 28.5022 21.5 26.8392C21.5 20.4929 26.6536 15.3392 33 15.3392C39.3464 15.3392 44.5 20.4929 44.5 26.8392C44.499 28.5664 44.1093 30.2712 43.3596 31.8272C42.6099 33.3832 41.5196 34.7505 40.1695 35.8276C38.8193 36.9048 37.244 37.6641 35.5604 38.0494C33.8767 38.4348 32.128 38.4361 30.4437 38.0534ZM33 24.3749C32.6763 24.3751 32.3557 24.4389 32.0567 24.5629C31.7577 24.6869 31.486 24.8686 31.2571 25.0975C31.0283 25.3265 30.8468 25.5983 30.723 25.8975C30.5993 26.1966 30.5356 26.5172 30.5357 26.8409C30.5358 27.1646 30.5997 27.4851 30.7237 27.7842C30.8477 28.0832 31.0293 28.3549 31.2583 28.5837C31.4873 28.8126 31.7591 28.994 32.0582 29.1178C32.3573 29.2416 32.6779 29.3053 33.0016 29.3052C33.6554 29.3049 34.2824 29.045 34.7445 28.5826C35.2066 28.1201 35.4661 27.493 35.4659 26.8392C35.4657 26.1854 35.2058 25.5585 34.7433 25.0964C34.2809 24.6342 33.6538 24.3747 33 24.3749ZM33 26.0178C33.2179 26.0178 33.4268 26.1043 33.5808 26.2584C33.7349 26.4124 33.8214 26.6214 33.8214 26.8392C33.8214 27.0571 33.7349 27.266 33.5808 27.4201C33.4268 27.5741 33.2179 27.6607 33 27.6607C32.7821 27.6607 32.5732 27.5741 32.4192 27.4201C32.2651 27.266 32.1786 27.0571 32.1786 26.8392C32.1786 26.6214 32.2651 26.4124 32.4192 26.2584C32.5732 26.1043 32.7821 26.0178 33 26.0178ZM38.75 24.3749C38.4263 24.3751 38.1057 24.4389 37.8067 24.5629C37.5077 24.6869 37.236 24.8686 37.0071 25.0975C36.7783 25.3265 36.5968 25.5983 36.473 25.8975C36.3493 26.1966 36.2856 26.5172 36.2857 26.8409C36.2858 27.1646 36.3497 27.4851 36.4737 27.7842C36.5977 28.0832 36.7793 28.3549 37.0083 28.5837C37.2373 28.8126 37.5091 28.994 37.8082 29.1178C38.1073 29.2416 38.4279 29.3053 38.7516 29.3052C39.4054 29.3049 40.0324 29.045 40.4945 28.5826C40.9566 28.1201 41.2161 27.493 41.2159 26.8392C41.2157 26.1854 40.9558 25.5585 40.4933 25.0964C40.0309 24.6342 39.4038 24.3747 38.75 24.3749ZM38.75 26.0178C38.9679 26.0178 39.1768 26.1043 39.3308 26.2584C39.4849 26.4124 39.5714 26.6214 39.5714 26.8392C39.5714 27.0571 39.4849 27.266 39.3308 27.4201C39.1768 27.5741 38.9679 27.6607 38.75 27.6607C38.5321 27.6607 38.3232 27.5741 38.1692 27.4201C38.0151 27.266 37.9286 27.0571 37.9286 26.8392C37.9286 26.6214 38.0151 26.4124 38.1692 26.2584C38.3232 26.1043 38.5321 26.0178 38.75 26.0178ZM27.25 24.3749C26.9263 24.3751 26.6057 24.4389 26.3067 24.5629C26.0077 24.6869 25.736 24.8686 25.5071 25.0975C25.2783 25.3265 25.0968 25.5983 24.973 25.8975C24.8493 26.1966 24.7856 26.5172 24.7857 26.8409C24.7858 27.1646 24.8497 27.4851 24.9737 27.7842C25.0977 28.0832 25.2793 28.3549 25.5083 28.5837C25.7373 28.8126 26.0091 28.994 26.3082 29.1178C26.6073 29.2416 26.9279 29.3053 27.2516 29.3052C27.9054 29.3049 28.5324 29.045 28.9945 28.5826C29.4566 28.1201 29.7161 27.493 29.7159 26.8392C29.7157 26.1854 29.4558 25.5585 28.9933 25.0964C28.5309 24.6342 27.9038 24.3747 27.25 24.3749ZM27.25 26.0178C27.4679 26.0178 27.6768 26.1043 27.8308 26.2584C27.9849 26.4124 28.0714 26.6214 28.0714 26.8392C28.0714 27.0571 27.9849 27.266 27.8308 27.4201C27.6768 27.5741 27.4679 27.6607 27.25 27.6607C27.0321 27.6607 26.8232 27.5741 26.6692 27.4201C26.5151 27.266 26.4286 27.0571 26.4286 26.8392C26.4286 26.6214 26.5151 26.4124 26.6692 26.2584C26.8232 26.1043 27.0321 26.0178 27.25 26.0178Z" fill="#CC1A70"/>
</g>
<defs>
<filter id="filter0_df_662_15859" x="0.873017" y="0.462251" width="64.254" height="56.4504" filterUnits="userSpaceOnUse" color-interpolation-filters="sRGB">
<feFlood flood-opacity="0" result="BackgroundImageFix"/>
<feColorMatrix in="SourceAlpha" type="matrix" values="0 0 0 0 0 0 0 0 0 0 0 0 0 0 0 0 0 0 127 0" result="hardAlpha"/>
<feOffset/>
<feGaussianBlur stdDeviation="4.56349"/>
<feComposite in2="hardAlpha" operator="out"/>
<feColorMatrix type="matrix" values="0 0 0 0 1 0 0 0 0 0.996078 0 0 0 0 0.0117647 0 0 0 0.25 0"/>
<feBlend mode="normal" in2="BackgroundImageFix" result="effect1_dropShadow_662_15859"/>
<feBlend mode="normal" in="SourceGraphic" in2="effect1_dropShadow_662_15859" result="shape"/>
<feGaussianBlur stdDeviation="0.513393" result="effect2_foregroundBlur_662_15859"/>
</filter>
<filter id="filter1_df_662_15859" x="0.873017" y="0.462251" width="64.254" height="56.4504" filterUnits="userSpaceOnUse" color-interpolation-filters="sRGB">
<feFlood flood-opacity="0" result="BackgroundImageFix"/>
<feColorMatrix in="SourceAlpha" type="matrix" values="0 0 0 0 0 0 0 0 0 0 0 0 0 0 0 0 0 0 127 0" result="hardAlpha"/>
<feOffset/>
<feGaussianBlur stdDeviation="4.56349"/>
<feComposite in2="hardAlpha" operator="out"/>
<feColorMatrix type="matrix" values="0 0 0 0 0.847059 0 0 0 0 0.0196078 0 0 0 0 0.156863 0 0 0 0.25 0"/>
<feBlend mode="normal" in2="BackgroundImageFix" result="effect1_dropShadow_662_15859"/>
<feBlend mode="normal" in="SourceGraphic" in2="effect1_dropShadow_662_15859" result="shape"/>
<feGaussianBlur stdDeviation="0.513393" result="effect2_foregroundBlur_662_15859"/>
</filter>
<filter id="filter2_df_662_15859" x="0.873017" y="0.462251" width="64.254" height="56.4504" filterUnits="userSpaceOnUse" color-interpolation-filters="sRGB">
<feFlood flood-opacity="0" result="BackgroundImageFix"/>
<feColorMatrix in="SourceAlpha" type="matrix" values="0 0 0 0 0 0 0 0 0 0 0 0 0 0 0 0 0 0 127 0" result="hardAlpha"/>
<feOffset/>
<feGaussianBlur stdDeviation="4.56349"/>
<feComposite in2="hardAlpha" operator="out"/>
<feColorMatrix type="matrix" values="0 0 0 0 0.894118 0 0 0 0 0.141176 0 0 0 0 0.466667 0 0 0 0.25 0"/>
<feBlend mode="normal" in2="BackgroundImageFix" result="effect1_dropShadow_662_15859"/>
<feBlend mode="normal" in="SourceGraphic" in2="effect1_dropShadow_662_15859" result="shape"/>
<feGaussianBlur stdDeviation="0.513393" result="effect2_foregroundBlur_662_15859"/>
</filter>
</defs>
</svg>
