<svg width="66" height="66" viewBox="0 0 66 66" fill="none" xmlns="http://www.w3.org/2000/svg">
<g style="mix-blend-mode:plus-lighter" filter="url(#filter0_df_662_15847)">
<path d="M33 22.5C30.9233 22.5 28.8932 23.1158 27.1665 24.2696C25.4398 25.4233 24.094 27.0632 23.2993 28.9818C22.5045 30.9004 22.2966 33.0116 22.7018 35.0484C23.1069 37.0852 24.1069 38.9562 25.5754 40.4246C27.0438 41.8931 28.9148 42.8931 30.9516 43.2982C32.9884 43.7034 35.0996 43.4955 37.0182 42.7007C38.9368 41.906 40.5767 40.5602 41.7304 38.8335C42.8842 37.1068 43.5 35.0767 43.5 33C43.4968 30.2162 42.3896 27.5473 40.4211 25.5789C38.4527 23.6104 35.7838 22.5032 33 22.5ZM38.5605 31.0605L32.5605 37.0605C32.2792 37.3417 31.8978 37.4997 31.5 37.4997C31.1023 37.4997 30.7208 37.3417 30.4395 37.0605L27.4395 34.0605C27.1663 33.7776 27.0151 33.3987 27.0185 33.0054C27.0219 32.6121 27.1797 32.2359 27.4578 31.9578C27.7359 31.6797 28.1121 31.5219 28.5054 31.5185C28.8987 31.5151 29.2776 31.6663 29.5605 31.9395L31.5 33.879L36.4395 28.9395C36.7224 28.6663 37.1013 28.5151 37.4946 28.5185C37.8879 28.5219 38.2641 28.6797 38.5422 28.9578C38.8203 29.2359 38.9781 29.6121 38.9815 30.0054C38.9849 30.3987 38.8337 30.7776 38.5605 31.0605Z" fill="#FFE600"/>
<path d="M54.726 28.26L51.693 27.501C51.3018 26.1712 50.7687 24.8873 50.103 23.6715L51.714 20.9865C52.0588 20.4131 52.2018 19.7408 52.1203 19.0767C52.0387 18.4126 51.7373 17.7949 51.264 17.322L48.675 14.736C48.2022 14.2625 47.5845 13.9609 46.9203 13.8793C46.2562 13.7978 45.5838 13.9409 45.0105 14.286L42.3255 15.8955C41.1097 15.2306 39.8258 14.6985 38.496 14.3085L37.737 11.2725C37.5758 10.6235 37.202 10.0471 36.6752 9.63521C36.1483 9.22335 35.4987 8.99973 34.83 9H31.17C30.5008 8.99932 29.8507 9.22273 29.3233 9.6346C28.7958 10.0465 28.4215 10.6231 28.26 11.2725L27.501 14.3085C26.1708 14.6986 24.8864 15.2307 23.67 15.8955L20.985 14.2845C20.4115 13.9399 19.7391 13.7971 19.075 13.8789C18.4109 13.9608 17.7933 14.2625 17.3205 14.736L14.736 17.325C14.2627 17.7979 13.9613 18.4156 13.8797 19.0797C13.7982 19.7438 13.9412 20.4161 14.286 20.9895L15.897 23.6745C15.2313 24.8903 14.6982 26.1742 14.307 27.504L11.2725 28.263C10.6236 28.4244 10.0474 28.7983 9.63553 29.3251C9.22371 29.8519 8.99999 30.5013 9 31.17V34.827C8.99898 35.4964 9.22224 36.1469 9.63414 36.6747C10.046 37.2024 10.6229 37.5769 11.2725 37.7385L14.3085 38.4975C14.6988 39.8272 15.2308 41.1111 15.8955 42.327L14.2845 45.012C13.9399 45.5856 13.7971 46.2579 13.8789 46.922C13.9608 47.5861 14.2625 48.2038 14.736 48.6765L17.3235 51.264C17.7963 51.7375 18.414 52.0391 19.0782 52.1207C19.7423 52.2022 20.4147 52.0591 20.988 51.714L23.673 50.103C24.8889 50.7677 26.1728 51.2998 27.5025 51.69L28.2615 54.726C28.4227 55.3754 28.7966 55.9522 29.3238 56.3643C29.8509 56.7765 30.5009 57.0003 31.17 57H34.827C35.4963 57.0009 36.1465 56.7776 36.674 56.3657C37.2015 55.9538 37.5757 55.377 37.737 54.7275L38.496 51.6915C39.8258 51.3015 41.1097 50.7694 42.3255 50.1045L45.0105 51.7155C45.584 52.0604 46.2564 52.2033 46.9206 52.1215C47.5848 52.0396 48.2024 51.7378 48.675 51.264L51.2625 48.6765C51.7358 48.2036 52.0372 47.5859 52.1188 46.9218C52.2003 46.2577 52.0573 45.5854 51.7125 45.012L50.1015 42.327C50.7672 41.1112 51.3003 39.8273 51.6915 38.4975L54.726 37.74C55.3757 37.5788 55.9526 37.2046 56.3648 36.6771C56.777 36.1497 57.0006 35.4994 57 34.83V31.17C57.0006 30.5006 56.777 29.8503 56.3648 29.3229C55.9526 28.7954 55.3757 28.4212 54.726 28.26ZM33 46.5C30.33 46.5 27.7199 45.7082 25.4998 44.2248C23.2797 42.7414 21.5494 40.633 20.5276 38.1662C19.5058 35.6994 19.2385 32.985 19.7594 30.3663C20.2803 27.7475 21.5661 25.3421 23.4541 23.4541C25.3421 21.5661 27.7475 20.2803 30.3663 19.7594C32.985 19.2385 35.6994 19.5058 38.1662 20.5276C40.633 21.5494 42.7414 23.2797 44.2248 25.4998C45.7082 27.7199 46.5 30.33 46.5 33C46.496 36.5792 45.0724 40.0107 42.5416 42.5416C40.0107 45.0724 36.5792 46.496 33 46.5Z" fill="#FFE600"/>
</g>
<g style="mix-blend-mode:plus-lighter" filter="url(#filter1_df_662_15847)">
<path d="M33 22.5C30.9233 22.5 28.8932 23.1158 27.1665 24.2696C25.4398 25.4233 24.094 27.0632 23.2993 28.9818C22.5045 30.9004 22.2966 33.0116 22.7018 35.0484C23.1069 37.0852 24.1069 38.9562 25.5754 40.4246C27.0438 41.8931 28.9148 42.8931 30.9516 43.2982C32.9884 43.7034 35.0996 43.4955 37.0182 42.7007C38.9368 41.906 40.5767 40.5602 41.7304 38.8335C42.8842 37.1068 43.5 35.0767 43.5 33C43.4968 30.2162 42.3896 27.5473 40.4211 25.5789C38.4527 23.6104 35.7838 22.5032 33 22.5ZM38.5605 31.0605L32.5605 37.0605C32.2792 37.3417 31.8978 37.4997 31.5 37.4997C31.1023 37.4997 30.7208 37.3417 30.4395 37.0605L27.4395 34.0605C27.1663 33.7776 27.0151 33.3987 27.0185 33.0054C27.0219 32.6121 27.1797 32.2359 27.4578 31.9578C27.7359 31.6797 28.1121 31.5219 28.5054 31.5185C28.8987 31.5151 29.2776 31.6663 29.5605 31.9395L31.5 33.879L36.4395 28.9395C36.7224 28.6663 37.1013 28.5151 37.4946 28.5185C37.8879 28.5219 38.2641 28.6797 38.5422 28.9578C38.8203 29.2359 38.9781 29.6121 38.9815 30.0054C38.9849 30.3987 38.8337 30.7776 38.5605 31.0605Z" fill="#BC010A"/>
<g style="mix-blend-mode:plus-lighter" filter="url(#filter2_df_662_15847)">
<path d="M54.726 28.26L51.693 27.501C51.3018 26.1712 50.7687 24.8873 50.103 23.6715L51.714 20.9865C52.0588 20.4131 52.2018 19.7408 52.1203 19.0767C52.0387 18.4126 51.7373 17.7949 51.264 17.322L48.675 14.736C48.2022 14.2625 47.5845 13.9609 46.9203 13.8793C46.2562 13.7978 45.5838 13.9409 45.0105 14.286L42.3255 15.8955C41.1097 15.2306 39.8258 14.6985 38.496 14.3085L37.737 11.2725C37.5758 10.6235 37.202 10.0471 36.6752 9.63521C36.1483 9.22335 35.4987 8.99973 34.83 9H31.17C30.5008 8.99932 29.8507 9.22273 29.3233 9.6346C28.7958 10.0465 28.4215 10.6231 28.26 11.2725L27.501 14.3085C26.1708 14.6986 24.8864 15.2307 23.67 15.8955L20.985 14.2845C20.4115 13.9399 19.7391 13.7971 19.075 13.8789C18.4109 13.9608 17.7933 14.2625 17.3205 14.736L14.736 17.325C14.2627 17.7979 13.9613 18.4156 13.8797 19.0797C13.7982 19.7438 13.9412 20.4161 14.286 20.9895L15.897 23.6745C15.2313 24.8903 14.6982 26.1742 14.307 27.504L11.2725 28.263C10.6236 28.4244 10.0474 28.7983 9.63553 29.3251C9.22371 29.8519 8.99999 30.5013 9 31.17V34.827C8.99898 35.4964 9.22224 36.1469 9.63414 36.6747C10.046 37.2024 10.6229 37.5769 11.2725 37.7385L14.3085 38.4975C14.6988 39.8272 15.2308 41.1111 15.8955 42.327L14.2845 45.012C13.9399 45.5856 13.7971 46.2579 13.8789 46.922C13.9608 47.5861 14.2625 48.2038 14.736 48.6765L17.3235 51.264C17.7963 51.7375 18.414 52.0391 19.0782 52.1207C19.7423 52.2022 20.4147 52.0591 20.988 51.714L23.673 50.103C24.8889 50.7677 26.1728 51.2998 27.5025 51.69L28.2615 54.726C28.4227 55.3754 28.7966 55.9522 29.3238 56.3643C29.8509 56.7765 30.5009 57.0003 31.17 57H34.827C35.4963 57.0009 36.1465 56.7776 36.674 56.3657C37.2015 55.9538 37.5757 55.377 37.737 54.7275L38.496 51.6915C39.8258 51.3015 41.1097 50.7694 42.3255 50.1045L45.0105 51.7155C45.584 52.0604 46.2564 52.2033 46.9206 52.1215C47.5848 52.0396 48.2024 51.7378 48.675 51.264L51.2625 48.6765C51.7358 48.2036 52.0372 47.5859 52.1188 46.9218C52.2003 46.2577 52.0573 45.5854 51.7125 45.012L50.1015 42.327C50.7672 41.1112 51.3003 39.8273 51.6915 38.4975L54.726 37.74C55.3757 37.5788 55.9526 37.2046 56.3648 36.6771C56.777 36.1497 57.0006 35.4994 57 34.83V31.17C57.0006 30.5006 56.777 29.8503 56.3648 29.3229C55.9526 28.7954 55.3757 28.4212 54.726 28.26ZM33 46.5C30.33 46.5 27.7199 45.7082 25.4998 44.2248C23.2797 42.7414 21.5494 40.633 20.5276 38.1662C19.5058 35.6994 19.2385 32.985 19.7594 30.3663C20.2803 27.7475 21.5661 25.3421 23.4541 23.4541C25.3421 21.5661 27.7475 20.2803 30.3663 19.7594C32.985 19.2385 35.6994 19.5058 38.1662 20.5276C40.633 21.5494 42.7414 23.2797 44.2248 25.4998C45.7082 27.7199 46.5 30.33 46.5 33C46.496 36.5792 45.0724 40.0107 42.5416 42.5416C40.0107 45.0724 36.5792 46.496 33 46.5Z" fill="#BC010A"/>
</g>
</g>
<g style="mix-blend-mode:plus-lighter" filter="url(#filter3_df_662_15847)">
<path d="M33 22.5C30.9233 22.5 28.8932 23.1158 27.1665 24.2696C25.4398 25.4233 24.094 27.0632 23.2993 28.9818C22.5045 30.9004 22.2966 33.0116 22.7018 35.0484C23.1069 37.0852 24.1069 38.9562 25.5754 40.4246C27.0438 41.8931 28.9148 42.8931 30.9516 43.2982C32.9884 43.7034 35.0996 43.4955 37.0182 42.7007C38.9368 41.906 40.5767 40.5602 41.7304 38.8335C42.8842 37.1068 43.5 35.0767 43.5 33C43.4968 30.2162 42.3896 27.5473 40.4211 25.5789C38.4527 23.6104 35.7838 22.5032 33 22.5ZM38.5605 31.0605L32.5605 37.0605C32.2792 37.3417 31.8978 37.4997 31.5 37.4997C31.1023 37.4997 30.7208 37.3417 30.4395 37.0605L27.4395 34.0605C27.1663 33.7776 27.0151 33.3987 27.0185 33.0054C27.0219 32.6121 27.1797 32.2359 27.4578 31.9578C27.7359 31.6797 28.1121 31.5219 28.5054 31.5185C28.8987 31.5151 29.2776 31.6663 29.5605 31.9395L31.5 33.879L36.4395 28.9395C36.7224 28.6663 37.1013 28.5151 37.4946 28.5185C37.8879 28.5219 38.2641 28.6797 38.5422 28.9578C38.8203 29.2359 38.9781 29.6121 38.9815 30.0054C38.9849 30.3987 38.8337 30.7776 38.5605 31.0605Z" fill="#CC1A70"/>
<g style="mix-blend-mode:plus-lighter" filter="url(#filter4_df_662_15847)">
<path d="M54.726 28.26L51.693 27.501C51.3018 26.1712 50.7687 24.8873 50.103 23.6715L51.714 20.9865C52.0588 20.4131 52.2018 19.7408 52.1203 19.0767C52.0387 18.4126 51.7373 17.7949 51.264 17.322L48.675 14.736C48.2022 14.2625 47.5845 13.9609 46.9203 13.8793C46.2562 13.7978 45.5838 13.9409 45.0105 14.286L42.3255 15.8955C41.1097 15.2306 39.8258 14.6985 38.496 14.3085L37.737 11.2725C37.5758 10.6235 37.202 10.0471 36.6752 9.63521C36.1483 9.22335 35.4987 8.99973 34.83 9H31.17C30.5008 8.99932 29.8507 9.22273 29.3233 9.6346C28.7958 10.0465 28.4215 10.6231 28.26 11.2725L27.501 14.3085C26.1708 14.6986 24.8864 15.2307 23.67 15.8955L20.985 14.2845C20.4115 13.9399 19.7391 13.7971 19.075 13.8789C18.4109 13.9608 17.7933 14.2625 17.3205 14.736L14.736 17.325C14.2627 17.7979 13.9613 18.4156 13.8797 19.0797C13.7982 19.7438 13.9412 20.4161 14.286 20.9895L15.897 23.6745C15.2313 24.8903 14.6982 26.1742 14.307 27.504L11.2725 28.263C10.6236 28.4244 10.0474 28.7983 9.63553 29.3251C9.22371 29.8519 8.99999 30.5013 9 31.17V34.827C8.99898 35.4964 9.22224 36.1469 9.63414 36.6747C10.046 37.2024 10.6229 37.5769 11.2725 37.7385L14.3085 38.4975C14.6988 39.8272 15.2308 41.1111 15.8955 42.327L14.2845 45.012C13.9399 45.5856 13.7971 46.2579 13.8789 46.922C13.9608 47.5861 14.2625 48.2038 14.736 48.6765L17.3235 51.264C17.7963 51.7375 18.414 52.0391 19.0782 52.1207C19.7423 52.2022 20.4147 52.0591 20.988 51.714L23.673 50.103C24.8889 50.7677 26.1728 51.2998 27.5025 51.69L28.2615 54.726C28.4227 55.3754 28.7966 55.9522 29.3238 56.3643C29.8509 56.7765 30.5009 57.0003 31.17 57H34.827C35.4963 57.0009 36.1465 56.7776 36.674 56.3657C37.2015 55.9538 37.5757 55.377 37.737 54.7275L38.496 51.6915C39.8258 51.3015 41.1097 50.7694 42.3255 50.1045L45.0105 51.7155C45.584 52.0604 46.2564 52.2033 46.9206 52.1215C47.5848 52.0396 48.2024 51.7378 48.675 51.264L51.2625 48.6765C51.7358 48.2036 52.0372 47.5859 52.1188 46.9218C52.2003 46.2577 52.0573 45.5854 51.7125 45.012L50.1015 42.327C50.7672 41.1112 51.3003 39.8273 51.6915 38.4975L54.726 37.74C55.3757 37.5788 55.9526 37.2046 56.3648 36.6771C56.777 36.1497 57.0006 35.4994 57 34.83V31.17C57.0006 30.5006 56.777 29.8503 56.3648 29.3229C55.9526 28.7954 55.3757 28.4212 54.726 28.26ZM33 46.5C30.33 46.5 27.7199 45.7082 25.4998 44.2248C23.2797 42.7414 21.5494 40.633 20.5276 38.1662C19.5058 35.6994 19.2385 32.985 19.7594 30.3663C20.2803 27.7475 21.5661 25.3421 23.4541 23.4541C25.3421 21.5661 27.7475 20.2803 30.3663 19.7594C32.985 19.2385 35.6994 19.5058 38.1662 20.5276C40.633 21.5494 42.7414 23.2797 44.2248 25.4998C45.7082 27.7199 46.5 30.33 46.5 33C46.496 36.5792 45.0724 40.0107 42.5416 42.5416C40.0107 45.0724 36.5792 46.496 33 46.5Z" fill="#CC1A70"/>
</g>
</g>
<defs>
<filter id="filter0_df_662_15847" x="0.666668" y="0.666668" width="64.6667" height="64.6667" filterUnits="userSpaceOnUse" color-interpolation-filters="sRGB">
<feFlood flood-opacity="0" result="BackgroundImageFix"/>
<feColorMatrix in="SourceAlpha" type="matrix" values="0 0 0 0 0 0 0 0 0 0 0 0 0 0 0 0 0 0 127 0" result="hardAlpha"/>
<feOffset/>
<feGaussianBlur stdDeviation="4.16667"/>
<feComposite in2="hardAlpha" operator="out"/>
<feColorMatrix type="matrix" values="0 0 0 0 1 0 0 0 0 0.996078 0 0 0 0 0.0117647 0 0 0 0.25 0"/>
<feBlend mode="normal" in2="BackgroundImageFix" result="effect1_dropShadow_662_15847"/>
<feBlend mode="normal" in="SourceGraphic" in2="effect1_dropShadow_662_15847" result="shape"/>
<feGaussianBlur stdDeviation="0.46875" result="effect2_foregroundBlur_662_15847"/>
</filter>
<filter id="filter1_df_662_15847" x="0.666668" y="0.666668" width="64.6667" height="64.6667" filterUnits="userSpaceOnUse" color-interpolation-filters="sRGB">
<feFlood flood-opacity="0" result="BackgroundImageFix"/>
<feColorMatrix in="SourceAlpha" type="matrix" values="0 0 0 0 0 0 0 0 0 0 0 0 0 0 0 0 0 0 127 0" result="hardAlpha"/>
<feOffset/>
<feGaussianBlur stdDeviation="4.16667"/>
<feComposite in2="hardAlpha" operator="out"/>
<feColorMatrix type="matrix" values="0 0 0 0 0.847059 0 0 0 0 0.0196078 0 0 0 0 0.156863 0 0 0 0.25 0"/>
<feBlend mode="normal" in2="BackgroundImageFix" result="effect1_dropShadow_662_15847"/>
<feBlend mode="normal" in="SourceGraphic" in2="effect1_dropShadow_662_15847" result="shape"/>
<feGaussianBlur stdDeviation="0.46875" result="effect2_foregroundBlur_662_15847"/>
</filter>
<filter id="filter2_df_662_15847" x="0.666668" y="0.666668" width="64.6667" height="64.6667" filterUnits="userSpaceOnUse" color-interpolation-filters="sRGB">
<feFlood flood-opacity="0" result="BackgroundImageFix"/>
<feColorMatrix in="SourceAlpha" type="matrix" values="0 0 0 0 0 0 0 0 0 0 0 0 0 0 0 0 0 0 127 0" result="hardAlpha"/>
<feOffset/>
<feGaussianBlur stdDeviation="4.16667"/>
<feComposite in2="hardAlpha" operator="out"/>
<feColorMatrix type="matrix" values="0 0 0 0 0.847059 0 0 0 0 0.0196078 0 0 0 0 0.156863 0 0 0 0.25 0"/>
<feBlend mode="normal" in2="BackgroundImageFix" result="effect1_dropShadow_662_15847"/>
<feBlend mode="normal" in="SourceGraphic" in2="effect1_dropShadow_662_15847" result="shape"/>
<feGaussianBlur stdDeviation="0.46875" result="effect2_foregroundBlur_662_15847"/>
</filter>
<filter id="filter3_df_662_15847" x="0.666668" y="0.666668" width="64.6667" height="64.6667" filterUnits="userSpaceOnUse" color-interpolation-filters="sRGB">
<feFlood flood-opacity="0" result="BackgroundImageFix"/>
<feColorMatrix in="SourceAlpha" type="matrix" values="0 0 0 0 0 0 0 0 0 0 0 0 0 0 0 0 0 0 127 0" result="hardAlpha"/>
<feOffset/>
<feGaussianBlur stdDeviation="4.16667"/>
<feComposite in2="hardAlpha" operator="out"/>
<feColorMatrix type="matrix" values="0 0 0 0 0.894118 0 0 0 0 0.141176 0 0 0 0 0.466667 0 0 0 0.25 0"/>
<feBlend mode="normal" in2="BackgroundImageFix" result="effect1_dropShadow_662_15847"/>
<feBlend mode="normal" in="SourceGraphic" in2="effect1_dropShadow_662_15847" result="shape"/>
<feGaussianBlur stdDeviation="0.46875" result="effect2_foregroundBlur_662_15847"/>
</filter>
<filter id="filter4_df_662_15847" x="0.666668" y="0.666668" width="64.6667" height="64.6667" filterUnits="userSpaceOnUse" color-interpolation-filters="sRGB">
<feFlood flood-opacity="0" result="BackgroundImageFix"/>
<feColorMatrix in="SourceAlpha" type="matrix" values="0 0 0 0 0 0 0 0 0 0 0 0 0 0 0 0 0 0 127 0" result="hardAlpha"/>
<feOffset/>
<feGaussianBlur stdDeviation="4.16667"/>
<feComposite in2="hardAlpha" operator="out"/>
<feColorMatrix type="matrix" values="0 0 0 0 0.847059 0 0 0 0 0.0196078 0 0 0 0 0.156863 0 0 0 0.25 0"/>
<feBlend mode="normal" in2="BackgroundImageFix" result="effect1_dropShadow_662_15847"/>
<feBlend mode="normal" in="SourceGraphic" in2="effect1_dropShadow_662_15847" result="shape"/>
<feGaussianBlur stdDeviation="0.46875" result="effect2_foregroundBlur_662_15847"/>
</filter>
</defs>
</svg>
